<?xml version="1.0" encoding="utf-8"?>
<!-- Generator: Adobe Illustrator 16.0.4, SVG Export Plug-In . SVG Version: 6.00 Build 0)  -->
<!DOCTYPE svg PUBLIC "-//W3C//DTD SVG 1.1//EN" "http://www.w3.org/Graphics/SVG/1.1/DTD/svg11.dtd">
<svg version="1.1" id="Layer_1" xmlns="http://www.w3.org/2000/svg" xmlns:xlink="http://www.w3.org/1999/xlink" x="0px" y="0px"
	 width="283.667px" height="139.667px" viewBox="0 0 283.667 139.667" enable-background="new 0 0 283.667 139.667"
	 xml:space="preserve">
<g>
	<defs>
		<rect id="SVGID_1_" x="-169.333" y="-2" width="474.667" height="534.667"/>
	</defs>
	<clipPath id="SVGID_2_">
		<use xlink:href="#SVGID_1_"  overflow="visible"/>
	</clipPath>
	<g clip-path="url(#SVGID_2_)">
		<defs>
			<rect id="SVGID_3_" x="-169.333" y="-2" width="474.667" height="534.667"/>
		</defs>
		<clipPath id="SVGID_4_">
			<use xlink:href="#SVGID_3_"  overflow="visible"/>
		</clipPath>
		<path clip-path="url(#SVGID_4_)" fill="#CDCD00" d="M135.74,36.637c-1.104-1.103-2.906-1.103-4.009,0l-3.631,3.63
			c-1.102,1.102-1.102,2.906,0,4.009l3.631,3.63c1.103,1.102,2.905,1.102,4.009,0l3.629-3.63c1.103-1.103,1.103-2.907,0-4.009
			L135.74,36.637z"/>
		<path clip-path="url(#SVGID_4_)" fill="#CDCD00" d="M144.783,40.857c-1.101-1.103-2.905-1.103-4.008,0l-3.63,3.63
			c-1.104,1.103-1.104,2.906,0,4.009l3.63,3.63c1.103,1.103,2.907,1.103,4.008,0l3.631-3.63c1.102-1.103,1.102-2.906,0-4.009
			L144.783,40.857z"/>
		<path clip-path="url(#SVGID_4_)" fill="#CDCD00" d="M83.28,70.705c-1.104-1.103-2.906-1.103-4.009,0l-3.631,3.63
			c-1.102,1.102-1.102,2.907,0,4.009l3.631,3.631c1.103,1.101,2.905,1.101,4.009-0.001l3.629-3.629c1.102-1.103,1.102-2.908,0-4.01
			L83.28,70.705z"/>
		<path clip-path="url(#SVGID_4_)" fill="#CDCD00" d="M95.038,58.947c-1.103-1.103-2.906-1.103-4.009,0l-3.631,3.63
			c-1.103,1.102-1.103,2.906,0,4.009l3.631,3.629c1.103,1.103,2.906,1.103,4.009,0l3.63-3.629c1.102-1.103,1.102-2.907,0-4.009
			L95.038,58.947z"/>
		<path clip-path="url(#SVGID_4_)" fill="#CDCD00" d="M83.581,54.124c-1.103-1.103-2.905-1.103-4.009,0l-3.63,3.629
			c-1.103,1.103-1.103,2.907,0,4.009l3.63,3.63c1.104,1.103,2.906,1.103,4.009,0l3.629-3.63c1.103-1.102,1.103-2.906,0-4.009
			L83.581,54.124z"/>
		<path clip-path="url(#SVGID_4_)" fill="#CDCD00" d="M98.354,44.475c-1.104-1.103-2.906-1.103-4.009,0l-3.631,3.63
			c-1.102,1.102-1.102,2.906,0,4.009l3.631,3.63c1.103,1.103,2.905,1.103,4.009,0l3.63-3.63c1.103-1.103,1.103-2.907,0-4.009
			L98.354,44.475z"/>
		<path clip-path="url(#SVGID_4_)" fill="#CDCD00" d="M110.112,48.395c-1.104-1.103-2.906-1.103-4.009,0l-3.631,3.63
			c-1.102,1.102-1.102,2.906,0,4.009l3.631,3.63c1.103,1.102,2.905,1.102,4.009,0l3.63-3.63c1.103-1.103,1.103-2.907,0-4.009
			L110.112,48.395z"/>
		<path clip-path="url(#SVGID_4_)" fill="#CDCD00" d="M106.797,31.511c-1.104-1.103-2.906-1.103-4.009,0l-3.631,3.63
			c-1.103,1.102-1.103,2.906,0,4.009l3.631,3.63c1.103,1.103,2.905,1.103,4.009,0l3.63-3.63c1.102-1.103,1.102-2.907,0-4.009
			L106.797,31.511z"/>
		<path clip-path="url(#SVGID_4_)" fill="#CDCD00" d="M126.092,51.41c-1.102-1.103-2.905-1.103-4.009,0l-3.63,3.63
			c-1.103,1.102-1.103,2.906,0,4.009l3.63,3.629c1.104,1.103,2.907,1.103,4.009,0l3.63-3.629c1.103-1.103,1.103-2.907,0-4.009
			L126.092,51.41z"/>
		<path clip-path="url(#SVGID_4_)" fill="#CDCD00" d="M119.761,39.35c-1.104-1.103-2.906-1.103-4.009,0l-3.63,3.63
			c-1.104,1.102-1.104,2.906,0,4.009l3.63,3.63c1.103,1.103,2.905,1.103,4.009,0l3.63-3.63c1.102-1.103,1.102-2.907,0-4.009
			L119.761,39.35z"/>
		<path clip-path="url(#SVGID_4_)" fill="#CDCD00" d="M119.761,30.306c-1.104-1.103-2.906-1.103-4.009,0l-3.63,3.629
			c-1.104,1.103-1.104,2.907,0,4.009l3.63,3.63c1.103,1.103,2.905,1.103,4.009,0l3.63-3.63c1.102-1.102,1.102-2.906,0-4.009
			L119.761,30.306z"/>
		<path clip-path="url(#SVGID_4_)" fill="#CDCD00" d="M130.312,28.727c-1.102-1.103-2.905-1.103-4.009,0l-3.63,3.63
			c-1.103,1.102-1.103,2.906,0,4.009l3.63,3.629c1.104,1.103,2.907,1.103,4.009,0l3.63-3.629c1.104-1.103,1.104-2.907,0-4.009
			L130.312,28.727z"/>
		<path clip-path="url(#SVGID_4_)" fill="#CDCD00" d="M139.659,24.879c-1.104-1.103-2.906-1.103-4.009,0l-3.631,3.629
			c-1.102,1.103-1.102,2.907,0,4.009l3.631,3.63c1.103,1.103,2.905,1.103,4.009,0l3.631-3.63c1.101-1.102,1.101-2.906-0.001-4.009
			L139.659,24.879z"/>
		<path clip-path="url(#SVGID_4_)" fill="#CDCD00" d="M125.187,20.356c-1.103-1.103-2.905-1.103-4.009,0l-3.629,3.63
			c-1.103,1.102-1.103,2.906,0,4.009l3.629,3.629c1.104,1.103,2.906,1.103,4.009,0l3.63-3.629c1.103-1.103,1.103-2.907,0-4.009
			L125.187,20.356z"/>
		<path clip-path="url(#SVGID_4_)" fill="#CDCD00" d="M125.187,13.421c-1.103-1.102-2.905-1.102-4.009,0l-3.629,3.63
			c-1.103,1.103-1.103,2.907,0,4.009l3.629,3.63c1.104,1.103,2.906,1.103,4.009,0l3.63-3.63c1.103-1.102,1.103-2.906,0-4.009
			L125.187,13.421z"/>
		<path clip-path="url(#SVGID_4_)" fill="#CDCD00" d="M118.252,10.708c-1.103-1.102-2.905-1.102-4.009,0l-3.629,3.629
			c-1.103,1.103-1.103,2.907,0,4.009l3.629,3.631c1.104,1.102,2.906,1.102,4.009,0l3.63-3.631c1.103-1.102,1.103-2.906,0-4.009
			L118.252,10.708z"/>
		<path clip-path="url(#SVGID_4_)" fill="#CDCD00" d="M116.443,1.664c-1.103-1.103-2.905-1.103-4.009,0l-3.63,3.63
			c-1.102,1.102-1.102,2.906,0,4.009l3.63,3.629c1.104,1.104,2.906,1.104,4.009,0l3.63-3.629c1.103-1.103,1.103-2.907,0-4.009
			L116.443,1.664z"/>
		<path clip-path="url(#SVGID_4_)" fill="#CDCD00" d="M127.9,1.362c-1.103-1.102-2.906-1.102-4.009,0l-3.63,3.63
			c-1.102,1.102-1.102,2.906,0,4.009l3.63,3.63c1.103,1.102,2.906,1.102,4.009,0L131.53,9c1.103-1.103,1.103-2.907,0-4.009
			L127.9,1.362z"/>
		<path clip-path="url(#SVGID_4_)" fill="#CDCD00" d="M133.629,11.311c-1.104-1.103-2.906-1.103-4.009,0l-3.631,3.63
			c-1.103,1.102-1.103,2.906,0,4.009l3.631,3.63c1.103,1.102,2.905,1.102,4.009,0l3.63-3.63c1.102-1.103,1.102-2.907,0-4.009
			L133.629,11.311z"/>
		<path clip-path="url(#SVGID_4_)" fill="#CDCD00" d="M141.769,12.517c-1.102-1.103-2.905-1.103-4.008,0l-3.63,3.63
			c-1.103,1.102-1.103,2.906,0,4.009l3.63,3.629c1.103,1.103,2.906,1.103,4.008,0l3.63-3.629c1.102-1.103,1.102-2.907,0-4.009
			L141.769,12.517z"/>
		<path clip-path="url(#SVGID_4_)" fill="#CDCD00" d="M149.307,24.577c-1.102-1.103-2.905-1.103-4.01,0l-3.63,3.63
			c-1.103,1.102-1.103,2.906,0,4.009l3.632,3.63c1.103,1.103,2.906,1.103,4.008,0l3.631-3.63c1.103-1.103,1.103-2.907,0-4.009
			L149.307,24.577z"/>
		<path clip-path="url(#SVGID_4_)" fill="#CDCD00" d="M153.527,16.135c-1.102-1.103-2.905-1.103-4.008,0l-3.631,3.63
			c-1.102,1.102-1.102,2.906,0,4.009l3.631,3.63c1.103,1.103,2.906,1.103,4.008,0l3.631-3.63c1.102-1.103,1.102-2.907,0-4.009
			L153.527,16.135z"/>
		<path clip-path="url(#SVGID_4_)" fill="#CDCD00" d="M153.527,5.884c-1.102-1.103-2.905-1.103-4.008,0l-3.631,3.63
			c-1.102,1.103-1.102,2.907,0,4.009l3.629,3.629c1.104,1.103,2.908,1.103,4.01,0l3.629-3.629c1.104-1.102,1.104-2.906,0.002-4.009
			L153.527,5.884z"/>
		<path clip-path="url(#SVGID_4_)" fill="#CDCD00" d="M143.277,4.767c-1.104-1.103-2.907-1.103-4.01,0l-3.63,3.63
			c-1.103,1.102-1.103,2.906,0,4.009l3.63,3.63c1.103,1.102,2.906,1.102,4.01,0l3.629-3.63c1.104-1.103,1.104-2.907,0-4.009
			L143.277,4.767z"/>
		<path clip-path="url(#SVGID_4_)" fill="#CDCD00" d="M160.762,36.033c-1.102-1.103-2.905-1.103-4.008,0l-3.629,3.63
			c-1.101,1.102-1.101,2.906,0,4.009l3.629,3.63c1.103,1.103,2.906,1.103,4.008,0l3.631-3.63c1.102-1.103,1.102-2.907,0-4.009
			L160.762,36.033z"/>
		<path clip-path="url(#SVGID_4_)" fill="#CDCD00" d="M109.51,19.752c-1.103-1.103-2.905-1.103-4.009,0l-3.63,3.63
			c-1.102,1.102-1.102,2.906,0,4.009l3.63,3.63c1.104,1.103,2.906,1.103,4.009,0l3.629-3.63c1.103-1.103,1.103-2.907,0-4.009
			L109.51,19.752z"/>
		<path clip-path="url(#SVGID_4_)" fill="#CDCD00" d="M99.259,18.245c-1.103-1.102-2.906-1.102-4.009,0l-3.63,3.63
			c-1.102,1.102-1.102,2.906,0,4.009l3.63,3.63c1.103,1.103,2.906,1.103,4.009,0l3.63-3.63c1.103-1.103,1.103-2.907,0-4.009
			L99.259,18.245z"/>
		<path clip-path="url(#SVGID_4_)" fill="#CDCD00" d="M89.61,28.496c-1.103-1.103-2.905-1.103-4.009,0l-3.629,3.629
			c-1.102,1.103-1.102,2.907,0,4.009l3.629,3.63c1.104,1.103,2.906,1.103,4.009,0l3.63-3.63c1.103-1.102,1.103-2.906,0-4.009
			L89.61,28.496z"/>
		<path clip-path="url(#SVGID_4_)" fill="#CDCD00" d="M110.414,65.881c-1.103-1.102-2.905-1.102-4.009,0l-3.63,3.629
			c-1.102,1.103-1.102,2.907,0,4.009l3.63,3.631c1.104,1.101,2.906,1.101,4.009,0l3.63-3.631c1.103-1.102,1.103-2.906,0-4.009
			L110.414,65.881z"/>
		<path clip-path="url(#SVGID_4_)" fill="#565B5F" d="M197.383,117.949h-28.01c0.448,6.423,5.174,8.831,9.635,8.831
			c3.389,0,6.244-1.248,8.03-3.3l8.74,7.315c-3.746,4.815-10.526,7.582-16.771,7.582c-13.468,0-22.031-9.545-22.031-24.353
			c0-14.361,9.009-24.441,20.871-24.441c12.488,0,19.715,11.061,19.715,24.441C197.562,115.809,197.473,117.058,197.383,117.949
			 M177.225,100.287c-4.461,0-7.227,3.657-7.672,8.386h16.058C185.252,104.479,182.754,100.287,177.225,100.287"/>
		<path clip-path="url(#SVGID_4_)" fill="#72797F" d="M227.562,137.726c-0.769,0-1.604-0.306-2.18-0.728l0.51-0.846
			c0.531,0.368,1.129,0.563,1.66,0.563c0.705,0,1.041-0.226,1.041-0.629c0-0.433-0.498-0.64-1.324-0.955
			c-1.226-0.478-1.67-0.889-1.67-1.79c0-1.021,0.803-1.552,1.944-1.552c0.714,0,1.421,0.26,1.931,0.629l-0.488,0.858
			c-0.467-0.325-0.934-0.489-1.477-0.489s-0.781,0.217-0.781,0.52c0,0.283,0.195,0.489,1.052,0.825
			c1.271,0.49,1.922,0.837,1.922,1.911C229.702,137.3,228.682,137.726,227.562,137.726"/>
		<path clip-path="url(#SVGID_4_)" fill="#72797F" d="M236.334,137.605h-0.955l-0.771-2.876c-0.119-0.434-0.238-0.944-0.293-1.216
			c-0.054,0.272-0.173,0.793-0.293,1.227l-0.759,2.865h-0.955l-1.563-5.698h1.108l0.671,2.767c0.109,0.434,0.229,0.978,0.284,1.248
			c0.063-0.282,0.192-0.802,0.313-1.248l0.76-2.767h0.9l0.771,2.779c0.12,0.444,0.239,0.954,0.304,1.236
			c0.066-0.282,0.174-0.814,0.284-1.248l0.672-2.767h1.106L236.334,137.605z"/>
		<path clip-path="url(#SVGID_4_)" fill="#72797F" d="M239.795,131.168c-0.4,0-0.726-0.326-0.726-0.716
			c0-0.401,0.325-0.726,0.726-0.726c0.391,0,0.717,0.325,0.717,0.726C240.512,130.842,240.186,131.168,239.795,131.168
			 M239.231,131.908h1.118v5.698h-1.118V131.908z"/>
		<path clip-path="url(#SVGID_4_)" fill="#72797F" d="M244.777,137.465c-0.271,0.15-0.649,0.261-1.096,0.261
			c-0.793,0-1.281-0.49-1.281-1.51v-3.288h-0.813v-1.021h0.813v-1.628l1.099-0.586v2.214h1.409v1.021h-1.409v3.093
			c0,0.532,0.172,0.684,0.584,0.684c0.293,0,0.618-0.109,0.825-0.228L244.777,137.465z"/>
		<path clip-path="url(#SVGID_4_)" fill="#72797F" d="M246.232,137.605v-0.911l2.443-2.986c0.227-0.283,0.532-0.651,0.684-0.824
			c-0.207,0.01-0.739,0-1.021,0h-1.889v-0.977h4.18v0.901l-2.389,2.985c-0.229,0.292-0.53,0.661-0.684,0.836
			c0.207-0.011,0.76,0,1.043,0h2.029v0.976H246.232z"/>
		<path clip-path="url(#SVGID_4_)" fill="#72797F" d="M256.738,135.152h-3.765c0.118,1.097,0.737,1.563,1.431,1.563
			c0.479,0,0.857-0.173,1.239-0.456l0.662,0.717c-0.5,0.478-1.099,0.75-1.966,0.75c-1.334,0-2.463-1.076-2.463-2.964
			c0-1.932,1.021-2.974,2.494-2.974c1.619,0,2.401,1.313,2.401,2.855C256.772,134.848,256.75,135.033,256.738,135.152
			 M254.297,132.797c-0.75,0-1.205,0.522-1.303,1.434h2.649C255.588,133.448,255.219,132.797,254.297,132.797"/>
		<path clip-path="url(#SVGID_4_)" fill="#72797F" d="M261.252,133.09c-0.237-0.13-0.485-0.205-0.854-0.205
			c-0.707,0-1.12,0.499-1.12,1.465v3.256h-1.117v-5.699h1.117v0.543c0.262-0.381,0.739-0.662,1.303-0.662
			c0.455,0,0.738,0.087,0.965,0.238L261.252,133.09z"/>
		<polygon clip-path="url(#SVGID_4_)" fill="#72797F" points="262.752,137.605 262.752,130.279 263.869,129.692 263.869,137.605 		
			"/>
		<path clip-path="url(#SVGID_4_)" fill="#72797F" d="M268.84,137.605v-0.565c-0.391,0.391-0.944,0.685-1.562,0.685
			c-0.924,0-1.978-0.522-1.978-1.922c0-1.271,0.979-1.845,2.27-1.845c0.532,0,0.956,0.076,1.27,0.218v-0.425
			c0-0.618-0.379-0.966-1.074-0.966c-0.586,0-1.041,0.109-1.486,0.36l-0.436-0.847c0.543-0.337,1.15-0.511,1.953-0.511
			c1.272,0,2.14,0.618,2.14,1.911v3.907H268.84z M268.84,135.174c-0.303-0.151-0.692-0.249-1.303-0.249
			c-0.715,0-1.172,0.325-1.172,0.847c0,0.563,0.359,0.943,1.096,0.943c0.599,0,1.119-0.368,1.379-0.727V135.174z"/>
		<path clip-path="url(#SVGID_4_)" fill="#72797F" d="M275.006,137.605v-3.224c0-1.151-0.436-1.562-1.174-1.562
			c-0.748,0-1.172,0.531-1.172,1.454v3.332h-1.117v-5.698h1.117v0.543c0.283-0.412,0.846-0.662,1.434-0.662
			c1.324,0,2.029,0.867,2.029,2.549v3.268H275.006z"/>
		<path clip-path="url(#SVGID_4_)" fill="#72797F" d="M281.158,137.605v-0.542c-0.412,0.379-0.888,0.662-1.486,0.662
			c-1.227,0-2.192-0.89-2.192-3.061c0-1.954,1.063-2.876,2.248-2.876c0.575,0,1.116,0.303,1.431,0.65v-2.171l1.108-0.575v7.913
			H281.158z M281.17,133.567c-0.25-0.337-0.769-0.748-1.336-0.748c-0.803,0-1.235,0.606-1.235,1.812c0,1.433,0.454,2.063,1.28,2.063
			c0.531,0,0.998-0.359,1.291-0.728V133.567z"/>
		<path clip-path="url(#SVGID_4_)" fill="#CDCD00" d="M213.826,126.482c-1.102-1.102-2.905-1.102-4.01,0l-3.629,3.63
			c-1.101,1.102-1.101,2.906,0,4.008l3.631,3.631c1.103,1.101,2.906,1.101,4.008,0l3.631-3.631c1.102-1.102,1.102-2.906-0.002-4.008
			L213.826,126.482z"/>
		<path clip-path="url(#SVGID_4_)" fill="#565B5F" d="M75.623,129.474h12.31v-38.91h-12.31V129.474z M46.278,107.869
			c-0.804,3.568-1.874,8.475-2.232,10.704c-0.356-2.319-1.516-7.047-2.498-10.704l-4.637-17.305h-10.17l-4.637,17.305
			c-0.982,3.657-2.142,8.385-2.498,10.704c-0.357-2.229-1.428-7.136-2.23-10.704l-4.104-17.305H0.784l11.191,38.91h14.536
			l2.638-10.455c0.894-3.656,2.143-8.83,2.499-11.061c0.357,2.231,1.605,7.405,2.498,11.061l2.639,10.455H51.32l11.192-38.91H50.38
			L46.278,107.869z M130.481,78.522V93.24c-2.229-2.051-5.798-3.658-9.9-3.658c-11.596,0-18.197,9.813-18.197,23.817
			c0,6.849,1.271,12.142,3.404,16.075h29.026c1.793,0,3.26,1.467,3.26,3.261v3.502c0,0.409,0.015,1.158,0.015,1.158h4.705V72.367
			L130.481,78.522z M130.481,122.855c-1.784,2.319-3.747,3.925-7.582,3.925c-4.816,0-8.027-4.014-8.027-13.649
			c0-7.849,2.588-11.953,7.313-11.953c3.568,0,6.422,1.428,8.296,4.015V122.855z"/>
		<path clip-path="url(#SVGID_4_)" fill="#CDCD00" d="M17.087,137.311h-0.766l-0.618-2.308c-0.095-0.347-0.191-0.756-0.235-0.974
			c-0.044,0.218-0.139,0.636-0.235,0.983l-0.609,2.299h-0.766l-1.254-4.57h0.889l0.539,2.219c0.087,0.349,0.183,0.784,0.226,1
			c0.052-0.225,0.157-0.643,0.252-1l0.61-2.219h0.722l0.618,2.228c0.097,0.357,0.192,0.766,0.244,0.991
			c0.053-0.225,0.139-0.651,0.227-1l0.539-2.219h0.888L17.087,137.311z"/>
		<path clip-path="url(#SVGID_4_)" fill="#CDCD00" d="M21.162,137.405c-1.149,0-2.012-0.949-2.012-2.375
			c0-1.499,0.889-2.386,2.038-2.386c1.166,0,2.036,0.931,2.036,2.359C23.224,136.518,22.336,137.405,21.162,137.405 M21.152,133.498
			c-0.68,0-1.098,0.6-1.098,1.505c0,1.002,0.462,1.55,1.142,1.55c0.678,0,1.122-0.688,1.122-1.523
			C22.318,134.098,21.875,133.498,21.152,133.498"/>
		<path clip-path="url(#SVGID_4_)" fill="#CDCD00" d="M29.641,137.311v-2.586c0-0.924-0.288-1.254-0.879-1.254
			c-0.601,0-0.88,0.427-0.88,1.166v2.674h-0.896v-2.586c0-0.924-0.288-1.254-0.88-1.254c-0.6,0-0.879,0.427-0.879,1.166v2.674H24.33
			v-4.57h0.897v0.434c0.227-0.33,0.619-0.53,1.088-0.53c0.618,0,1.01,0.234,1.254,0.669c0.331-0.408,0.687-0.669,1.402-0.669
			c1.062,0,1.566,0.696,1.566,2.045v2.621H29.641z"/>
		<path clip-path="url(#SVGID_4_)" fill="#CDCD00" d="M35.507,135.343h-3.02c0.095,0.879,0.591,1.253,1.149,1.253
			c0.383,0,0.687-0.14,0.993-0.366l0.53,0.575c-0.4,0.383-0.878,0.6-1.575,0.6c-1.072,0-1.977-0.861-1.977-2.375
			c0-1.55,0.819-2.386,2.003-2.386c1.297,0,1.924,1.054,1.924,2.289C35.534,135.099,35.516,135.247,35.507,135.343 M33.549,133.453
			c-0.601,0-0.967,0.418-1.044,1.15h2.124C34.585,133.976,34.288,133.453,33.549,133.453"/>
		<path clip-path="url(#SVGID_4_)" fill="#CDCD00" d="M39.424,137.311v-2.586c0-0.924-0.348-1.254-0.94-1.254
			c-0.6,0-0.94,0.427-0.94,1.166v2.674h-0.896v-4.57h0.896v0.434c0.227-0.33,0.679-0.53,1.149-0.53c1.063,0,1.629,0.696,1.629,2.045
			v2.621H39.424z"/>
		<path clip-path="url(#SVGID_4_)" fill="#CDCD00" d="M44.457,132.148c-0.323,0-0.583-0.261-0.583-0.575
			c0-0.322,0.26-0.583,0.583-0.583c0.313,0,0.574,0.261,0.574,0.583C45.031,131.888,44.77,132.148,44.457,132.148 M44.004,132.741
			H44.9v4.57h-0.896V132.741z"/>
		<path clip-path="url(#SVGID_4_)" fill="#CDCD00" d="M49.043,137.311v-2.586c0-0.924-0.348-1.254-0.94-1.254
			c-0.6,0-0.94,0.427-0.94,1.166v2.674h-0.897v-4.57h0.897v0.434c0.227-0.33,0.679-0.53,1.149-0.53c1.062,0,1.628,0.696,1.628,2.045
			v2.621H49.043z"/>
		<path clip-path="url(#SVGID_4_)" fill="#CDCD00" d="M56.33,137.31v-0.436c-0.33,0.305-0.714,0.531-1.193,0.531
			c-0.983,0-1.758-0.713-1.758-2.454c0-1.568,0.853-2.307,1.802-2.307c0.461,0,0.896,0.243,1.149,0.523v-1.742l0.888-0.461v6.346
			H56.33z M56.339,134.072c-0.2-0.272-0.618-0.602-1.071-0.602c-0.644,0-0.993,0.489-0.993,1.454c0,1.15,0.367,1.655,1.028,1.655
			c0.426,0,0.801-0.288,1.036-0.583V134.072z"/>
		<path clip-path="url(#SVGID_4_)" fill="#CDCD00" d="M62.223,135.343h-3.02c0.095,0.879,0.591,1.253,1.148,1.253
			c0.384,0,0.688-0.14,0.994-0.366l0.529,0.575c-0.399,0.383-0.878,0.6-1.574,0.6c-1.072,0-1.977-0.861-1.977-2.375
			c0-1.55,0.819-2.386,2.003-2.386c1.297,0,1.924,1.054,1.924,2.289C62.25,135.099,62.231,135.247,62.223,135.343 M60.265,133.453
			c-0.601,0-0.967,0.418-1.044,1.15h2.124C61.3,133.976,61.003,133.453,60.265,133.453"/>
		<path clip-path="url(#SVGID_4_)" fill="#CDCD00" d="M65.522,137.311h-0.896l-1.637-4.57h0.94l0.818,2.48
			c0.148,0.444,0.278,0.871,0.34,1.123c0.052-0.252,0.174-0.679,0.313-1.123l0.784-2.48h0.949L65.522,137.311z"/>
		<path clip-path="url(#SVGID_4_)" fill="#CDCD00" d="M71.764,135.343h-3.02c0.095,0.879,0.591,1.253,1.147,1.253
			c0.385,0,0.688-0.14,0.994-0.366l0.53,0.575c-0.4,0.383-0.879,0.6-1.575,0.6c-1.072,0-1.977-0.861-1.977-2.375
			c0-1.55,0.818-2.386,2.003-2.386c1.297,0,1.924,1.054,1.924,2.289C71.791,135.099,71.773,135.247,71.764,135.343 M69.806,133.453
			c-0.601,0-0.967,0.418-1.044,1.15h2.124C70.842,133.976,70.545,133.453,69.806,133.453"/>
		<polygon clip-path="url(#SVGID_4_)" fill="#CDCD00" points="72.947,137.311 72.947,131.434 73.844,130.963 73.844,137.311 		"/>
		<path clip-path="url(#SVGID_4_)" fill="#CDCD00" d="M77.004,137.405c-1.148,0-2.011-0.949-2.011-2.375
			c0-1.499,0.889-2.386,2.037-2.386c1.166,0,2.036,0.931,2.036,2.359C79.066,136.518,78.18,137.405,77.004,137.405 M76.995,133.498
			c-0.679,0-1.097,0.6-1.097,1.505c0,1.002,0.461,1.55,1.141,1.55s1.122-0.688,1.122-1.523
			C78.161,134.098,77.719,133.498,76.995,133.498"/>
		<path clip-path="url(#SVGID_4_)" fill="#CDCD00" d="M82.211,137.406c-0.462,0-0.897-0.244-1.148-0.522v1.646l-0.89,0.46v-6.25
			h0.89v0.435c0.33-0.304,0.713-0.53,1.19-0.53c0.984,0,1.759,0.714,1.759,2.455C84.012,136.665,83.158,137.406,82.211,137.406
			 M82.088,133.471c-0.427,0-0.801,0.288-1.036,0.584v1.924c0.201,0.269,0.618,0.6,1.071,0.6c0.646,0,0.993-0.487,0.993-1.455
			C83.116,133.977,82.75,133.471,82.088,133.471"/>
		<path clip-path="url(#SVGID_4_)" fill="#CDCD00" d="M90.444,137.311v-2.586c0-0.924-0.287-1.254-0.879-1.254
			c-0.601,0-0.88,0.427-0.88,1.166v2.674H87.79v-2.586c0-0.924-0.287-1.254-0.881-1.254c-0.6,0-0.879,0.427-0.879,1.166v2.674
			h-0.896v-4.57h0.896v0.434c0.228-0.33,0.619-0.53,1.088-0.53c0.618,0,1.011,0.234,1.254,0.669
			c0.331-0.408,0.688-0.669,1.402-0.669c1.062,0,1.567,0.696,1.567,2.045v2.621H90.444z"/>
		<path clip-path="url(#SVGID_4_)" fill="#CDCD00" d="M96.312,135.343H93.29c0.097,0.879,0.594,1.253,1.15,1.253
			c0.383,0,0.687-0.14,0.993-0.366l0.529,0.575c-0.399,0.383-0.879,0.6-1.574,0.6c-1.072,0-1.978-0.861-1.978-2.375
			c0-1.55,0.819-2.386,2.003-2.386c1.297,0,1.924,1.054,1.924,2.289C96.338,135.099,96.32,135.247,96.312,135.343 M94.354,133.453
			c-0.602,0-0.967,0.418-1.044,1.15h2.124C95.39,133.976,95.093,133.453,94.354,133.453"/>
		<path clip-path="url(#SVGID_4_)" fill="#CDCD00" d="M100.229,137.311v-2.586c0-0.924-0.348-1.254-0.939-1.254
			c-0.6,0-0.94,0.427-0.94,1.166v2.674h-0.896v-4.57h0.896v0.434c0.228-0.33,0.679-0.53,1.149-0.53c1.062,0,1.628,0.696,1.628,2.045
			v2.621H100.229z"/>
		<path clip-path="url(#SVGID_4_)" fill="#CDCD00" d="M104.6,137.196c-0.217,0.123-0.522,0.209-0.878,0.209
			c-0.637,0-1.028-0.392-1.028-1.209v-2.638h-0.653v-0.818h0.653v-1.307l0.879-0.469v1.776h1.131v0.818h-1.131v2.481
			c0,0.427,0.14,0.548,0.47,0.548c0.236,0,0.496-0.087,0.661-0.182L104.6,137.196z"/>
		<path clip-path="url(#SVGID_4_)" fill="#CDCD00" d="M111.955,135.343h-3.02c0.095,0.879,0.591,1.253,1.147,1.253
			c0.385,0,0.688-0.14,0.994-0.366l0.529,0.575c-0.399,0.383-0.878,0.6-1.574,0.6c-1.072,0-1.977-0.861-1.977-2.375
			c0-1.55,0.818-2.386,2.003-2.386c1.297,0,1.924,1.054,1.924,2.289C111.982,135.099,111.965,135.247,111.955,135.343
			 M109.997,133.453c-0.601,0-0.967,0.418-1.044,1.15h2.124C111.033,133.976,110.736,133.453,109.997,133.453"/>
		<path clip-path="url(#SVGID_4_)" fill="#CDCD00" d="M115.837,137.311v-0.437c-0.227,0.333-0.678,0.532-1.149,0.532
			c-1.061,0-1.627-0.697-1.627-2.045v-2.62h0.896v2.585c0,0.923,0.348,1.254,0.939,1.254c0.602,0,0.94-0.427,0.94-1.167v-2.672
			h0.897v4.57H115.837z"/>
		<path clip-path="url(#SVGID_4_)" fill="#CDCD00" d="M120.538,133.689c-0.191-0.104-0.392-0.167-0.687-0.167
			c-0.566,0-0.898,0.401-0.898,1.177v2.611h-0.896v-4.57h0.896v0.434c0.209-0.303,0.592-0.53,1.045-0.53
			c0.366,0,0.593,0.069,0.775,0.191L120.538,133.689z"/>
		<path clip-path="url(#SVGID_4_)" fill="#CDCD00" d="M123.489,137.405c-1.149,0-2.012-0.949-2.012-2.375
			c0-1.499,0.889-2.386,2.038-2.386c1.166,0,2.036,0.931,2.036,2.359C125.552,136.518,124.664,137.405,123.489,137.405
			 M123.48,133.498c-0.681,0-1.098,0.6-1.098,1.505c0,1.002,0.462,1.55,1.142,1.55c0.678,0,1.122-0.688,1.122-1.523
			C124.646,134.098,124.202,133.498,123.48,133.498"/>
		<path clip-path="url(#SVGID_4_)" fill="#CDCD00" d="M128.695,137.406c-0.461,0-0.897-0.244-1.149-0.522v1.646l-0.888,0.46v-6.25
			h0.888v0.435c0.33-0.304,0.713-0.53,1.192-0.53c0.983,0,1.759,0.714,1.759,2.455C130.497,136.665,129.644,137.406,128.695,137.406
			 M128.573,133.471c-0.427,0-0.801,0.288-1.036,0.584v1.924c0.2,0.269,0.618,0.6,1.071,0.6c0.644,0,0.991-0.487,0.991-1.455
			C129.6,133.977,129.235,133.471,128.573,133.471"/>
		<path clip-path="url(#SVGID_4_)" fill="#CDCD00" d="M135.302,135.343h-3.02c0.095,0.879,0.591,1.253,1.147,1.253
			c0.385,0,0.688-0.14,0.993-0.366l0.531,0.575c-0.4,0.383-0.879,0.6-1.575,0.6c-1.072,0-1.977-0.861-1.977-2.375
			c0-1.55,0.818-2.386,2.002-2.386c1.298,0,1.925,1.054,1.925,2.289C135.329,135.099,135.312,135.247,135.302,135.343
			 M133.344,133.453c-0.601,0-0.967,0.418-1.044,1.15h2.123C134.38,133.976,134.083,133.453,133.344,133.453"/>
		<g opacity="0.5" clip-path="url(#SVGID_4_)">
			<g>
				<defs>
					<rect id="SVGID_5_" x="101.051" y="5.263" width="52.985" height="41.958"/>
				</defs>
				<clipPath id="SVGID_6_">
					<use xlink:href="#SVGID_5_"  overflow="visible"/>
				</clipPath>
				<path clip-path="url(#SVGID_6_)" fill="#72797F" d="M106.797,31.511c-0.447-0.447-1.01-0.703-1.593-0.788l0.298,0.298
					c0.445,0.447,1.009,0.703,1.593,0.788L106.797,31.511z"/>
				<path clip-path="url(#SVGID_6_)" fill="#72797F" d="M115.752,39.35l-1.112,1.112l1.112,1.112c1.103,1.102,2.906,1.102,4.009,0
					l1.112-1.112l-1.112-1.112C118.658,38.247,116.854,38.247,115.752,39.35"/>
				<path clip-path="url(#SVGID_6_)" fill="#72797F" d="M122.293,32.837c-0.698,1.096-0.573,2.574,0.381,3.528l1.098,1.098
					c0.698-1.096,0.573-2.574-0.381-3.528L122.293,32.837z"/>
				<path clip-path="url(#SVGID_6_)" fill="#72797F" d="M134.328,35.876c-0.909-0.192-1.895,0.058-2.597,0.76l-3.63,3.63
					c-0.15,0.15-0.276,0.316-0.385,0.489c0.907,0.192,1.894-0.058,2.596-0.76l3.631-3.63
					C134.094,36.214,134.22,36.049,134.328,35.876"/>
				<path clip-path="url(#SVGID_6_)" fill="#72797F" d="M131.316,29.729c-0.274,0.96-0.048,2.035,0.704,2.788l2.627,2.627
					c0.273-0.96,0.048-2.036-0.704-2.788L131.316,29.729z"/>
				<path clip-path="url(#SVGID_6_)" fill="#72797F" d="M128.852,27.952c-0.895-0.172-1.857,0.085-2.548,0.775l-3.63,3.63
					c-0.013,0.013-0.021,0.029-0.035,0.043c0.896,0.173,1.858-0.086,2.548-0.775l3.631-3.63
					C128.83,27.981,128.839,27.965,128.852,27.952"/>
				<path clip-path="url(#SVGID_6_)" fill="#72797F" d="M121.178,20.356l-2.167,2.167l2.167,2.167c1.104,1.102,2.906,1.102,4.009,0
					l2.167-2.167l-2.167-2.167C124.084,19.253,122.281,19.253,121.178,20.356"/>
				<path clip-path="url(#SVGID_6_)" fill="#72797F" d="M121.071,13.527l-3.522,3.524c-1.103,1.102-1.103,2.906,0,4.009l0.811,0.81
					l3.522-3.524c1.103-1.102,1.103-2.906,0-4.008L121.071,13.527z"/>
				<path clip-path="url(#SVGID_6_)" fill="#72797F" d="M116.443,12.932l2.017-2.016l-0.207-0.208c-1.104-1.102-2.907-1.102-4.009,0
					l-2.017,2.016l0.207,0.208C113.538,14.035,115.341,14.035,116.443,12.932"/>
				<path clip-path="url(#SVGID_6_)" fill="#72797F" d="M120.042,5.262c-0.863,1.109-0.798,2.72,0.221,3.738l0.03,0.032
					c0.864-1.11,0.8-2.72-0.22-3.739L120.042,5.262z"/>
				<path clip-path="url(#SVGID_6_)" fill="#72797F" d="M128.816,17.051l-2.469-2.469l-0.358,0.359
					c-1.103,1.102-1.103,2.906,0,4.008l2.47,2.469l0.357-0.358C129.92,19.957,129.92,18.153,128.816,17.051"/>
				<path clip-path="url(#SVGID_6_)" fill="#72797F" d="M137.259,14.941l-0.961-0.961l-2.167,2.167
					c-1.103,1.103-1.103,2.906,0,4.009l0.961,0.961l2.167-2.167C138.361,17.847,138.361,16.043,137.259,14.941"/>
				<path clip-path="url(#SVGID_6_)" fill="#72797F" d="M143.289,28.508l-0.962-0.962l-0.66,0.66c-1.103,1.103-1.103,2.906,0,4.009
					l0.963,0.962l0.66-0.66C144.391,31.414,144.391,29.61,143.289,28.508"/>
				<path clip-path="url(#SVGID_6_)" fill="#72797F" d="M149.307,24.577c-0.854-0.857-2.133-1.039-3.179-0.565l3.392,3.392
					c0.856,0.857,2.135,1.039,3.18,0.564L149.307,24.577z"/>
				<path clip-path="url(#SVGID_6_)" fill="#72797F" d="M153.527,17.153l0.509-0.509l-0.509-0.509c-1.102-1.103-2.905-1.103-4.008,0
					l-0.51,0.51l0.508,0.508C150.622,18.255,152.426,18.255,153.527,17.153"/>
				<path clip-path="url(#SVGID_6_)" fill="#72797F" d="M137.761,12.517l-1.005,1.005l2.512,2.514c1.103,1.102,2.906,1.102,4.01,0
					l1.005-1.005l-2.514-2.514C140.667,11.414,138.863,11.414,137.761,12.517"/>
				<path clip-path="url(#SVGID_6_)" fill="#72797F" d="M145.844,13.468l1.062-1.062c1.086-1.086,1.098-2.848,0.045-3.954
					l-1.062,1.062C144.805,10.6,144.793,12.361,145.844,13.468"/>
				<path clip-path="url(#SVGID_6_)" fill="#72797F" d="M136.425,47.22l2.944-2.945c0.738-0.738,0.97-1.786,0.72-2.732l-2.943,2.944
					C136.407,45.225,136.175,46.274,136.425,47.22"/>
				<path clip-path="url(#SVGID_6_)" fill="#72797F" d="M101.651,27.121l1.237-1.237c1.019-1.019,1.084-2.63,0.22-3.74l-1.236,1.238
					C100.853,24.401,100.788,26.012,101.651,27.121"/>
			</g>
		</g>
		<path clip-path="url(#SVGID_4_)" fill="#B8B800" d="M135.74,225.137c-1.104-1.103-2.906-1.103-4.009,0l-3.631,3.63
			c-1.102,1.102-1.102,2.906,0,4.009l3.631,3.63c1.103,1.102,2.905,1.102,4.009,0l3.629-3.63c1.103-1.103,1.103-2.907,0-4.009
			L135.74,225.137z"/>
		<path clip-path="url(#SVGID_4_)" fill="#B8B800" d="M144.783,229.357c-1.101-1.103-2.905-1.103-4.008,0l-3.63,3.63
			c-1.104,1.102-1.104,2.906,0,4.009l3.63,3.63c1.103,1.103,2.907,1.103,4.008,0l3.631-3.63c1.102-1.103,1.102-2.907,0-4.009
			L144.783,229.357z"/>
		<path clip-path="url(#SVGID_4_)" fill="#B8B800" d="M83.28,259.205c-1.104-1.103-2.906-1.103-4.009,0l-3.631,3.63
			c-1.102,1.102-1.102,2.907,0,4.009l3.631,3.631c1.103,1.101,2.905,1.101,4.009-0.002l3.629-3.628c1.102-1.104,1.102-2.908,0-4.01
			L83.28,259.205z"/>
		<path clip-path="url(#SVGID_4_)" fill="#B8B800" d="M95.038,247.447c-1.103-1.103-2.906-1.103-4.009,0l-3.631,3.63
			c-1.103,1.102-1.103,2.906,0,4.009l3.631,3.629c1.103,1.103,2.906,1.103,4.009,0l3.63-3.629c1.102-1.103,1.102-2.907,0-4.009
			L95.038,247.447z"/>
		<path clip-path="url(#SVGID_4_)" fill="#B8B800" d="M83.581,242.624c-1.103-1.102-2.905-1.102-4.009,0l-3.63,3.629
			c-1.103,1.103-1.103,2.907,0,4.009l3.63,3.63c1.104,1.103,2.906,1.103,4.009,0l3.629-3.63c1.103-1.102,1.103-2.906,0-4.009
			L83.581,242.624z"/>
		<path clip-path="url(#SVGID_4_)" fill="#B8B800" d="M98.354,232.975c-1.104-1.103-2.906-1.103-4.009,0l-3.631,3.63
			c-1.102,1.102-1.102,2.906,0,4.009l3.631,3.63c1.103,1.103,2.905,1.103,4.009,0l3.63-3.63c1.103-1.103,1.103-2.907,0-4.009
			L98.354,232.975z"/>
		<path clip-path="url(#SVGID_4_)" fill="#B8B800" d="M110.112,236.895c-1.104-1.102-2.906-1.102-4.009,0l-3.631,3.63
			c-1.102,1.103-1.102,2.906,0,4.009l3.631,3.63c1.103,1.102,2.905,1.102,4.009,0l3.63-3.63c1.103-1.103,1.103-2.906,0-4.009
			L110.112,236.895z"/>
		<path clip-path="url(#SVGID_4_)" fill="#B8B800" d="M106.797,220.011c-1.104-1.103-2.906-1.103-4.009,0l-3.631,3.63
			c-1.103,1.102-1.103,2.906,0,4.009l3.631,3.63c1.103,1.103,2.905,1.103,4.009,0l3.63-3.63c1.102-1.103,1.102-2.907,0-4.009
			L106.797,220.011z"/>
		<path clip-path="url(#SVGID_4_)" fill="#B8B800" d="M126.092,239.91c-1.102-1.103-2.905-1.103-4.009,0l-3.63,3.63
			c-1.103,1.102-1.103,2.906,0,4.009l3.63,3.629c1.104,1.103,2.907,1.103,4.009,0l3.63-3.629c1.103-1.103,1.103-2.907,0-4.009
			L126.092,239.91z"/>
		<path clip-path="url(#SVGID_4_)" fill="#B8B800" d="M119.761,227.85c-1.104-1.103-2.906-1.103-4.009,0l-3.63,3.63
			c-1.104,1.102-1.104,2.906,0,4.009l3.63,3.63c1.103,1.103,2.905,1.103,4.009,0l3.63-3.63c1.102-1.103,1.102-2.907,0-4.009
			L119.761,227.85z"/>
		<path clip-path="url(#SVGID_4_)" fill="#B8B800" d="M119.761,218.806c-1.104-1.103-2.906-1.103-4.009,0l-3.63,3.629
			c-1.104,1.103-1.104,2.907,0,4.009l3.63,3.63c1.103,1.103,2.905,1.103,4.009,0l3.63-3.63c1.102-1.102,1.102-2.906,0-4.009
			L119.761,218.806z"/>
		<path clip-path="url(#SVGID_4_)" fill="#B8B800" d="M130.312,217.227c-1.102-1.103-2.905-1.103-4.009,0l-3.63,3.63
			c-1.103,1.102-1.103,2.906,0,4.009l3.63,3.629c1.104,1.103,2.907,1.103,4.009,0l3.63-3.629c1.104-1.103,1.104-2.907,0-4.009
			L130.312,217.227z"/>
		<path clip-path="url(#SVGID_4_)" fill="#B8B800" d="M139.659,213.379c-1.104-1.103-2.906-1.103-4.009,0l-3.631,3.629
			c-1.102,1.103-1.102,2.907,0,4.009l3.631,3.63c1.103,1.103,2.905,1.103,4.009,0l3.631-3.63c1.101-1.102,1.101-2.906-0.001-4.009
			L139.659,213.379z"/>
		<path clip-path="url(#SVGID_4_)" fill="#B8B800" d="M125.187,208.856c-1.103-1.103-2.905-1.103-4.009,0l-3.629,3.63
			c-1.103,1.102-1.103,2.906,0,4.009l3.629,3.629c1.104,1.103,2.906,1.103,4.009,0l3.63-3.629c1.103-1.103,1.103-2.907,0-4.009
			L125.187,208.856z"/>
		<path clip-path="url(#SVGID_4_)" fill="#B8B800" d="M125.187,201.921c-1.103-1.103-2.905-1.103-4.009,0l-3.629,3.63
			c-1.103,1.103-1.103,2.907,0,4.009l3.629,3.63c1.104,1.103,2.906,1.103,4.009,0l3.63-3.63c1.103-1.102,1.103-2.906,0-4.009
			L125.187,201.921z"/>
		<path clip-path="url(#SVGID_4_)" fill="#B8B800" d="M118.252,199.208c-1.103-1.103-2.905-1.103-4.009,0l-3.629,3.629
			c-1.103,1.103-1.103,2.907,0,4.009l3.629,3.631c1.104,1.102,2.906,1.102,4.009,0l3.63-3.631c1.103-1.102,1.103-2.906,0-4.009
			L118.252,199.208z"/>
		<path clip-path="url(#SVGID_4_)" fill="#B8B800" d="M116.443,190.164c-1.103-1.103-2.905-1.103-4.009,0l-3.63,3.63
			c-1.102,1.102-1.102,2.906,0,4.009l3.63,3.63c1.104,1.102,2.906,1.102,4.009,0l3.63-3.63c1.103-1.103,1.103-2.907,0-4.009
			L116.443,190.164z"/>
		<path clip-path="url(#SVGID_4_)" fill="#B8B800" d="M127.9,189.862c-1.103-1.103-2.906-1.103-4.009,0l-3.63,3.63
			c-1.102,1.102-1.102,2.906,0,4.009l3.63,3.63c1.103,1.102,2.906,1.102,4.009,0l3.63-3.63c1.103-1.103,1.103-2.907,0-4.009
			L127.9,189.862z"/>
		<path clip-path="url(#SVGID_4_)" fill="#B8B800" d="M133.629,199.811c-1.104-1.102-2.906-1.102-4.009,0l-3.631,3.63
			c-1.103,1.103-1.103,2.906,0,4.009l3.631,3.63c1.103,1.102,2.905,1.102,4.009,0l3.63-3.63c1.102-1.103,1.102-2.906,0-4.009
			L133.629,199.811z"/>
		<path clip-path="url(#SVGID_4_)" fill="#B8B800" d="M141.769,201.017c-1.102-1.103-2.905-1.103-4.008,0l-3.63,3.63
			c-1.103,1.102-1.103,2.906,0,4.009l3.63,3.629c1.103,1.103,2.906,1.103,4.008,0l3.63-3.629c1.102-1.103,1.102-2.907,0-4.009
			L141.769,201.017z"/>
		<path clip-path="url(#SVGID_4_)" fill="#B8B800" d="M149.307,213.077c-1.102-1.103-2.905-1.103-4.01,0l-3.63,3.63
			c-1.103,1.102-1.103,2.906,0,4.009l3.632,3.63c1.103,1.103,2.906,1.103,4.008,0l3.631-3.63c1.103-1.103,1.103-2.907,0-4.009
			L149.307,213.077z"/>
		<path clip-path="url(#SVGID_4_)" fill="#B8B800" d="M153.527,204.635c-1.102-1.103-2.905-1.103-4.008,0l-3.631,3.63
			c-1.102,1.102-1.102,2.906,0,4.009l3.631,3.63c1.103,1.103,2.906,1.103,4.008,0l3.631-3.63c1.102-1.103,1.102-2.907,0-4.009
			L153.527,204.635z"/>
		<path clip-path="url(#SVGID_4_)" fill="#B8B800" d="M153.527,194.384c-1.102-1.103-2.905-1.103-4.008,0l-3.631,3.63
			c-1.102,1.103-1.102,2.907,0,4.009l3.629,3.629c1.104,1.103,2.908,1.103,4.01,0l3.629-3.629c1.104-1.102,1.104-2.906,0.002-4.009
			L153.527,194.384z"/>
		<path clip-path="url(#SVGID_4_)" fill="#B8B800" d="M143.277,193.267c-1.104-1.103-2.907-1.103-4.01,0l-3.63,3.63
			c-1.103,1.102-1.103,2.906,0,4.009l3.63,3.63c1.103,1.102,2.906,1.102,4.01,0l3.629-3.63c1.104-1.103,1.104-2.907,0-4.009
			L143.277,193.267z"/>
		<path clip-path="url(#SVGID_4_)" fill="#B8B800" d="M160.762,224.533c-1.102-1.102-2.905-1.102-4.008,0l-3.629,3.63
			c-1.101,1.102-1.101,2.906,0,4.009l3.629,3.63c1.103,1.103,2.906,1.103,4.008,0l3.631-3.63c1.102-1.103,1.102-2.907,0-4.009
			L160.762,224.533z"/>
		<path clip-path="url(#SVGID_4_)" fill="#B8B800" d="M109.51,208.252c-1.103-1.103-2.905-1.103-4.009,0l-3.63,3.63
			c-1.102,1.102-1.102,2.906,0,4.009l3.63,3.63c1.104,1.103,2.906,1.103,4.009,0l3.629-3.63c1.103-1.103,1.103-2.907,0-4.009
			L109.51,208.252z"/>
		<path clip-path="url(#SVGID_4_)" fill="#B8B800" d="M99.259,206.745c-1.103-1.103-2.906-1.103-4.009,0l-3.63,3.63
			c-1.102,1.102-1.102,2.906,0,4.009l3.63,3.63c1.103,1.103,2.906,1.103,4.009,0l3.63-3.63c1.103-1.103,1.103-2.907,0-4.009
			L99.259,206.745z"/>
		<path clip-path="url(#SVGID_4_)" fill="#B8B800" d="M89.61,216.996c-1.103-1.103-2.905-1.103-4.009,0l-3.629,3.629
			c-1.102,1.103-1.102,2.907,0,4.009l3.629,3.63c1.104,1.103,2.906,1.103,4.009,0l3.63-3.63c1.103-1.102,1.103-2.906,0-4.009
			L89.61,216.996z"/>
		<path clip-path="url(#SVGID_4_)" fill="#B8B800" d="M110.414,254.381c-1.103-1.102-2.905-1.102-4.009,0l-3.63,3.629
			c-1.102,1.103-1.102,2.907,0,4.009l3.63,3.631c1.104,1.101,2.906,1.101,4.009,0l3.63-3.631c1.103-1.102,1.103-2.906,0-4.009
			L110.414,254.381z"/>
		<path clip-path="url(#SVGID_4_)" fill="#565B5F" d="M197.383,306.449h-28.01c0.448,6.423,5.174,8.831,9.635,8.831
			c3.389,0,6.244-1.248,8.03-3.3l8.74,7.315c-3.746,4.814-10.526,7.581-16.771,7.581c-13.468,0-22.031-9.545-22.031-24.353
			c0-14.361,9.009-24.441,20.871-24.441c12.488,0,19.715,11.062,19.715,24.441C197.562,304.308,197.473,305.558,197.383,306.449
			 M177.225,288.787c-4.461,0-7.227,3.657-7.672,8.387h16.058C185.252,292.979,182.754,288.787,177.225,288.787"/>
		<path clip-path="url(#SVGID_4_)" fill="#565B5F" d="M227.562,326.225c-0.769,0-1.604-0.306-2.18-0.728l0.51-0.846
			c0.531,0.367,1.129,0.562,1.66,0.562c0.705,0,1.041-0.226,1.041-0.629c0-0.433-0.498-0.64-1.324-0.955
			c-1.226-0.478-1.67-0.889-1.67-1.79c0-1.021,0.803-1.552,1.944-1.552c0.714,0,1.421,0.26,1.931,0.629l-0.488,0.858
			c-0.467-0.325-0.934-0.489-1.477-0.489s-0.781,0.217-0.781,0.52c0,0.283,0.195,0.489,1.052,0.825
			c1.271,0.489,1.922,0.837,1.922,1.911C229.702,325.8,228.682,326.225,227.562,326.225"/>
		<path clip-path="url(#SVGID_4_)" fill="#565B5F" d="M236.334,326.105h-0.955l-0.771-2.876c-0.119-0.434-0.238-0.943-0.293-1.216
			c-0.054,0.272-0.173,0.793-0.293,1.228l-0.759,2.864h-0.955l-1.563-5.697h1.108l0.671,2.767c0.109,0.434,0.229,0.978,0.284,1.248
			c0.063-0.282,0.192-0.802,0.313-1.248l0.76-2.767h0.9l0.771,2.778c0.12,0.444,0.239,0.954,0.304,1.236
			c0.066-0.282,0.174-0.814,0.284-1.248l0.672-2.767h1.106L236.334,326.105z"/>
		<path clip-path="url(#SVGID_4_)" fill="#565B5F" d="M239.795,319.668c-0.4,0-0.726-0.326-0.726-0.716
			c0-0.401,0.325-0.727,0.726-0.727c0.391,0,0.717,0.325,0.717,0.727C240.512,319.342,240.186,319.668,239.795,319.668
			 M239.231,320.408h1.118v5.698h-1.118V320.408z"/>
		<path clip-path="url(#SVGID_4_)" fill="#565B5F" d="M244.777,325.964c-0.271,0.15-0.649,0.262-1.096,0.262
			c-0.793,0-1.281-0.49-1.281-1.511v-3.288h-0.813v-1.021h0.813v-1.628l1.099-0.587v2.215h1.409v1.021h-1.409v3.094
			c0,0.531,0.172,0.684,0.584,0.684c0.293,0,0.618-0.108,0.825-0.228L244.777,325.964z"/>
		<path clip-path="url(#SVGID_4_)" fill="#565B5F" d="M246.232,326.105v-0.911l2.443-2.984c0.227-0.284,0.532-0.652,0.684-0.825
			c-0.207,0.01-0.739,0-1.021,0h-1.889v-0.977h4.18v0.9l-2.389,2.985c-0.229,0.292-0.53,0.661-0.684,0.836
			c0.207-0.011,0.76,0,1.043,0h2.029v0.976H246.232z"/>
		<path clip-path="url(#SVGID_4_)" fill="#565B5F" d="M256.738,323.652h-3.765c0.118,1.097,0.737,1.562,1.431,1.562
			c0.479,0,0.857-0.173,1.239-0.456l0.662,0.718c-0.5,0.478-1.099,0.75-1.966,0.75c-1.334,0-2.463-1.077-2.463-2.964
			c0-1.933,1.021-2.975,2.494-2.975c1.619,0,2.401,1.313,2.401,2.855C256.772,323.348,256.75,323.533,256.738,323.652
			 M254.297,321.296c-0.75,0-1.205,0.521-1.303,1.435h2.649C255.588,321.948,255.219,321.296,254.297,321.296"/>
		<path clip-path="url(#SVGID_4_)" fill="#565B5F" d="M261.252,321.589c-0.237-0.13-0.485-0.205-0.854-0.205
			c-0.707,0-1.12,0.499-1.12,1.466v3.256h-1.117v-5.699h1.117v0.543c0.262-0.381,0.739-0.662,1.303-0.662
			c0.455,0,0.738,0.087,0.965,0.238L261.252,321.589z"/>
		<polygon clip-path="url(#SVGID_4_)" fill="#565B5F" points="262.752,326.105 262.752,318.78 263.869,318.192 263.869,326.105 		
			"/>
		<path clip-path="url(#SVGID_4_)" fill="#565B5F" d="M268.84,326.106v-0.565c-0.391,0.391-0.944,0.686-1.562,0.686
			c-0.924,0-1.978-0.522-1.978-1.923c0-1.271,0.979-1.845,2.27-1.845c0.532,0,0.956,0.076,1.27,0.218v-0.425
			c0-0.618-0.379-0.966-1.074-0.966c-0.586,0-1.041,0.109-1.486,0.36l-0.436-0.848c0.543-0.337,1.15-0.511,1.953-0.511
			c1.272,0,2.14,0.618,2.14,1.911v3.907H268.84z M268.84,323.673c-0.303-0.15-0.692-0.249-1.303-0.249
			c-0.715,0-1.172,0.325-1.172,0.848c0,0.562,0.359,0.942,1.096,0.942c0.599,0,1.119-0.368,1.379-0.727V323.673z"/>
		<path clip-path="url(#SVGID_4_)" fill="#565B5F" d="M275.006,326.105v-3.224c0-1.151-0.436-1.562-1.174-1.562
			c-0.748,0-1.172,0.531-1.172,1.454v3.332h-1.117v-5.697h1.117v0.543c0.283-0.412,0.846-0.662,1.434-0.662
			c1.324,0,2.029,0.867,2.029,2.549v3.268H275.006z"/>
		<path clip-path="url(#SVGID_4_)" fill="#565B5F" d="M281.158,326.105v-0.542c-0.412,0.379-0.888,0.662-1.486,0.662
			c-1.227,0-2.192-0.89-2.192-3.061c0-1.954,1.063-2.876,2.248-2.876c0.575,0,1.116,0.303,1.431,0.649v-2.171l1.108-0.575v7.913
			H281.158z M281.17,322.067c-0.25-0.337-0.769-0.748-1.336-0.748c-0.803,0-1.235,0.606-1.235,1.812c0,1.433,0.454,2.062,1.28,2.062
			c0.531,0,0.998-0.358,1.291-0.728V322.067z"/>
		<path clip-path="url(#SVGID_4_)" fill="#B8B800" d="M213.827,314.983c-1.103-1.103-2.906-1.103-4.009,0l-3.63,3.629
			c-1.103,1.103-1.103,2.906,0,4.009l3.63,3.63c1.103,1.103,2.905,1.103,4.009,0l3.63-3.63c1.103-1.103,1.103-2.906,0-4.009
			L213.827,314.983z"/>
		<path clip-path="url(#SVGID_4_)" fill="#565B5F" d="M75.623,317.974h12.31v-38.91h-12.31V317.974z M46.278,296.37
			c-0.804,3.567-1.874,8.475-2.232,10.704c-0.356-2.319-1.516-7.048-2.498-10.704l-4.637-17.306h-10.17l-4.637,17.306
			c-0.982,3.656-2.142,8.385-2.498,10.704c-0.357-2.229-1.428-7.137-2.23-10.704l-4.104-17.306H0.784l11.191,38.91h14.536
			l2.638-10.455c0.894-3.655,2.143-8.83,2.499-11.06c0.357,2.229,1.605,7.404,2.498,11.06l2.639,10.455H51.32l11.192-38.91H50.38
			L46.278,296.37z M130.481,267.022v14.719c-2.229-2.052-5.798-3.658-9.9-3.658c-11.596,0-18.197,9.812-18.197,23.816
			c0,6.85,1.271,12.143,3.404,16.075h29.026c1.793,0,3.26,1.467,3.26,3.261v3.502c0,0.409,0.015,1.158,0.015,1.158h4.705v-65.028
			L130.481,267.022z M130.481,311.355c-1.784,2.319-3.747,3.926-7.582,3.926c-4.816,0-8.027-4.015-8.027-13.649
			c0-7.849,2.588-11.953,7.313-11.953c3.568,0,6.422,1.428,8.296,4.015V311.355z"/>
		<path clip-path="url(#SVGID_4_)" fill="#B8B800" d="M17.087,325.81h-0.766l-0.618-2.308c-0.095-0.347-0.191-0.756-0.235-0.974
			c-0.044,0.218-0.139,0.636-0.235,0.982l-0.609,2.299h-0.766l-1.254-4.569h0.889l0.539,2.219c0.087,0.349,0.183,0.784,0.226,1
			c0.052-0.225,0.157-0.643,0.252-1l0.61-2.219h0.722l0.618,2.228c0.097,0.357,0.192,0.767,0.244,0.991
			c0.053-0.225,0.139-0.651,0.227-1l0.539-2.219h0.888L17.087,325.81z"/>
		<path clip-path="url(#SVGID_4_)" fill="#B8B800" d="M21.162,325.905c-1.149,0-2.012-0.949-2.012-2.375
			c0-1.499,0.889-2.386,2.038-2.386c1.166,0,2.036,0.931,2.036,2.358C23.224,325.018,22.336,325.905,21.162,325.905 M21.152,321.998
			c-0.68,0-1.098,0.601-1.098,1.505c0,1.003,0.462,1.551,1.142,1.551c0.678,0,1.122-0.688,1.122-1.523
			C22.318,322.598,21.875,321.998,21.152,321.998"/>
		<path clip-path="url(#SVGID_4_)" fill="#B8B800" d="M29.641,325.81v-2.586c0-0.924-0.288-1.254-0.879-1.254
			c-0.601,0-0.88,0.427-0.88,1.166v2.674h-0.896v-2.586c0-0.924-0.288-1.254-0.88-1.254c-0.6,0-0.879,0.427-0.879,1.166v2.674H24.33
			v-4.569h0.897v0.434c0.227-0.33,0.619-0.53,1.088-0.53c0.618,0,1.01,0.234,1.254,0.669c0.331-0.407,0.687-0.669,1.402-0.669
			c1.062,0,1.566,0.696,1.566,2.045v2.621H29.641z"/>
		<path clip-path="url(#SVGID_4_)" fill="#B8B800" d="M35.507,323.843h-3.02c0.095,0.879,0.591,1.253,1.149,1.253
			c0.383,0,0.687-0.141,0.993-0.366l0.53,0.575c-0.4,0.383-0.878,0.6-1.575,0.6c-1.072,0-1.977-0.861-1.977-2.375
			c0-1.55,0.819-2.386,2.003-2.386c1.297,0,1.924,1.054,1.924,2.289C35.534,323.599,35.516,323.747,35.507,323.843 M33.549,321.953
			c-0.601,0-0.967,0.418-1.044,1.15h2.124C34.585,322.476,34.288,321.953,33.549,321.953"/>
		<path clip-path="url(#SVGID_4_)" fill="#B8B800" d="M39.424,325.81v-2.586c0-0.924-0.348-1.254-0.94-1.254
			c-0.6,0-0.94,0.427-0.94,1.166v2.674h-0.896v-4.569h0.896v0.434c0.227-0.33,0.679-0.53,1.149-0.53
			c1.063,0,1.629,0.696,1.629,2.045v2.621H39.424z"/>
		<path clip-path="url(#SVGID_4_)" fill="#B8B800" d="M44.457,320.649c-0.323,0-0.583-0.262-0.583-0.575
			c0-0.322,0.26-0.583,0.583-0.583c0.313,0,0.574,0.261,0.574,0.583C45.031,320.387,44.77,320.649,44.457,320.649 M44.004,321.241
			H44.9v4.569h-0.896V321.241z"/>
		<path clip-path="url(#SVGID_4_)" fill="#B8B800" d="M49.043,325.81v-2.586c0-0.924-0.348-1.254-0.94-1.254
			c-0.6,0-0.94,0.427-0.94,1.166v2.674h-0.897v-4.569h0.897v0.434c0.227-0.33,0.679-0.53,1.149-0.53
			c1.062,0,1.628,0.696,1.628,2.045v2.621H49.043z"/>
		<path clip-path="url(#SVGID_4_)" fill="#B8B800" d="M56.33,325.81v-0.436c-0.33,0.305-0.714,0.53-1.193,0.53
			c-0.983,0-1.758-0.713-1.758-2.454c0-1.566,0.853-2.307,1.802-2.307c0.461,0,0.896,0.243,1.149,0.523v-1.741l0.888-0.462v6.346
			H56.33z M56.339,322.572c-0.2-0.271-0.618-0.602-1.071-0.602c-0.644,0-0.993,0.489-0.993,1.455c0,1.148,0.367,1.653,1.028,1.653
			c0.426,0,0.801-0.287,1.036-0.582V322.572z"/>
		<path clip-path="url(#SVGID_4_)" fill="#B8B800" d="M62.223,323.843h-3.02c0.095,0.879,0.591,1.253,1.148,1.253
			c0.384,0,0.688-0.141,0.994-0.366l0.529,0.575c-0.399,0.383-0.878,0.6-1.574,0.6c-1.072,0-1.977-0.861-1.977-2.375
			c0-1.55,0.819-2.386,2.003-2.386c1.297,0,1.924,1.054,1.924,2.289C62.25,323.599,62.231,323.747,62.223,323.843 M60.265,321.953
			c-0.601,0-0.967,0.418-1.044,1.15h2.124C61.3,322.476,61.003,321.953,60.265,321.953"/>
		<path clip-path="url(#SVGID_4_)" fill="#B8B800" d="M65.522,325.81h-0.896l-1.637-4.569h0.94l0.818,2.479
			c0.148,0.444,0.278,0.871,0.34,1.123c0.052-0.252,0.174-0.679,0.313-1.123l0.784-2.479h0.949L65.522,325.81z"/>
		<path clip-path="url(#SVGID_4_)" fill="#B8B800" d="M71.764,323.843h-3.02c0.095,0.879,0.591,1.253,1.147,1.253
			c0.385,0,0.688-0.141,0.994-0.366l0.53,0.575c-0.4,0.383-0.879,0.6-1.575,0.6c-1.072,0-1.977-0.861-1.977-2.375
			c0-1.55,0.818-2.386,2.003-2.386c1.297,0,1.924,1.054,1.924,2.289C71.791,323.599,71.773,323.747,71.764,323.843 M69.806,321.953
			c-0.601,0-0.967,0.418-1.044,1.15h2.124C70.842,322.476,70.545,321.953,69.806,321.953"/>
		<polygon clip-path="url(#SVGID_4_)" fill="#B8B800" points="72.947,325.81 72.947,319.933 73.844,319.463 73.844,325.81 		"/>
		<path clip-path="url(#SVGID_4_)" fill="#B8B800" d="M77.004,325.905c-1.148,0-2.011-0.949-2.011-2.375
			c0-1.499,0.889-2.386,2.037-2.386c1.166,0,2.036,0.931,2.036,2.358C79.066,325.018,78.18,325.905,77.004,325.905 M76.995,321.998
			c-0.679,0-1.097,0.601-1.097,1.505c0,1.003,0.461,1.551,1.141,1.551s1.122-0.688,1.122-1.523
			C78.161,322.598,77.719,321.998,76.995,321.998"/>
		<path clip-path="url(#SVGID_4_)" fill="#B8B800" d="M82.211,325.906c-0.462,0-0.897-0.244-1.148-0.522v1.646l-0.89,0.461v-6.25
			h0.89v0.434c0.33-0.304,0.713-0.53,1.19-0.53c0.984,0,1.759,0.715,1.759,2.455C84.012,325.165,83.158,325.906,82.211,325.906
			 M82.088,321.97c-0.427,0-0.801,0.288-1.036,0.584v1.925c0.201,0.269,0.618,0.6,1.071,0.6c0.646,0,0.993-0.487,0.993-1.455
			C83.116,322.476,82.75,321.97,82.088,321.97"/>
		<path clip-path="url(#SVGID_4_)" fill="#B8B800" d="M90.444,325.81v-2.586c0-0.924-0.287-1.254-0.879-1.254
			c-0.601,0-0.88,0.427-0.88,1.166v2.674H87.79v-2.586c0-0.924-0.287-1.254-0.881-1.254c-0.6,0-0.879,0.427-0.879,1.166v2.674
			h-0.896v-4.569h0.896v0.434c0.228-0.33,0.619-0.53,1.088-0.53c0.618,0,1.011,0.234,1.254,0.669
			c0.331-0.407,0.688-0.669,1.402-0.669c1.062,0,1.567,0.696,1.567,2.045v2.621H90.444z"/>
		<path clip-path="url(#SVGID_4_)" fill="#B8B800" d="M96.312,323.843H93.29c0.097,0.879,0.594,1.253,1.15,1.253
			c0.383,0,0.687-0.141,0.993-0.366l0.529,0.575c-0.399,0.383-0.879,0.6-1.574,0.6c-1.072,0-1.978-0.861-1.978-2.375
			c0-1.55,0.819-2.386,2.003-2.386c1.297,0,1.924,1.054,1.924,2.289C96.338,323.599,96.32,323.747,96.312,323.843 M94.354,321.953
			c-0.602,0-0.967,0.418-1.044,1.15h2.124C95.39,322.476,95.093,321.953,94.354,321.953"/>
		<path clip-path="url(#SVGID_4_)" fill="#B8B800" d="M100.229,325.81v-2.586c0-0.924-0.348-1.254-0.939-1.254
			c-0.6,0-0.94,0.427-0.94,1.166v2.674h-0.896v-4.569h0.896v0.434c0.228-0.33,0.679-0.53,1.149-0.53
			c1.062,0,1.628,0.696,1.628,2.045v2.621H100.229z"/>
		<path clip-path="url(#SVGID_4_)" fill="#B8B800" d="M104.6,325.696c-0.217,0.123-0.522,0.209-0.878,0.209
			c-0.637,0-1.028-0.392-1.028-1.209v-2.638h-0.653v-0.818h0.653v-1.307l0.879-0.469v1.775h1.131v0.818h-1.131v2.481
			c0,0.427,0.14,0.548,0.47,0.548c0.236,0,0.496-0.087,0.661-0.183L104.6,325.696z"/>
		<path clip-path="url(#SVGID_4_)" fill="#B8B800" d="M111.955,323.843h-3.02c0.095,0.879,0.591,1.253,1.147,1.253
			c0.385,0,0.688-0.141,0.994-0.366l0.529,0.575c-0.399,0.383-0.878,0.6-1.574,0.6c-1.072,0-1.977-0.861-1.977-2.375
			c0-1.55,0.818-2.386,2.003-2.386c1.297,0,1.924,1.054,1.924,2.289C111.982,323.599,111.965,323.747,111.955,323.843
			 M109.997,321.953c-0.601,0-0.967,0.418-1.044,1.15h2.124C111.033,322.476,110.736,321.953,109.997,321.953"/>
		<path clip-path="url(#SVGID_4_)" fill="#B8B800" d="M115.837,325.81v-0.437c-0.227,0.333-0.678,0.532-1.149,0.532
			c-1.061,0-1.627-0.697-1.627-2.045v-2.62h0.896v2.585c0,0.923,0.348,1.254,0.939,1.254c0.602,0,0.94-0.427,0.94-1.167v-2.672
			h0.897v4.569H115.837z"/>
		<path clip-path="url(#SVGID_4_)" fill="#B8B800" d="M120.538,322.189c-0.191-0.104-0.392-0.167-0.687-0.167
			c-0.566,0-0.898,0.401-0.898,1.178v2.61h-0.896v-4.569h0.896v0.434c0.209-0.303,0.592-0.53,1.045-0.53
			c0.366,0,0.593,0.069,0.775,0.19L120.538,322.189z"/>
		<path clip-path="url(#SVGID_4_)" fill="#B8B800" d="M123.489,325.905c-1.149,0-2.012-0.949-2.012-2.375
			c0-1.499,0.889-2.386,2.038-2.386c1.166,0,2.036,0.931,2.036,2.358C125.552,325.018,124.664,325.905,123.489,325.905
			 M123.48,321.998c-0.681,0-1.098,0.601-1.098,1.505c0,1.003,0.462,1.551,1.142,1.551c0.678,0,1.122-0.688,1.122-1.523
			C124.646,322.598,124.202,321.998,123.48,321.998"/>
		<path clip-path="url(#SVGID_4_)" fill="#B8B800" d="M128.695,325.906c-0.461,0-0.897-0.244-1.149-0.522v1.646l-0.888,0.461v-6.25
			h0.888v0.434c0.33-0.304,0.713-0.53,1.192-0.53c0.983,0,1.759,0.715,1.759,2.455C130.497,325.165,129.644,325.906,128.695,325.906
			 M128.573,321.97c-0.427,0-0.801,0.288-1.036,0.584v1.925c0.2,0.269,0.618,0.6,1.071,0.6c0.644,0,0.991-0.487,0.991-1.455
			C129.6,322.476,129.235,321.97,128.573,321.97"/>
		<path clip-path="url(#SVGID_4_)" fill="#B8B800" d="M135.302,323.843h-3.02c0.095,0.879,0.591,1.253,1.147,1.253
			c0.385,0,0.688-0.141,0.993-0.366l0.531,0.575c-0.4,0.383-0.879,0.6-1.575,0.6c-1.072,0-1.977-0.861-1.977-2.375
			c0-1.55,0.818-2.386,2.002-2.386c1.298,0,1.925,1.054,1.925,2.289C135.329,323.599,135.312,323.747,135.302,323.843
			 M133.344,321.953c-0.601,0-0.967,0.418-1.044,1.15h2.123C134.38,322.476,134.083,321.953,133.344,321.953"/>
		<path clip-path="url(#SVGID_4_)" fill="#9E9E00" d="M106.797,220.011c-0.447-0.447-1.01-0.703-1.593-0.788l0.298,0.298
			c0.445,0.447,1.009,0.703,1.593,0.788L106.797,220.011z"/>
		<path clip-path="url(#SVGID_4_)" fill="#9E9E00" d="M115.752,227.85l-1.112,1.112l1.112,1.112c1.103,1.102,2.906,1.102,4.009,0
			l1.112-1.112l-1.112-1.112C118.658,226.747,116.854,226.747,115.752,227.85"/>
		<path clip-path="url(#SVGID_4_)" fill="#9E9E00" d="M122.293,221.337c-0.698,1.096-0.573,2.574,0.381,3.528l1.098,1.098
			c0.698-1.096,0.573-2.574-0.381-3.528L122.293,221.337z"/>
		<path clip-path="url(#SVGID_4_)" fill="#9E9E00" d="M134.328,224.376c-0.909-0.192-1.895,0.058-2.597,0.76l-3.63,3.63
			c-0.15,0.15-0.276,0.316-0.385,0.489c0.907,0.192,1.894-0.058,2.596-0.76l3.631-3.63
			C134.094,224.714,134.22,224.549,134.328,224.376"/>
		<path clip-path="url(#SVGID_4_)" fill="#9E9E00" d="M131.316,218.229c-0.274,0.96-0.048,2.035,0.704,2.788l2.627,2.627
			c0.273-0.96,0.048-2.036-0.704-2.788L131.316,218.229z"/>
		<path clip-path="url(#SVGID_4_)" fill="#9E9E00" d="M128.852,216.452c-0.895-0.172-1.857,0.085-2.548,0.775l-3.63,3.63
			c-0.013,0.013-0.021,0.029-0.035,0.043c0.896,0.173,1.858-0.086,2.548-0.775l3.631-3.63
			C128.83,216.481,128.839,216.465,128.852,216.452"/>
		<path clip-path="url(#SVGID_4_)" fill="#9E9E00" d="M121.178,208.856l-2.167,2.167l2.167,2.167c1.104,1.102,2.906,1.102,4.009,0
			l2.167-2.167l-2.167-2.167C124.084,207.753,122.281,207.753,121.178,208.856"/>
		<path clip-path="url(#SVGID_4_)" fill="#9E9E00" d="M121.071,202.027l-3.522,3.524c-1.103,1.102-1.103,2.906,0,4.009l0.811,0.81
			l3.522-3.524c1.103-1.102,1.103-2.906,0-4.008L121.071,202.027z"/>
		<path clip-path="url(#SVGID_4_)" fill="#9E9E00" d="M116.443,201.432l2.017-2.016l-0.207-0.208c-1.104-1.102-2.907-1.102-4.009,0
			l-2.017,2.016l0.207,0.208C113.538,202.535,115.341,202.535,116.443,201.432"/>
		<path clip-path="url(#SVGID_4_)" fill="#9E9E00" d="M120.042,193.762c-0.863,1.109-0.798,2.72,0.221,3.738l0.03,0.032
			c0.864-1.11,0.8-2.72-0.22-3.739L120.042,193.762z"/>
		<path clip-path="url(#SVGID_4_)" fill="#9E9E00" d="M128.816,205.551l-2.469-2.469l-0.358,0.359c-1.103,1.102-1.103,2.906,0,4.008
			l2.47,2.469l0.357-0.358C129.92,208.457,129.92,206.653,128.816,205.551"/>
		<path clip-path="url(#SVGID_4_)" fill="#9E9E00" d="M137.259,203.441l-0.961-0.961l-2.167,2.167c-1.103,1.103-1.103,2.906,0,4.009
			l0.961,0.961l2.167-2.167C138.361,206.347,138.361,204.544,137.259,203.441"/>
		<path clip-path="url(#SVGID_4_)" fill="#9E9E00" d="M143.289,217.008l-0.962-0.962l-0.66,0.66c-1.103,1.103-1.103,2.906,0,4.009
			l0.963,0.962l0.66-0.66C144.391,219.914,144.391,218.11,143.289,217.008"/>
		<path clip-path="url(#SVGID_4_)" fill="#9E9E00" d="M149.307,213.077c-0.854-0.857-2.133-1.039-3.179-0.565l3.392,3.392
			c0.856,0.857,2.135,1.039,3.18,0.564L149.307,213.077z"/>
		<path clip-path="url(#SVGID_4_)" fill="#9E9E00" d="M153.527,205.653l0.509-0.509l-0.509-0.509c-1.102-1.103-2.905-1.103-4.008,0
			l-0.51,0.51l0.508,0.508C150.622,206.756,152.426,206.756,153.527,205.653"/>
		<path clip-path="url(#SVGID_4_)" fill="#9E9E00" d="M137.761,201.017l-1.005,1.005l2.512,2.514c1.103,1.102,2.906,1.102,4.01,0
			l1.005-1.005l-2.514-2.514C140.667,199.914,138.863,199.914,137.761,201.017"/>
		<path clip-path="url(#SVGID_4_)" fill="#9E9E00" d="M145.844,201.968l1.062-1.062c1.086-1.086,1.098-2.848,0.045-3.954
			l-1.062,1.062C144.805,199.1,144.793,200.861,145.844,201.968"/>
		<path clip-path="url(#SVGID_4_)" fill="#9E9E00" d="M136.425,235.72l2.944-2.945c0.738-0.738,0.97-1.786,0.72-2.732l-2.943,2.944
			C136.407,233.725,136.175,234.774,136.425,235.72"/>
		<path clip-path="url(#SVGID_4_)" fill="#9E9E00" d="M101.651,215.621l1.237-1.237c1.019-1.019,1.084-2.63,0.22-3.74l-1.236,1.238
			C100.853,212.901,100.788,214.512,101.651,215.621"/>
		<path clip-path="url(#SVGID_4_)" fill="#BCCE68" d="M135.74,411.878c-1.104-1.104-2.906-1.104-4.009,0l-3.631,3.63
			c-1.102,1.102-1.102,2.906,0,4.009l3.631,3.63c1.103,1.103,2.905,1.103,4.009,0l3.629-3.63c1.103-1.103,1.103-2.907,0-4.009
			L135.74,411.878z"/>
		<path clip-path="url(#SVGID_4_)" fill="#BCCE68" d="M144.783,416.099c-1.101-1.103-2.905-1.103-4.008,0l-3.63,3.63
			c-1.104,1.102-1.104,2.906,0,4.009l3.63,3.63c1.103,1.104,2.907,1.104,4.008,0l3.631-3.63c1.102-1.103,1.102-2.907,0-4.009
			L144.783,416.099z"/>
		<path clip-path="url(#SVGID_4_)" fill="#BCCE68" d="M83.28,445.947c-1.104-1.104-2.906-1.104-4.009,0l-3.631,3.63
			c-1.102,1.102-1.102,2.907,0,4.009l3.631,3.631c1.103,1.102,2.905,1.102,4.009-0.001l3.629-3.629c1.102-1.103,1.102-2.908,0-4.01
			L83.28,445.947z"/>
		<path clip-path="url(#SVGID_4_)" fill="#BCCE68" d="M95.038,434.188c-1.103-1.103-2.906-1.103-4.009,0l-3.631,3.631
			c-1.103,1.102-1.103,2.905,0,4.009l3.631,3.629c1.103,1.103,2.906,1.103,4.009,0l3.63-3.629c1.102-1.104,1.102-2.907,0-4.009
			L95.038,434.188z"/>
		<path clip-path="url(#SVGID_4_)" fill="#BCCE68" d="M83.581,429.365c-1.103-1.102-2.905-1.102-4.009,0l-3.63,3.629
			c-1.103,1.104-1.103,2.907,0,4.01l3.63,3.63c1.104,1.103,2.906,1.103,4.009,0l3.629-3.63c1.103-1.103,1.103-2.906,0-4.01
			L83.581,429.365z"/>
		<path clip-path="url(#SVGID_4_)" fill="#BCCE68" d="M98.354,419.716c-1.104-1.102-2.906-1.102-4.009,0l-3.631,3.631
			c-1.102,1.102-1.102,2.905,0,4.009l3.631,3.63c1.103,1.103,2.905,1.103,4.009,0l3.63-3.63c1.103-1.104,1.103-2.907,0-4.009
			L98.354,419.716z"/>
		<path clip-path="url(#SVGID_4_)" fill="#BCCE68" d="M110.112,423.636c-1.104-1.104-2.906-1.104-4.009,0l-3.631,3.63
			c-1.102,1.102-1.102,2.906,0,4.009l3.631,3.63c1.103,1.103,2.905,1.103,4.009,0l3.63-3.63c1.103-1.103,1.103-2.907,0-4.009
			L110.112,423.636z"/>
		<path clip-path="url(#SVGID_4_)" fill="#BCCE68" d="M106.797,406.752c-1.104-1.103-2.906-1.103-4.009,0l-3.631,3.631
			c-1.103,1.102-1.103,2.905,0,4.009l3.631,3.63c1.103,1.103,2.905,1.103,4.009,0l3.63-3.63c1.102-1.104,1.102-2.907,0-4.009
			L106.797,406.752z"/>
		<path clip-path="url(#SVGID_4_)" fill="#BCCE68" d="M126.092,426.652c-1.102-1.104-2.905-1.104-4.009,0l-3.63,3.63
			c-1.103,1.103-1.103,2.906,0,4.009l3.63,3.629c1.104,1.104,2.907,1.104,4.009,0l3.63-3.629c1.103-1.103,1.103-2.906,0-4.009
			L126.092,426.652z"/>
		<path clip-path="url(#SVGID_4_)" fill="#BCCE68" d="M119.761,414.591c-1.104-1.102-2.906-1.102-4.009,0l-3.63,3.631
			c-1.104,1.102-1.104,2.905,0,4.009l3.63,3.63c1.103,1.103,2.905,1.103,4.009,0l3.63-3.63c1.102-1.104,1.102-2.907,0-4.009
			L119.761,414.591z"/>
		<path clip-path="url(#SVGID_4_)" fill="#BCCE68" d="M119.761,405.547c-1.104-1.104-2.906-1.104-4.009,0l-3.63,3.629
			c-1.104,1.104-1.104,2.907,0,4.009l3.63,3.63c1.103,1.104,2.905,1.104,4.009,0l3.63-3.63c1.102-1.102,1.102-2.905,0-4.009
			L119.761,405.547z"/>
		<path clip-path="url(#SVGID_4_)" fill="#BCCE68" d="M130.312,403.968c-1.102-1.104-2.905-1.104-4.009,0l-3.63,3.63
			c-1.103,1.103-1.103,2.906,0,4.009l3.63,3.629c1.104,1.104,2.907,1.104,4.009,0l3.63-3.629c1.104-1.103,1.104-2.906,0-4.009
			L130.312,403.968z"/>
		<path clip-path="url(#SVGID_4_)" fill="#BCCE68" d="M139.659,400.121c-1.104-1.104-2.906-1.104-4.009,0l-3.631,3.629
			c-1.102,1.103-1.102,2.907,0,4.009l3.631,3.63c1.103,1.104,2.905,1.104,4.009,0l3.631-3.63c1.101-1.102,1.101-2.906-0.001-4.009
			L139.659,400.121z"/>
		<path clip-path="url(#SVGID_4_)" fill="#BCCE68" d="M125.187,395.597c-1.103-1.103-2.905-1.103-4.009,0l-3.629,3.631
			c-1.103,1.102-1.103,2.905,0,4.009l3.629,3.629c1.104,1.103,2.906,1.103,4.009,0l3.63-3.629c1.103-1.104,1.103-2.907,0-4.009
			L125.187,395.597z"/>
		<path clip-path="url(#SVGID_4_)" fill="#BCCE68" d="M125.187,388.663c-1.103-1.104-2.905-1.104-4.009,0l-3.629,3.63
			c-1.103,1.103-1.103,2.907,0,4.009l3.629,3.63c1.104,1.104,2.906,1.104,4.009,0l3.63-3.63c1.103-1.102,1.103-2.906,0-4.009
			L125.187,388.663z"/>
		<path clip-path="url(#SVGID_4_)" fill="#BCCE68" d="M118.252,385.95c-1.103-1.102-2.905-1.102-4.009,0l-3.629,3.63
			c-1.103,1.103-1.103,2.906,0,4.009l3.629,3.631c1.104,1.102,2.906,1.102,4.009,0l3.63-3.631c1.103-1.103,1.103-2.906,0-4.009
			L118.252,385.95z"/>
		<path clip-path="url(#SVGID_4_)" fill="#BCCE68" d="M116.443,376.905c-1.103-1.103-2.905-1.103-4.009,0l-3.63,3.631
			c-1.102,1.102-1.102,2.905,0,4.009l3.63,3.629c1.104,1.103,2.906,1.103,4.009,0l3.63-3.629c1.103-1.104,1.103-2.907,0-4.009
			L116.443,376.905z"/>
		<path clip-path="url(#SVGID_4_)" fill="#BCCE68" d="M127.9,376.603c-1.103-1.102-2.906-1.102-4.009,0l-3.63,3.631
			c-1.102,1.102-1.102,2.905,0,4.009l3.63,3.63c1.103,1.102,2.906,1.102,4.009,0l3.63-3.63c1.103-1.104,1.103-2.907,0-4.009
			L127.9,376.603z"/>
		<path clip-path="url(#SVGID_4_)" fill="#BCCE68" d="M133.629,386.552c-1.104-1.103-2.906-1.103-4.009,0l-3.631,3.63
			c-1.103,1.103-1.103,2.906,0,4.01l3.631,3.63c1.103,1.102,2.905,1.102,4.009,0l3.63-3.63c1.102-1.104,1.102-2.907,0-4.01
			L133.629,386.552z"/>
		<path clip-path="url(#SVGID_4_)" fill="#BCCE68" d="M141.769,387.758c-1.102-1.103-2.905-1.103-4.008,0l-3.63,3.631
			c-1.103,1.102-1.103,2.905,0,4.009l3.63,3.629c1.103,1.103,2.906,1.103,4.008,0l3.63-3.629c1.102-1.104,1.102-2.907,0-4.009
			L141.769,387.758z"/>
		<path clip-path="url(#SVGID_4_)" fill="#BCCE68" d="M149.307,399.818c-1.102-1.103-2.905-1.103-4.01,0l-3.63,3.631
			c-1.103,1.102-1.103,2.905,0,4.009l3.632,3.63c1.103,1.103,2.906,1.103,4.008,0l3.631-3.63c1.103-1.104,1.103-2.907,0-4.009
			L149.307,399.818z"/>
		<path clip-path="url(#SVGID_4_)" fill="#BCCE68" d="M153.527,391.376c-1.102-1.104-2.905-1.104-4.008,0l-3.631,3.63
			c-1.102,1.103-1.102,2.906,0,4.009l3.631,3.63c1.103,1.104,2.906,1.104,4.008,0l3.631-3.63c1.102-1.103,1.102-2.906,0-4.009
			L153.527,391.376z"/>
		<path clip-path="url(#SVGID_4_)" fill="#BCCE68" d="M153.527,381.125c-1.102-1.103-2.905-1.103-4.008,0l-3.631,3.631
			c-1.102,1.103-1.102,2.906,0,4.009l3.629,3.629c1.104,1.103,2.908,1.103,4.01,0l3.629-3.629c1.104-1.103,1.104-2.906,0.002-4.009
			L153.527,381.125z"/>
		<path clip-path="url(#SVGID_4_)" fill="#BCCE68" d="M143.277,380.008c-1.104-1.103-2.907-1.103-4.01,0l-3.63,3.631
			c-1.103,1.102-1.103,2.905,0,4.009l3.63,3.63c1.103,1.102,2.906,1.102,4.01,0l3.629-3.63c1.104-1.104,1.104-2.907,0-4.009
			L143.277,380.008z"/>
		<path clip-path="url(#SVGID_4_)" fill="#BCCE68" d="M160.762,411.275c-1.102-1.104-2.905-1.104-4.008,0l-3.629,3.63
			c-1.101,1.102-1.101,2.906,0,4.009l3.629,3.63c1.103,1.104,2.906,1.104,4.008,0l3.631-3.63c1.102-1.103,1.102-2.907,0-4.009
			L160.762,411.275z"/>
		<path clip-path="url(#SVGID_4_)" fill="#BCCE68" d="M109.51,394.994c-1.103-1.103-2.905-1.103-4.009,0l-3.63,3.631
			c-1.102,1.102-1.102,2.905,0,4.009l3.63,3.63c1.104,1.102,2.906,1.102,4.009,0l3.629-3.63c1.103-1.104,1.103-2.907,0-4.009
			L109.51,394.994z"/>
		<path clip-path="url(#SVGID_4_)" fill="#BCCE68" d="M99.259,393.487c-1.103-1.103-2.906-1.103-4.009,0l-3.63,3.63
			c-1.102,1.102-1.102,2.906,0,4.009l3.63,3.63c1.103,1.104,2.906,1.104,4.009,0l3.63-3.63c1.103-1.103,1.103-2.907,0-4.009
			L99.259,393.487z"/>
		<path clip-path="url(#SVGID_4_)" fill="#BCCE68" d="M89.61,403.738c-1.103-1.103-2.905-1.103-4.009,0l-3.629,3.629
			c-1.102,1.103-1.102,2.907,0,4.009l3.629,3.63c1.104,1.104,2.906,1.104,4.009,0l3.63-3.63c1.103-1.102,1.103-2.906,0-4.009
			L89.61,403.738z"/>
		<path clip-path="url(#SVGID_4_)" fill="#BCCE68" d="M110.414,441.124c-1.103-1.103-2.905-1.103-4.009,0l-3.63,3.629
			c-1.102,1.103-1.102,2.907,0,4.009l3.63,3.631c1.104,1.102,2.906,1.102,4.009,0l3.63-3.631c1.103-1.102,1.103-2.906,0-4.009
			L110.414,441.124z"/>
		<path clip-path="url(#SVGID_4_)" fill="#45454A" d="M197.383,493.191h-28.01c0.448,6.423,5.174,8.831,9.635,8.831
			c3.389,0,6.244-1.248,8.03-3.3l8.74,7.314c-3.746,4.815-10.526,7.582-16.771,7.582c-13.468,0-22.031-9.545-22.031-24.353
			c0-14.361,9.009-24.441,20.871-24.441c12.488,0,19.715,11.061,19.715,24.441C197.562,491.049,197.473,492.299,197.383,493.191
			 M177.225,475.529c-4.461,0-7.227,3.657-7.672,8.386h16.058C185.252,479.721,182.754,475.529,177.225,475.529"/>
		<path clip-path="url(#SVGID_4_)" fill="#45454A" d="M227.562,512.967c-0.769,0-1.604-0.306-2.18-0.729l0.51-0.846
			c0.531,0.368,1.129,0.563,1.66,0.563c0.705,0,1.041-0.227,1.041-0.629c0-0.434-0.498-0.641-1.324-0.955
			c-1.226-0.479-1.67-0.89-1.67-1.79c0-1.021,0.803-1.553,1.944-1.553c0.714,0,1.421,0.261,1.931,0.63l-0.488,0.857
			c-0.467-0.325-0.934-0.489-1.477-0.489s-0.781,0.218-0.781,0.521c0,0.283,0.195,0.489,1.052,0.825
			c1.271,0.488,1.922,0.837,1.922,1.911C229.702,512.542,228.682,512.967,227.562,512.967"/>
		<path clip-path="url(#SVGID_4_)" fill="#45454A" d="M236.334,512.847h-0.955l-0.771-2.876c-0.119-0.435-0.238-0.944-0.293-1.216
			c-0.054,0.271-0.173,0.793-0.293,1.227l-0.759,2.865h-0.955l-1.563-5.698h1.108l0.671,2.768c0.109,0.434,0.229,0.978,0.284,1.248
			c0.063-0.282,0.192-0.803,0.313-1.248l0.76-2.768h0.9l0.771,2.779c0.12,0.444,0.239,0.954,0.304,1.236
			c0.066-0.282,0.174-0.814,0.284-1.248l0.672-2.768h1.106L236.334,512.847z"/>
		<path clip-path="url(#SVGID_4_)" fill="#45454A" d="M239.795,506.411c-0.4,0-0.726-0.326-0.726-0.716
			c0-0.401,0.325-0.727,0.726-0.727c0.391,0,0.717,0.325,0.717,0.727C240.512,506.084,240.186,506.411,239.795,506.411
			 M239.231,507.149h1.118v5.697h-1.118V507.149z"/>
		<path clip-path="url(#SVGID_4_)" fill="#45454A" d="M244.777,512.707c-0.271,0.15-0.649,0.261-1.096,0.261
			c-0.793,0-1.281-0.49-1.281-1.51v-3.288h-0.813v-1.021h0.813v-1.629l1.099-0.587v2.216h1.409v1.021h-1.409v3.093
			c0,0.532,0.172,0.685,0.584,0.685c0.293,0,0.618-0.109,0.825-0.229L244.777,512.707z"/>
		<path clip-path="url(#SVGID_4_)" fill="#45454A" d="M246.232,512.847v-0.911l2.443-2.985c0.227-0.283,0.532-0.651,0.684-0.824
			c-0.207,0.01-0.739,0-1.021,0h-1.889v-0.978h4.18v0.901l-2.389,2.984c-0.229,0.292-0.53,0.661-0.684,0.837
			c0.207-0.012,0.76,0,1.043,0h2.029v0.976H246.232z"/>
		<path clip-path="url(#SVGID_4_)" fill="#45454A" d="M256.738,510.393h-3.765c0.118,1.098,0.737,1.563,1.431,1.563
			c0.479,0,0.857-0.173,1.239-0.456l0.662,0.717c-0.5,0.479-1.099,0.75-1.966,0.75c-1.334,0-2.463-1.076-2.463-2.964
			c0-1.932,1.021-2.974,2.494-2.974c1.619,0,2.401,1.312,2.401,2.854C256.772,510.089,256.75,510.275,256.738,510.393
			 M254.297,508.039c-0.75,0-1.205,0.521-1.303,1.434h2.649C255.588,508.69,255.219,508.039,254.297,508.039"/>
		<path clip-path="url(#SVGID_4_)" fill="#45454A" d="M261.252,508.332c-0.237-0.13-0.485-0.205-0.854-0.205
			c-0.707,0-1.12,0.499-1.12,1.465v3.256h-1.117v-5.698h1.117v0.543c0.262-0.382,0.739-0.662,1.303-0.662
			c0.455,0,0.738,0.087,0.965,0.237L261.252,508.332z"/>
		<polygon clip-path="url(#SVGID_4_)" fill="#45454A" points="262.752,512.847 262.752,505.521 263.869,504.934 263.869,512.847 		
			"/>
		<path clip-path="url(#SVGID_4_)" fill="#45454A" d="M268.84,512.847v-0.564c-0.391,0.391-0.944,0.685-1.562,0.685
			c-0.924,0-1.978-0.521-1.978-1.922c0-1.271,0.979-1.845,2.27-1.845c0.532,0,0.956,0.076,1.27,0.218v-0.425
			c0-0.618-0.379-0.966-1.074-0.966c-0.586,0-1.041,0.108-1.486,0.359l-0.436-0.847c0.543-0.337,1.15-0.511,1.953-0.511
			c1.272,0,2.14,0.617,2.14,1.91v3.907H268.84z M268.84,510.416c-0.303-0.151-0.692-0.249-1.303-0.249
			c-0.715,0-1.172,0.325-1.172,0.847c0,0.563,0.359,0.943,1.096,0.943c0.599,0,1.119-0.368,1.379-0.728V510.416z"/>
		<path clip-path="url(#SVGID_4_)" fill="#45454A" d="M275.006,512.847v-3.224c0-1.151-0.436-1.562-1.174-1.562
			c-0.748,0-1.172,0.531-1.172,1.454v3.332h-1.117v-5.698h1.117v0.543c0.283-0.412,0.846-0.662,1.434-0.662
			c1.324,0,2.029,0.867,2.029,2.55v3.268H275.006z"/>
		<path clip-path="url(#SVGID_4_)" fill="#45454A" d="M281.158,512.847v-0.542c-0.412,0.379-0.888,0.662-1.486,0.662
			c-1.227,0-2.192-0.891-2.192-3.062c0-1.954,1.063-2.876,2.248-2.876c0.575,0,1.116,0.303,1.431,0.65v-2.171l1.108-0.575v7.913
			H281.158z M281.17,508.809c-0.25-0.337-0.769-0.748-1.336-0.748c-0.803,0-1.235,0.606-1.235,1.811c0,1.435,0.454,2.064,1.28,2.064
			c0.531,0,0.998-0.359,1.291-0.729V508.809z"/>
		<path clip-path="url(#SVGID_4_)" fill="#BCCE68" d="M213.827,501.724c-1.103-1.102-2.906-1.102-4.009,0l-3.63,3.629
			c-1.103,1.104-1.103,2.906,0,4.01l3.63,3.63c1.103,1.102,2.905,1.102,4.009,0l3.63-3.63c1.103-1.104,1.103-2.906,0-4.01
			L213.827,501.724z"/>
		<path clip-path="url(#SVGID_4_)" fill="#45454A" d="M75.623,504.716h12.31v-38.91h-12.31V504.716z M46.278,483.111
			c-0.804,3.568-1.874,8.476-2.232,10.704c-0.356-2.318-1.516-7.047-2.498-10.704l-4.637-17.305h-10.17l-4.637,17.305
			c-0.982,3.657-2.142,8.386-2.498,10.704c-0.357-2.229-1.428-7.136-2.23-10.704l-4.104-17.305H0.784l11.191,38.91h14.536
			l2.638-10.455c0.894-3.656,2.143-8.83,2.499-11.061c0.357,2.23,1.605,7.404,2.498,11.061l2.639,10.455H51.32l11.192-38.91H50.38
			L46.278,483.111z M130.481,453.764v14.718c-2.229-2.051-5.798-3.658-9.9-3.658c-11.596,0-18.197,9.813-18.197,23.817
			c0,6.849,1.271,12.142,3.404,16.075h29.026c1.793,0,3.26,1.467,3.26,3.261v3.502c0,0.409,0.015,1.158,0.015,1.158h4.705v-65.028
			L130.481,453.764z M130.481,498.097c-1.784,2.319-3.747,3.925-7.582,3.925c-4.816,0-8.027-4.014-8.027-13.648
			c0-7.85,2.588-11.953,7.313-11.953c3.568,0,6.422,1.428,8.296,4.015V498.097z"/>
		<path clip-path="url(#SVGID_4_)" fill="#BCCE68" d="M17.087,512.552h-0.766l-0.618-2.308c-0.095-0.348-0.191-0.757-0.235-0.975
			c-0.044,0.218-0.139,0.636-0.235,0.983l-0.609,2.299h-0.766l-1.254-4.57h0.889l0.539,2.22c0.087,0.349,0.183,0.783,0.226,1
			c0.052-0.226,0.157-0.644,0.252-1l0.61-2.22h0.722l0.618,2.229c0.097,0.356,0.192,0.766,0.244,0.991
			c0.053-0.226,0.139-0.651,0.227-1l0.539-2.22h0.888L17.087,512.552z"/>
		<path clip-path="url(#SVGID_4_)" fill="#BCCE68" d="M21.162,512.647c-1.149,0-2.012-0.949-2.012-2.375
			c0-1.499,0.889-2.387,2.038-2.387c1.166,0,2.036,0.932,2.036,2.359C23.224,511.759,22.336,512.647,21.162,512.647 M21.152,508.74
			c-0.68,0-1.098,0.6-1.098,1.505c0,1.002,0.462,1.55,1.142,1.55c0.678,0,1.122-0.688,1.122-1.522
			C22.318,509.339,21.875,508.74,21.152,508.74"/>
		<path clip-path="url(#SVGID_4_)" fill="#BCCE68" d="M29.641,512.552v-2.586c0-0.924-0.288-1.254-0.879-1.254
			c-0.601,0-0.88,0.427-0.88,1.166v2.674h-0.896v-2.586c0-0.924-0.288-1.254-0.88-1.254c-0.6,0-0.879,0.427-0.879,1.166v2.674H24.33
			v-4.57h0.897v0.435c0.227-0.33,0.619-0.53,1.088-0.53c0.618,0,1.01,0.234,1.254,0.669c0.331-0.408,0.687-0.669,1.402-0.669
			c1.062,0,1.566,0.696,1.566,2.045v2.621H29.641z"/>
		<path clip-path="url(#SVGID_4_)" fill="#BCCE68" d="M35.507,510.584h-3.02c0.095,0.879,0.591,1.253,1.149,1.253
			c0.383,0,0.687-0.14,0.993-0.365l0.53,0.574c-0.4,0.384-0.878,0.601-1.575,0.601c-1.072,0-1.977-0.861-1.977-2.375
			c0-1.55,0.819-2.387,2.003-2.387c1.297,0,1.924,1.055,1.924,2.289C35.534,510.34,35.516,510.489,35.507,510.584 M33.549,508.695
			c-0.601,0-0.967,0.418-1.044,1.149h2.124C34.585,509.217,34.288,508.695,33.549,508.695"/>
		<path clip-path="url(#SVGID_4_)" fill="#BCCE68" d="M39.424,512.552v-2.586c0-0.924-0.348-1.254-0.94-1.254
			c-0.6,0-0.94,0.427-0.94,1.166v2.674h-0.896v-4.57h0.896v0.435c0.227-0.33,0.679-0.53,1.149-0.53c1.063,0,1.629,0.696,1.629,2.045
			v2.621H39.424z"/>
		<path clip-path="url(#SVGID_4_)" fill="#BCCE68" d="M44.457,507.39c-0.323,0-0.583-0.261-0.583-0.575
			c0-0.321,0.26-0.583,0.583-0.583c0.313,0,0.574,0.262,0.574,0.583C45.031,507.129,44.77,507.39,44.457,507.39 M44.004,507.982
			H44.9v4.569h-0.896V507.982z"/>
		<path clip-path="url(#SVGID_4_)" fill="#BCCE68" d="M49.043,512.552v-2.586c0-0.924-0.348-1.254-0.94-1.254
			c-0.6,0-0.94,0.427-0.94,1.166v2.674h-0.897v-4.57h0.897v0.435c0.227-0.33,0.679-0.53,1.149-0.53c1.062,0,1.628,0.696,1.628,2.045
			v2.621H49.043z"/>
		<path clip-path="url(#SVGID_4_)" fill="#BCCE68" d="M56.33,512.552v-0.437c-0.33,0.306-0.714,0.531-1.193,0.531
			c-0.983,0-1.758-0.713-1.758-2.454c0-1.567,0.853-2.307,1.802-2.307c0.461,0,0.896,0.242,1.149,0.522v-1.741l0.888-0.462v6.347
			H56.33z M56.339,509.314c-0.2-0.271-0.618-0.603-1.071-0.603c-0.644,0-0.993,0.489-0.993,1.455c0,1.149,0.367,1.654,1.028,1.654
			c0.426,0,0.801-0.288,1.036-0.583V509.314z"/>
		<path clip-path="url(#SVGID_4_)" fill="#BCCE68" d="M62.223,510.584h-3.02c0.095,0.879,0.591,1.253,1.148,1.253
			c0.384,0,0.688-0.14,0.994-0.365l0.529,0.574c-0.399,0.384-0.878,0.601-1.574,0.601c-1.072,0-1.977-0.861-1.977-2.375
			c0-1.55,0.819-2.387,2.003-2.387c1.297,0,1.924,1.055,1.924,2.289C62.25,510.34,62.231,510.489,62.223,510.584 M60.265,508.695
			c-0.601,0-0.967,0.418-1.044,1.149h2.124C61.3,509.217,61.003,508.695,60.265,508.695"/>
		<path clip-path="url(#SVGID_4_)" fill="#BCCE68" d="M65.522,512.552h-0.896l-1.637-4.57h0.94l0.818,2.48
			c0.148,0.443,0.278,0.871,0.34,1.123c0.052-0.252,0.174-0.68,0.313-1.123l0.784-2.48h0.949L65.522,512.552z"/>
		<path clip-path="url(#SVGID_4_)" fill="#BCCE68" d="M71.764,510.584h-3.02c0.095,0.879,0.591,1.253,1.147,1.253
			c0.385,0,0.688-0.14,0.994-0.365l0.53,0.574c-0.4,0.384-0.879,0.601-1.575,0.601c-1.072,0-1.977-0.861-1.977-2.375
			c0-1.55,0.818-2.387,2.003-2.387c1.297,0,1.924,1.055,1.924,2.289C71.791,510.34,71.773,510.489,71.764,510.584 M69.806,508.695
			c-0.601,0-0.967,0.418-1.044,1.149h2.124C70.842,509.217,70.545,508.695,69.806,508.695"/>
		<polygon clip-path="url(#SVGID_4_)" fill="#BCCE68" points="72.947,512.552 72.947,506.675 73.844,506.206 73.844,512.552 		"/>
		<path clip-path="url(#SVGID_4_)" fill="#BCCE68" d="M77.004,512.647c-1.148,0-2.011-0.949-2.011-2.375
			c0-1.499,0.889-2.387,2.037-2.387c1.166,0,2.036,0.932,2.036,2.359C79.066,511.759,78.18,512.647,77.004,512.647 M76.995,508.74
			c-0.679,0-1.097,0.6-1.097,1.505c0,1.002,0.461,1.55,1.141,1.55s1.122-0.688,1.122-1.522
			C78.161,509.339,77.719,508.74,76.995,508.74"/>
		<path clip-path="url(#SVGID_4_)" fill="#BCCE68" d="M82.211,512.647c-0.462,0-0.897-0.244-1.148-0.521v1.646l-0.89,0.461v-6.25
			h0.89v0.435c0.33-0.305,0.713-0.53,1.19-0.53c0.984,0,1.759,0.714,1.759,2.455C84.012,511.907,83.158,512.647,82.211,512.647
			 M82.088,508.712c-0.427,0-0.801,0.288-1.036,0.584v1.924c0.201,0.27,0.618,0.6,1.071,0.6c0.646,0,0.993-0.486,0.993-1.454
			C83.116,509.218,82.75,508.712,82.088,508.712"/>
		<path clip-path="url(#SVGID_4_)" fill="#BCCE68" d="M90.444,512.552v-2.586c0-0.924-0.287-1.254-0.879-1.254
			c-0.601,0-0.88,0.427-0.88,1.166v2.674H87.79v-2.586c0-0.924-0.287-1.254-0.881-1.254c-0.6,0-0.879,0.427-0.879,1.166v2.674
			h-0.896v-4.57h0.896v0.435c0.228-0.33,0.619-0.53,1.088-0.53c0.618,0,1.011,0.234,1.254,0.669
			c0.331-0.408,0.688-0.669,1.402-0.669c1.062,0,1.567,0.696,1.567,2.045v2.621H90.444z"/>
		<path clip-path="url(#SVGID_4_)" fill="#BCCE68" d="M96.312,510.584H93.29c0.097,0.879,0.594,1.253,1.15,1.253
			c0.383,0,0.687-0.14,0.993-0.365l0.529,0.574c-0.399,0.384-0.879,0.601-1.574,0.601c-1.072,0-1.978-0.861-1.978-2.375
			c0-1.55,0.819-2.387,2.003-2.387c1.297,0,1.924,1.055,1.924,2.289C96.338,510.34,96.32,510.489,96.312,510.584 M94.354,508.695
			c-0.602,0-0.967,0.418-1.044,1.149h2.124C95.39,509.217,95.093,508.695,94.354,508.695"/>
		<path clip-path="url(#SVGID_4_)" fill="#BCCE68" d="M100.229,512.552v-2.586c0-0.924-0.348-1.254-0.939-1.254
			c-0.6,0-0.94,0.427-0.94,1.166v2.674h-0.896v-4.57h0.896v0.435c0.228-0.33,0.679-0.53,1.149-0.53c1.062,0,1.628,0.696,1.628,2.045
			v2.621H100.229z"/>
		<path clip-path="url(#SVGID_4_)" fill="#BCCE68" d="M104.6,512.438c-0.217,0.123-0.522,0.209-0.878,0.209
			c-0.637,0-1.028-0.392-1.028-1.209V508.8h-0.653v-0.818h0.653v-1.307l0.879-0.47v1.776h1.131v0.818h-1.131v2.48
			c0,0.426,0.14,0.548,0.47,0.548c0.236,0,0.496-0.087,0.661-0.182L104.6,512.438z"/>
		<path clip-path="url(#SVGID_4_)" fill="#BCCE68" d="M111.955,510.584h-3.02c0.095,0.879,0.591,1.253,1.147,1.253
			c0.385,0,0.688-0.14,0.994-0.365l0.529,0.574c-0.399,0.384-0.878,0.601-1.574,0.601c-1.072,0-1.977-0.861-1.977-2.375
			c0-1.55,0.818-2.387,2.003-2.387c1.297,0,1.924,1.055,1.924,2.289C111.982,510.34,111.965,510.489,111.955,510.584
			 M109.997,508.695c-0.601,0-0.967,0.418-1.044,1.149h2.124C111.033,509.217,110.736,508.695,109.997,508.695"/>
		<path clip-path="url(#SVGID_4_)" fill="#BCCE68" d="M115.837,512.552v-0.438c-0.227,0.333-0.678,0.532-1.149,0.532
			c-1.061,0-1.627-0.696-1.627-2.045v-2.62h0.896v2.585c0,0.923,0.348,1.254,0.939,1.254c0.602,0,0.94-0.427,0.94-1.167v-2.672
			h0.897v4.57H115.837z"/>
		<path clip-path="url(#SVGID_4_)" fill="#BCCE68" d="M120.538,508.931c-0.191-0.105-0.392-0.167-0.687-0.167
			c-0.566,0-0.898,0.401-0.898,1.177v2.611h-0.896v-4.57h0.896v0.435c0.209-0.304,0.592-0.53,1.045-0.53
			c0.366,0,0.593,0.069,0.775,0.189L120.538,508.931z"/>
		<path clip-path="url(#SVGID_4_)" fill="#BCCE68" d="M123.489,512.647c-1.149,0-2.012-0.949-2.012-2.375
			c0-1.499,0.889-2.387,2.038-2.387c1.166,0,2.036,0.932,2.036,2.359C125.552,511.759,124.664,512.647,123.489,512.647
			 M123.48,508.74c-0.681,0-1.098,0.6-1.098,1.505c0,1.002,0.462,1.55,1.142,1.55c0.678,0,1.122-0.688,1.122-1.522
			C124.646,509.339,124.202,508.74,123.48,508.74"/>
		<path clip-path="url(#SVGID_4_)" fill="#BCCE68" d="M128.695,512.647c-0.461,0-0.897-0.244-1.149-0.521v1.646l-0.888,0.461v-6.25
			h0.888v0.435c0.33-0.305,0.713-0.53,1.192-0.53c0.983,0,1.759,0.714,1.759,2.455C130.497,511.907,129.644,512.647,128.695,512.647
			 M128.573,508.712c-0.427,0-0.801,0.288-1.036,0.584v1.924c0.2,0.27,0.618,0.6,1.071,0.6c0.644,0,0.991-0.486,0.991-1.454
			C129.6,509.218,129.235,508.712,128.573,508.712"/>
		<path clip-path="url(#SVGID_4_)" fill="#BCCE68" d="M135.302,510.584h-3.02c0.095,0.879,0.591,1.253,1.147,1.253
			c0.385,0,0.688-0.14,0.993-0.365l0.531,0.574c-0.4,0.384-0.879,0.601-1.575,0.601c-1.072,0-1.977-0.861-1.977-2.375
			c0-1.55,0.818-2.387,2.002-2.387c1.298,0,1.925,1.055,1.925,2.289C135.329,510.34,135.312,510.489,135.302,510.584
			 M133.344,508.695c-0.601,0-0.967,0.418-1.044,1.149h2.123C134.38,509.217,134.083,508.695,133.344,508.695"/>
		<path clip-path="url(#SVGID_4_)" fill="#96A553" d="M106.797,406.752c-0.447-0.446-1.01-0.702-1.593-0.788l0.298,0.299
			c0.445,0.446,1.009,0.702,1.593,0.788L106.797,406.752z"/>
		<path clip-path="url(#SVGID_4_)" fill="#96A553" d="M115.752,414.591l-1.112,1.112l1.112,1.112c1.103,1.102,2.906,1.102,4.009,0
			l1.112-1.112l-1.112-1.112C118.658,413.49,116.854,413.49,115.752,414.591"/>
		<path clip-path="url(#SVGID_4_)" fill="#96A553" d="M122.293,408.079c-0.698,1.097-0.573,2.574,0.381,3.528l1.098,1.098
			c0.698-1.096,0.573-2.573-0.381-3.527L122.293,408.079z"/>
		<path clip-path="url(#SVGID_4_)" fill="#96A553" d="M134.328,411.118c-0.909-0.191-1.895,0.059-2.597,0.761l-3.63,3.63
			c-0.15,0.149-0.276,0.315-0.385,0.489c0.907,0.191,1.894-0.059,2.596-0.761l3.631-3.63
			C134.094,411.457,134.22,411.292,134.328,411.118"/>
		<path clip-path="url(#SVGID_4_)" fill="#96A553" d="M131.316,404.971c-0.274,0.96-0.048,2.035,0.704,2.788l2.627,2.627
			c0.273-0.96,0.048-2.036-0.704-2.788L131.316,404.971z"/>
		<path clip-path="url(#SVGID_4_)" fill="#96A553" d="M128.852,403.193c-0.895-0.172-1.857,0.085-2.548,0.775l-3.63,3.63
			c-0.013,0.013-0.021,0.029-0.035,0.043c0.896,0.173,1.858-0.086,2.548-0.774l3.631-3.631
			C128.83,403.223,128.839,403.208,128.852,403.193"/>
		<path clip-path="url(#SVGID_4_)" fill="#96A553" d="M121.178,395.597l-2.167,2.167l2.167,2.167c1.104,1.103,2.906,1.103,4.009,0
			l2.167-2.167l-2.167-2.167C124.084,394.495,122.281,394.495,121.178,395.597"/>
		<path clip-path="url(#SVGID_4_)" fill="#96A553" d="M121.071,388.769l-3.522,3.524c-1.103,1.102-1.103,2.905,0,4.009l0.811,0.81
			l3.522-3.523c1.103-1.103,1.103-2.906,0-4.009L121.071,388.769z"/>
		<path clip-path="url(#SVGID_4_)" fill="#96A553" d="M116.443,388.173l2.017-2.016l-0.207-0.208c-1.104-1.102-2.907-1.102-4.009,0
			l-2.017,2.016l0.207,0.208C113.538,389.277,115.341,389.277,116.443,388.173"/>
		<path clip-path="url(#SVGID_4_)" fill="#96A553" d="M120.042,380.503c-0.863,1.109-0.798,2.721,0.221,3.738l0.03,0.032
			c0.864-1.11,0.8-2.72-0.22-3.739L120.042,380.503z"/>
		<path clip-path="url(#SVGID_4_)" fill="#96A553" d="M128.816,392.292l-2.469-2.469l-0.358,0.359c-1.103,1.102-1.103,2.906,0,4.008
			l2.47,2.469l0.357-0.357C129.92,395.199,129.92,393.396,128.816,392.292"/>
		<path clip-path="url(#SVGID_4_)" fill="#96A553" d="M137.259,390.182l-0.961-0.961l-2.167,2.167c-1.103,1.104-1.103,2.906,0,4.01
			l0.961,0.961l2.167-2.167C138.361,393.088,138.361,391.286,137.259,390.182"/>
		<path clip-path="url(#SVGID_4_)" fill="#96A553" d="M143.289,403.75l-0.962-0.962l-0.66,0.66c-1.103,1.104-1.103,2.906,0,4.009
			l0.963,0.962l0.66-0.659C144.391,406.656,144.391,404.852,143.289,403.75"/>
		<path clip-path="url(#SVGID_4_)" fill="#96A553" d="M149.307,399.818c-0.854-0.856-2.133-1.038-3.179-0.563l3.392,3.391
			c0.856,0.857,2.135,1.039,3.18,0.564L149.307,399.818z"/>
		<path clip-path="url(#SVGID_4_)" fill="#96A553" d="M153.527,392.394l0.509-0.509l-0.509-0.509c-1.102-1.104-2.905-1.104-4.008,0
			l-0.51,0.51l0.508,0.508C150.622,393.498,152.426,393.498,153.527,392.394"/>
		<path clip-path="url(#SVGID_4_)" fill="#96A553" d="M137.761,387.758l-1.005,1.006l2.512,2.514c1.103,1.102,2.906,1.102,4.01,0
			l1.005-1.005l-2.514-2.515C140.667,386.656,138.863,386.656,137.761,387.758"/>
		<path clip-path="url(#SVGID_4_)" fill="#96A553" d="M145.844,388.709l1.062-1.062c1.086-1.086,1.098-2.848,0.045-3.954
			l-1.062,1.062C144.805,385.842,144.793,387.603,145.844,388.709"/>
		<path clip-path="url(#SVGID_4_)" fill="#96A553" d="M136.425,422.461l2.944-2.944c0.738-0.738,0.97-1.786,0.72-2.732l-2.943,2.944
			C136.407,420.467,136.175,421.516,136.425,422.461"/>
		<path clip-path="url(#SVGID_4_)" fill="#96A553" d="M101.651,402.363l1.237-1.237c1.019-1.019,1.084-2.63,0.22-3.74l-1.236,1.238
			C100.853,399.643,100.788,401.253,101.651,402.363"/>
		<rect x="-126.148" y="248.99" clip-path="url(#SVGID_4_)" fill="#565B5F" width="10.75" height="12"/>
		<rect x="-126.148" y="277.201" clip-path="url(#SVGID_4_)" fill="#93AAB3" width="10.75" height="12"/>
		<rect x="-126.148" y="263.202" clip-path="url(#SVGID_4_)" fill="#B8B800" width="10.75" height="12"/>
	</g>
	<g clip-path="url(#SVGID_2_)">
		<text transform="matrix(1 0 0 1 -109.8237 73.9995)"><tspan x="0" y="0" font-family="'Myriad-Roman'" font-size="12">O</tspan><tspan x="8.268" y="0" font-family="'Myriad-Roman'" font-size="12">r</tspan><tspan x="12.228" y="0" font-family="'Myriad-Roman'" font-size="12">i</tspan><tspan x="15.036" y="0" font-family="'Myriad-Roman'" font-size="12">g</tspan><tspan x="21.684" y="0" font-family="'Myriad-Roman'" font-size="12">inal</tspan></text>
	</g>
	<g clip-path="url(#SVGID_2_)">
		<text transform="matrix(1 0 0 1 -109.8237 119.9956)" font-family="'Myriad-Roman'" font-size="12">P431</text>
	</g>
	<g clip-path="url(#SVGID_2_)">
		<text transform="matrix(1 0 0 1 -109.8237 134.3955)" font-family="'Myriad-Roman'" font-size="12">P390</text>
	</g>
	<g clip-path="url(#SVGID_2_)">
		<text transform="matrix(1 0 0 1 -109.8237 233.4795)"><tspan x="0" y="0" font-family="'Myriad-Roman'" font-size="12">R</tspan><tspan x="6.492" y="0" font-family="'Myriad-Roman'" font-size="12">GB neu</tspan></text>
	</g>
	<g clip-path="url(#SVGID_2_)">
		<text transform="matrix(1 0 0 1 -109.8237 406.3638)"><tspan x="0" y="0" font-family="'Myriad-Roman'" font-size="12">dein</tspan><tspan x="22.248" y="0" font-family="'Myriad-Roman'" font-size="12"> </tspan><tspan x="24.372" y="0" font-family="'Myriad-Roman'" font-size="12">V</tspan><tspan x="30.684" y="0" font-family="'Myriad-Roman'" font-size="12">orschlag</tspan></text>
	</g>
	<g clip-path="url(#SVGID_2_)">
		<text transform="matrix(1 0 0 1 -109.8237 420.7632)"><tspan x="0" y="0" font-family="'Myriad-Roman'" font-size="12">bit</tspan><tspan x="13.608" y="0" font-family="'Myriad-Roman'" font-size="12">t</tspan><tspan x="17.52" y="0" font-family="'Myriad-Roman'" font-size="12">e nic</tspan><tspan x="40.919" y="0" font-family="'Myriad-Roman'" font-size="12">h</tspan><tspan x="47.531" y="0" font-family="'Myriad-Roman'" font-size="12">t</tspan></text>
	</g>
	<g clip-path="url(#SVGID_2_)">
		<text transform="matrix(1 0 0 1 -109.8237 258.3677)" fill="#565B5F" font-family="'Myriad-Roman'" font-size="12">565b5f</text>
	</g>
	<g clip-path="url(#SVGID_2_)">
		<text transform="matrix(1 0 0 1 -109.8237 275.1919)" fill="#B8B800" font-family="'Myriad-Roman'" font-size="12">b8b800</text>
	</g>
	<g clip-path="url(#SVGID_2_)">
		<text transform="matrix(1 0 0 1 -109.8237 289.1958)" fill="#93AAB3" font-family="'Myriad-Roman'" font-size="12">93aab3</text>
	</g>
	<g clip-path="url(#SVGID_2_)">
		<defs>
			<rect id="SVGID_7_" x="-169.333" y="-2" width="474.667" height="534.667"/>
		</defs>
		<clipPath id="SVGID_8_">
			<use xlink:href="#SVGID_7_"  overflow="visible"/>
		</clipPath>
		<rect x="-126.148" y="429.259" clip-path="url(#SVGID_8_)" fill="#45454A" width="10.75" height="12"/>
		<rect x="-126.148" y="457.469" clip-path="url(#SVGID_8_)" fill="#5D83A3" width="10.75" height="12"/>
		<rect x="-126.148" y="443.471" clip-path="url(#SVGID_8_)" fill="#BCCE68" width="10.75" height="12"/>
	</g>
	<g clip-path="url(#SVGID_2_)">
		<text transform="matrix(1 0 0 1 -109.8237 438.647)" fill="#45454A" font-family="'Myriad-Roman'" font-size="12">45454A</text>
	</g>
	<g clip-path="url(#SVGID_2_)">
		<text transform="matrix(1 0 0 1 -109.8237 455.4712)"><tspan x="0" y="0" fill="#BCCE68" font-family="'Myriad-Roman'" font-size="12">B</tspan><tspan x="6.504" y="0" fill="#BCCE68" font-family="'Myriad-Roman'" font-size="12">C</tspan><tspan x="13.224" y="0" fill="#BCCE68" font-family="'Myriad-Roman'" font-size="12">CE68</tspan></text>
	</g>
	<g clip-path="url(#SVGID_2_)">
		<text transform="matrix(1 0 0 1 -109.8237 469.4751)" fill="#93AAB3" font-family="'Myriad-Roman'" font-size="12">5d83a3</text>
	</g>
	<g clip-path="url(#SVGID_2_)">
		<defs>
			<rect id="SVGID_9_" x="-169.333" y="-2" width="474.667" height="534.667"/>
		</defs>
		<clipPath id="SVGID_10_">
			<use xlink:href="#SVGID_9_"  overflow="visible"/>
		</clipPath>
		
			<line clip-path="url(#SVGID_10_)" fill="none" stroke="#841940" stroke-width="10" x1="305.334" y1="364.667" x2="-10" y2="523.333"/>
	</g>
</g>
</svg>
