<svg xmlns="http://www.w3.org/2000/svg" xmlns:xlink="http://www.w3.org/1999/xlink" version="1.1" id="Layer_1" x="0" y="0" width="283.7" height="139.7" viewBox="0 0 283.7 139.7" enable-background="new 0 0 283.667 139.667" xml:space="preserve">
  <defs>
    <rect id="SVGID_1_" x="-169.3" y="-2" width="474.7" height="534.7"/>
  </defs>
  <clipPath id="SVGID_2_">
    <use xlink:href="#SVGID_1_" overflow="visible"/>
  </clipPath>
  <g clip-path="url(#SVGID_2_)">
    <defs>
      <rect id="SVGID_3_" x="-169.3" y="-2" width="474.7" height="534.7"/>
    </defs>
    <clipPath id="SVGID_4_">
      <use xlink:href="#SVGID_3_" overflow="visible"/>
    </clipPath>
    <path clip-path="url(#SVGID_4_)" fill="#CDCD00" d="M135.7 36.6c-1.1-1.1-2.9-1.1-4 0l-3.6 3.6c-1.1 1.1-1.1 2.9 0 4l3.6 3.6c1.1 1.1 2.9 1.1 4 0l3.6-3.6c1.1-1.1 1.1-2.9 0-4L135.7 36.6z"/>
    <path clip-path="url(#SVGID_4_)" fill="#CDCD00" d="M144.8 40.9c-1.1-1.1-2.9-1.1-4 0l-3.6 3.6c-1.1 1.1-1.1 2.9 0 4l3.6 3.6c1.1 1.1 2.9 1.1 4 0l3.6-3.6c1.1-1.1 1.1-2.9 0-4L144.8 40.9z"/>
    <path clip-path="url(#SVGID_4_)" fill="#CDCD00" d="M83.3 70.7c-1.1-1.1-2.9-1.1-4 0l-3.6 3.6c-1.1 1.1-1.1 2.9 0 4l3.6 3.6c1.1 1.1 2.9 1.1 4 0l3.6-3.6c1.1-1.1 1.1-2.9 0-4L83.3 70.7z"/>
    <path clip-path="url(#SVGID_4_)" fill="#CDCD00" d="M95 58.9c-1.1-1.1-2.9-1.1-4 0l-3.6 3.6c-1.1 1.1-1.1 2.9 0 4l3.6 3.6c1.1 1.1 2.9 1.1 4 0l3.6-3.6c1.1-1.1 1.1-2.9 0-4L95 58.9z"/>
    <path clip-path="url(#SVGID_4_)" fill="#CDCD00" d="M83.6 54.1c-1.1-1.1-2.9-1.1-4 0l-3.6 3.6c-1.1 1.1-1.1 2.9 0 4l3.6 3.6c1.1 1.1 2.9 1.1 4 0l3.6-3.6c1.1-1.1 1.1-2.9 0-4L83.6 54.1z"/>
    <path clip-path="url(#SVGID_4_)" fill="#CDCD00" d="M98.4 44.5c-1.1-1.1-2.9-1.1-4 0l-3.6 3.6c-1.1 1.1-1.1 2.9 0 4l3.6 3.6c1.1 1.1 2.9 1.1 4 0l3.6-3.6c1.1-1.1 1.1-2.9 0-4L98.4 44.5z"/>
    <path clip-path="url(#SVGID_4_)" fill="#CDCD00" d="M110.1 48.4c-1.1-1.1-2.9-1.1-4 0l-3.6 3.6c-1.1 1.1-1.1 2.9 0 4l3.6 3.6c1.1 1.1 2.9 1.1 4 0l3.6-3.6c1.1-1.1 1.1-2.9 0-4L110.1 48.4z"/>
    <path clip-path="url(#SVGID_4_)" fill="#CDCD00" d="M106.8 31.5c-1.1-1.1-2.9-1.1-4 0l-3.6 3.6c-1.1 1.1-1.1 2.9 0 4l3.6 3.6c1.1 1.1 2.9 1.1 4 0l3.6-3.6c1.1-1.1 1.1-2.9 0-4L106.8 31.5z"/>
    <path clip-path="url(#SVGID_4_)" fill="#CDCD00" d="M126.1 51.4c-1.1-1.1-2.9-1.1-4 0l-3.6 3.6c-1.1 1.1-1.1 2.9 0 4l3.6 3.6c1.1 1.1 2.9 1.1 4 0l3.6-3.6c1.1-1.1 1.1-2.9 0-4L126.1 51.4z"/>
    <path clip-path="url(#SVGID_4_)" fill="#CDCD00" d="M119.8 39.4c-1.1-1.1-2.9-1.1-4 0l-3.6 3.6c-1.1 1.1-1.1 2.9 0 4l3.6 3.6c1.1 1.1 2.9 1.1 4 0l3.6-3.6c1.1-1.1 1.1-2.9 0-4L119.8 39.4z"/>
    <path clip-path="url(#SVGID_4_)" fill="#CDCD00" d="M119.8 30.3c-1.1-1.1-2.9-1.1-4 0l-3.6 3.6c-1.1 1.1-1.1 2.9 0 4l3.6 3.6c1.1 1.1 2.9 1.1 4 0l3.6-3.6c1.1-1.1 1.1-2.9 0-4L119.8 30.3z"/>
    <path clip-path="url(#SVGID_4_)" fill="#CDCD00" d="M130.3 28.7c-1.1-1.1-2.9-1.1-4 0l-3.6 3.6c-1.1 1.1-1.1 2.9 0 4l3.6 3.6c1.1 1.1 2.9 1.1 4 0l3.6-3.6c1.1-1.1 1.1-2.9 0-4L130.3 28.7z"/>
    <path clip-path="url(#SVGID_4_)" fill="#CDCD00" d="M139.7 24.9c-1.1-1.1-2.9-1.1-4 0l-3.6 3.6c-1.1 1.1-1.1 2.9 0 4l3.6 3.6c1.1 1.1 2.9 1.1 4 0l3.6-3.6c1.1-1.1 1.1-2.9 0-4L139.7 24.9z"/>
    <path clip-path="url(#SVGID_4_)" fill="#CDCD00" d="M125.2 20.4c-1.1-1.1-2.9-1.1-4 0l-3.6 3.6c-1.1 1.1-1.1 2.9 0 4l3.6 3.6c1.1 1.1 2.9 1.1 4 0l3.6-3.6c1.1-1.1 1.1-2.9 0-4L125.2 20.4z"/>
    <path clip-path="url(#SVGID_4_)" fill="#CDCD00" d="M125.2 13.4c-1.1-1.1-2.9-1.1-4 0l-3.6 3.6c-1.1 1.1-1.1 2.9 0 4l3.6 3.6c1.1 1.1 2.9 1.1 4 0l3.6-3.6c1.1-1.1 1.1-2.9 0-4L125.2 13.4z"/>
    <path clip-path="url(#SVGID_4_)" fill="#CDCD00" d="M118.3 10.7c-1.1-1.1-2.9-1.1-4 0l-3.6 3.6c-1.1 1.1-1.1 2.9 0 4l3.6 3.6c1.1 1.1 2.9 1.1 4 0l3.6-3.6c1.1-1.1 1.1-2.9 0-4L118.3 10.7z"/>
    <path clip-path="url(#SVGID_4_)" fill="#CDCD00" d="M116.4 1.7c-1.1-1.1-2.9-1.1-4 0l-3.6 3.6c-1.1 1.1-1.1 2.9 0 4l3.6 3.6c1.1 1.1 2.9 1.1 4 0l3.6-3.6c1.1-1.1 1.1-2.9 0-4L116.4 1.7z"/>
    <path clip-path="url(#SVGID_4_)" fill="#CDCD00" d="M127.9 1.4c-1.1-1.1-2.9-1.1-4 0l-3.6 3.6c-1.1 1.1-1.1 2.9 0 4l3.6 3.6c1.1 1.1 2.9 1.1 4 0L131.5 9c1.1-1.1 1.1-2.9 0-4L127.9 1.4z"/>
    <path clip-path="url(#SVGID_4_)" fill="#CDCD00" d="M133.6 11.3c-1.1-1.1-2.9-1.1-4 0l-3.6 3.6c-1.1 1.1-1.1 2.9 0 4l3.6 3.6c1.1 1.1 2.9 1.1 4 0l3.6-3.6c1.1-1.1 1.1-2.9 0-4L133.6 11.3z"/>
    <path clip-path="url(#SVGID_4_)" fill="#CDCD00" d="M141.8 12.5c-1.1-1.1-2.9-1.1-4 0l-3.6 3.6c-1.1 1.1-1.1 2.9 0 4l3.6 3.6c1.1 1.1 2.9 1.1 4 0l3.6-3.6c1.1-1.1 1.1-2.9 0-4L141.8 12.5z"/>
    <path clip-path="url(#SVGID_4_)" fill="#CDCD00" d="M149.3 24.6c-1.1-1.1-2.9-1.1-4 0l-3.6 3.6c-1.1 1.1-1.1 2.9 0 4l3.6 3.6c1.1 1.1 2.9 1.1 4 0l3.6-3.6c1.1-1.1 1.1-2.9 0-4L149.3 24.6z"/>
    <path clip-path="url(#SVGID_4_)" fill="#CDCD00" d="M153.5 16.1c-1.1-1.1-2.9-1.1-4 0l-3.6 3.6c-1.1 1.1-1.1 2.9 0 4l3.6 3.6c1.1 1.1 2.9 1.1 4 0l3.6-3.6c1.1-1.1 1.1-2.9 0-4L153.5 16.1z"/>
    <path clip-path="url(#SVGID_4_)" fill="#CDCD00" d="M153.5 5.9c-1.1-1.1-2.9-1.1-4 0l-3.6 3.6c-1.1 1.1-1.1 2.9 0 4l3.6 3.6c1.1 1.1 2.9 1.1 4 0l3.6-3.6c1.1-1.1 1.1-2.9 0-4L153.5 5.9z"/>
    <path clip-path="url(#SVGID_4_)" fill="#CDCD00" d="M143.3 4.8c-1.1-1.1-2.9-1.1-4 0l-3.6 3.6c-1.1 1.1-1.1 2.9 0 4l3.6 3.6c1.1 1.1 2.9 1.1 4 0l3.6-3.6c1.1-1.1 1.1-2.9 0-4L143.3 4.8z"/>
    <path clip-path="url(#SVGID_4_)" fill="#CDCD00" d="M160.8 36c-1.1-1.1-2.9-1.1-4 0l-3.6 3.6c-1.1 1.1-1.1 2.9 0 4l3.6 3.6c1.1 1.1 2.9 1.1 4 0l3.6-3.6c1.1-1.1 1.1-2.9 0-4L160.8 36z"/>
    <path clip-path="url(#SVGID_4_)" fill="#CDCD00" d="M109.5 19.8c-1.1-1.1-2.9-1.1-4 0l-3.6 3.6c-1.1 1.1-1.1 2.9 0 4l3.6 3.6c1.1 1.1 2.9 1.1 4 0l3.6-3.6c1.1-1.1 1.1-2.9 0-4L109.5 19.8z"/>
    <path clip-path="url(#SVGID_4_)" fill="#CDCD00" d="M99.3 18.2c-1.1-1.1-2.9-1.1-4 0l-3.6 3.6c-1.1 1.1-1.1 2.9 0 4l3.6 3.6c1.1 1.1 2.9 1.1 4 0l3.6-3.6c1.1-1.1 1.1-2.9 0-4L99.3 18.2z"/>
    <path clip-path="url(#SVGID_4_)" fill="#CDCD00" d="M89.6 28.5c-1.1-1.1-2.9-1.1-4 0l-3.6 3.6c-1.1 1.1-1.1 2.9 0 4l3.6 3.6c1.1 1.1 2.9 1.1 4 0l3.6-3.6c1.1-1.1 1.1-2.9 0-4L89.6 28.5z"/>
    <path clip-path="url(#SVGID_4_)" fill="#CDCD00" d="M110.4 65.9c-1.1-1.1-2.9-1.1-4 0l-3.6 3.6c-1.1 1.1-1.1 2.9 0 4l3.6 3.6c1.1 1.1 2.9 1.1 4 0l3.6-3.6c1.1-1.1 1.1-2.9 0-4L110.4 65.9z"/>
    <path clip-path="url(#SVGID_4_)" fill="#F5F5FA" d="M197.4 117.9h-28c0.4 6.4 5.2 8.8 9.6 8.8 3.4 0 6.2-1.2 8-3.3l8.7 7.3c-3.7 4.8-10.5 7.6-16.8 7.6 -13.5 0-22-9.5-22-24.4 0-14.4 9-24.4 20.9-24.4 12.5 0 19.7 11.1 19.7 24.4C197.6 115.8 197.5 117.1 197.4 117.9M177.2 100.3c-4.5 0-7.2 3.7-7.7 8.4h16.1C185.3 104.5 182.8 100.3 177.2 100.3"/>
    <path clip-path="url(#SVGID_4_)" fill="#F5F5FA" d="M227.6 137.7c-0.8 0-1.6-0.3-2.2-0.7l0.5-0.8c0.5 0.4 1.1 0.6 1.7 0.6 0.7 0 1-0.2 1-0.6 0-0.4-0.5-0.6-1.3-1 -1.2-0.5-1.7-0.9-1.7-1.8 0-1 0.8-1.6 1.9-1.6 0.7 0 1.4 0.3 1.9 0.6l-0.5 0.9c-0.5-0.3-0.9-0.5-1.5-0.5s-0.8 0.2-0.8 0.5c0 0.3 0.2 0.5 1.1 0.8 1.3 0.5 1.9 0.8 1.9 1.9C229.7 137.3 228.7 137.7 227.6 137.7"/>
    <path clip-path="url(#SVGID_4_)" fill="#F5F5FA" d="M236.3 137.6h-1l-0.8-2.9c-0.1-0.4-0.2-0.9-0.3-1.2 -0.1 0.3-0.2 0.8-0.3 1.2l-0.8 2.9h-1l-1.6-5.7h1.1l0.7 2.8c0.1 0.4 0.2 1 0.3 1.2 0.1-0.3 0.2-0.8 0.3-1.2l0.8-2.8h0.9l0.8 2.8c0.1 0.4 0.2 1 0.3 1.2 0.1-0.3 0.2-0.8 0.3-1.2l0.7-2.8h1.1L236.3 137.6z"/>
    <path clip-path="url(#SVGID_4_)" fill="#F5F5FA" d="M239.8 131.2c-0.4 0-0.7-0.3-0.7-0.7 0-0.4 0.3-0.7 0.7-0.7 0.4 0 0.7 0.3 0.7 0.7C240.5 130.8 240.2 131.2 239.8 131.2M239.2 131.9h1.1v5.7h-1.1V131.9z"/>
    <path clip-path="url(#SVGID_4_)" fill="#F5F5FA" d="M244.8 137.5c-0.3 0.2-0.6 0.3-1.1 0.3 -0.8 0-1.3-0.5-1.3-1.5v-3.3h-0.8v-1h0.8v-1.6l1.1-0.6v2.2h1.4v1h-1.4v3.1c0 0.5 0.2 0.7 0.6 0.7 0.3 0 0.6-0.1 0.8-0.2L244.8 137.5z"/>
    <path clip-path="url(#SVGID_4_)" fill="#F5F5FA" d="M246.2 137.6v-0.9l2.4-3c0.2-0.3 0.5-0.7 0.7-0.8 -0.2 0-0.7 0-1 0h-1.9v-1h4.2v0.9l-2.4 3c-0.2 0.3-0.5 0.7-0.7 0.8 0.2 0 0.8 0 1 0h2v1H246.2z"/>
    <path clip-path="url(#SVGID_4_)" fill="#F5F5FA" d="M256.7 135.2h-3.8c0.1 1.1 0.7 1.6 1.4 1.6 0.5 0 0.9-0.2 1.2-0.5l0.7 0.7c-0.5 0.5-1.1 0.8-2 0.8 -1.3 0-2.5-1.1-2.5-3 0-1.9 1-3 2.5-3 1.6 0 2.4 1.3 2.4 2.9C256.8 134.8 256.8 135 256.7 135.2M254.3 132.8c-0.7 0-1.2 0.5-1.3 1.4h2.6C255.6 133.4 255.2 132.8 254.3 132.8"/>
    <path clip-path="url(#SVGID_4_)" fill="#F5F5FA" d="M261.3 133.1c-0.2-0.1-0.5-0.2-0.9-0.2 -0.7 0-1.1 0.5-1.1 1.5v3.3h-1.1v-5.7h1.1v0.5c0.3-0.4 0.7-0.7 1.3-0.7 0.5 0 0.7 0.1 1 0.2L261.3 133.1z"/>
    <polygon clip-path="url(#SVGID_4_)" fill="#F5F5FA" points="262.8 137.6 262.8 130.3 263.9 129.7 263.9 137.6 "/>
    <path clip-path="url(#SVGID_4_)" fill="#F5F5FA" d="M268.8 137.6v-0.6c-0.4 0.4-0.9 0.7-1.6 0.7 -0.9 0-2-0.5-2-1.9 0-1.3 1-1.8 2.3-1.8 0.5 0 1 0.1 1.3 0.2v-0.4c0-0.6-0.4-1-1.1-1 -0.6 0-1 0.1-1.5 0.4l-0.4-0.8c0.5-0.3 1.2-0.5 2-0.5 1.3 0 2.1 0.6 2.1 1.9v3.9H268.8zM268.8 135.2c-0.3-0.2-0.7-0.2-1.3-0.2 -0.7 0-1.2 0.3-1.2 0.8 0 0.6 0.4 0.9 1.1 0.9 0.6 0 1.1-0.4 1.4-0.7V135.2z"/>
    <path clip-path="url(#SVGID_4_)" fill="#F5F5FA" d="M275 137.6v-3.2c0-1.2-0.4-1.6-1.2-1.6 -0.7 0-1.2 0.5-1.2 1.5v3.3h-1.1v-5.7h1.1v0.5c0.3-0.4 0.8-0.7 1.4-0.7 1.3 0 2 0.9 2 2.5v3.3H275z"/>
    <path clip-path="url(#SVGID_4_)" fill="#F5F5FA" d="M281.2 137.6v-0.5c-0.4 0.4-0.9 0.7-1.5 0.7 -1.2 0-2.2-0.9-2.2-3.1 0-2 1.1-2.9 2.2-2.9 0.6 0 1.1 0.3 1.4 0.7v-2.2l1.1-0.6v7.9H281.2zM281.2 133.6c-0.2-0.3-0.8-0.7-1.3-0.7 -0.8 0-1.2 0.6-1.2 1.8 0 1.4 0.5 2.1 1.3 2.1 0.5 0 1-0.4 1.3-0.7V133.6z"/>
    <path clip-path="url(#SVGID_4_)" fill="#CDCD00" d="M213.8 126.5c-1.1-1.1-2.9-1.1-4 0l-3.6 3.6c-1.1 1.1-1.1 2.9 0 4l3.6 3.6c1.1 1.1 2.9 1.1 4 0l3.6-3.6c1.1-1.1 1.1-2.9 0-4L213.8 126.5z"/>
    <path clip-path="url(#SVGID_4_)" fill="#F5F5FA" d="M75.6 129.5h12.3v-38.9h-12.3V129.5zM46.3 107.9c-0.8 3.6-1.9 8.5-2.2 10.7 -0.4-2.3-1.5-7-2.5-10.7l-4.6-17.3h-10.2l-4.6 17.3c-1 3.7-2.1 8.4-2.5 10.7 -0.4-2.2-1.4-7.1-2.2-10.7l-4.1-17.3H0.8l11.2 38.9h14.5l2.6-10.5c0.9-3.7 2.1-8.8 2.5-11.1 0.4 2.2 1.6 7.4 2.5 11.1l2.6 10.5H51.3l11.2-38.9H50.4L46.3 107.9zM130.5 78.5V93.2c-2.2-2.1-5.8-3.7-9.9-3.7 -11.6 0-18.2 9.8-18.2 23.8 0 6.8 1.3 12.1 3.4 16.1h29c1.8 0 3.3 1.5 3.3 3.3v3.5c0 0.4 0 1.2 0 1.2h4.7V72.4L130.5 78.5zM130.5 122.9c-1.8 2.3-3.7 3.9-7.6 3.9 -4.8 0-8-4-8-13.6 0-7.8 2.6-12 7.3-12 3.6 0 6.4 1.4 8.3 4V122.9z"/>
    <path clip-path="url(#SVGID_4_)" fill="#CDCD00" d="M17.1 137.3h-0.8l-0.6-2.3c-0.1-0.3-0.2-0.8-0.2-1 0 0.2-0.1 0.6-0.2 1l-0.6 2.3h-0.8l-1.3-4.6h0.9l0.5 2.2c0.1 0.3 0.2 0.8 0.2 1 0.1-0.2 0.2-0.6 0.3-1l0.6-2.2h0.7l0.6 2.2c0.1 0.4 0.2 0.8 0.2 1 0.1-0.2 0.1-0.7 0.2-1l0.5-2.2h0.9L17.1 137.3z"/>
    <path clip-path="url(#SVGID_4_)" fill="#CDCD00" d="M21.2 137.4c-1.1 0-2-0.9-2-2.4 0-1.5 0.9-2.4 2-2.4 1.2 0 2 0.9 2 2.4C23.2 136.5 22.3 137.4 21.2 137.4M21.2 133.5c-0.7 0-1.1 0.6-1.1 1.5 0 1 0.5 1.6 1.1 1.6 0.7 0 1.1-0.7 1.1-1.5C22.3 134.1 21.9 133.5 21.2 133.5"/>
    <path clip-path="url(#SVGID_4_)" fill="#CDCD00" d="M29.6 137.3v-2.6c0-0.9-0.3-1.3-0.9-1.3 -0.6 0-0.9 0.4-0.9 1.2v2.7h-0.9v-2.6c0-0.9-0.3-1.3-0.9-1.3 -0.6 0-0.9 0.4-0.9 1.2v2.7H24.3v-4.6h0.9v0.4c0.2-0.3 0.6-0.5 1.1-0.5 0.6 0 1 0.2 1.3 0.7 0.3-0.4 0.7-0.7 1.4-0.7 1.1 0 1.6 0.7 1.6 2v2.6H29.6z"/>
    <path clip-path="url(#SVGID_4_)" fill="#CDCD00" d="M35.5 135.3h-3c0.1 0.9 0.6 1.3 1.1 1.3 0.4 0 0.7-0.1 1-0.4l0.5 0.6c-0.4 0.4-0.9 0.6-1.6 0.6 -1.1 0-2-0.9-2-2.4 0-1.5 0.8-2.4 2-2.4 1.3 0 1.9 1.1 1.9 2.3C35.5 135.1 35.5 135.2 35.5 135.3M33.5 133.5c-0.6 0-1 0.4-1 1.2h2.1C34.6 134 34.3 133.5 33.5 133.5"/>
    <path clip-path="url(#SVGID_4_)" fill="#CDCD00" d="M39.4 137.3v-2.6c0-0.9-0.3-1.3-0.9-1.3 -0.6 0-0.9 0.4-0.9 1.2v2.7h-0.9v-4.6h0.9v0.4c0.2-0.3 0.7-0.5 1.1-0.5 1.1 0 1.6 0.7 1.6 2v2.6H39.4z"/>
    <path clip-path="url(#SVGID_4_)" fill="#CDCD00" d="M44.5 132.1c-0.3 0-0.6-0.3-0.6-0.6 0-0.3 0.3-0.6 0.6-0.6 0.3 0 0.6 0.3 0.6 0.6C45 131.9 44.8 132.1 44.5 132.1M44 132.7H44.9v4.6h-0.9V132.7z"/>
    <path clip-path="url(#SVGID_4_)" fill="#CDCD00" d="M49 137.3v-2.6c0-0.9-0.3-1.3-0.9-1.3 -0.6 0-0.9 0.4-0.9 1.2v2.7h-0.9v-4.6h0.9v0.4c0.2-0.3 0.7-0.5 1.1-0.5 1.1 0 1.6 0.7 1.6 2v2.6H49z"/>
    <path clip-path="url(#SVGID_4_)" fill="#CDCD00" d="M56.3 137.3v-0.4c-0.3 0.3-0.7 0.5-1.2 0.5 -1 0-1.8-0.7-1.8-2.5 0-1.6 0.9-2.3 1.8-2.3 0.5 0 0.9 0.2 1.1 0.5v-1.7l0.9-0.5v6.3H56.3zM56.3 134.1c-0.2-0.3-0.6-0.6-1.1-0.6 -0.6 0-1 0.5-1 1.5 0 1.2 0.4 1.7 1 1.7 0.4 0 0.8-0.3 1-0.6V134.1z"/>
    <path clip-path="url(#SVGID_4_)" fill="#CDCD00" d="M62.2 135.3h-3c0.1 0.9 0.6 1.3 1.1 1.3 0.4 0 0.7-0.1 1-0.4l0.5 0.6c-0.4 0.4-0.9 0.6-1.6 0.6 -1.1 0-2-0.9-2-2.4 0-1.5 0.8-2.4 2-2.4 1.3 0 1.9 1.1 1.9 2.3C62.3 135.1 62.2 135.2 62.2 135.3M60.3 133.5c-0.6 0-1 0.4-1 1.2h2.1C61.3 134 61 133.5 60.3 133.5"/>
    <path clip-path="url(#SVGID_4_)" fill="#CDCD00" d="M65.5 137.3h-0.9l-1.6-4.6h0.9l0.8 2.5c0.1 0.4 0.3 0.9 0.3 1.1 0.1-0.3 0.2-0.7 0.3-1.1l0.8-2.5h0.9L65.5 137.3z"/>
    <path clip-path="url(#SVGID_4_)" fill="#CDCD00" d="M71.8 135.3h-3c0.1 0.9 0.6 1.3 1.1 1.3 0.4 0 0.7-0.1 1-0.4l0.5 0.6c-0.4 0.4-0.9 0.6-1.6 0.6 -1.1 0-2-0.9-2-2.4 0-1.5 0.8-2.4 2-2.4 1.3 0 1.9 1.1 1.9 2.3C71.8 135.1 71.8 135.2 71.8 135.3M69.8 133.5c-0.6 0-1 0.4-1 1.2h2.1C70.8 134 70.5 133.5 69.8 133.5"/>
    <polygon clip-path="url(#SVGID_4_)" fill="#CDCD00" points="72.9 137.3 72.9 131.4 73.8 131 73.8 137.3 "/>
    <path clip-path="url(#SVGID_4_)" fill="#CDCD00" d="M77 137.4c-1.1 0-2-0.9-2-2.4 0-1.5 0.9-2.4 2-2.4 1.2 0 2 0.9 2 2.4C79.1 136.5 78.2 137.4 77 137.4M77 133.5c-0.7 0-1.1 0.6-1.1 1.5 0 1 0.5 1.6 1.1 1.6s1.1-0.7 1.1-1.5C78.2 134.1 77.7 133.5 77 133.5"/>
    <path clip-path="url(#SVGID_4_)" fill="#CDCD00" d="M82.2 137.4c-0.5 0-0.9-0.2-1.1-0.5v1.6l-0.9 0.5v-6.2h0.9v0.4c0.3-0.3 0.7-0.5 1.2-0.5 1 0 1.8 0.7 1.8 2.5C84 136.7 83.2 137.4 82.2 137.4M82.1 133.5c-0.4 0-0.8 0.3-1 0.6v1.9c0.2 0.3 0.6 0.6 1.1 0.6 0.6 0 1-0.5 1-1.5C83.1 134 82.8 133.5 82.1 133.5"/>
    <path clip-path="url(#SVGID_4_)" fill="#CDCD00" d="M90.4 137.3v-2.6c0-0.9-0.3-1.3-0.9-1.3 -0.6 0-0.9 0.4-0.9 1.2v2.7H87.8v-2.6c0-0.9-0.3-1.3-0.9-1.3 -0.6 0-0.9 0.4-0.9 1.2v2.7h-0.9v-4.6h0.9v0.4c0.2-0.3 0.6-0.5 1.1-0.5 0.6 0 1 0.2 1.3 0.7 0.3-0.4 0.7-0.7 1.4-0.7 1.1 0 1.6 0.7 1.6 2v2.6H90.4z"/>
    <path clip-path="url(#SVGID_4_)" fill="#CDCD00" d="M96.3 135.3H93.3c0.1 0.9 0.6 1.3 1.2 1.3 0.4 0 0.7-0.1 1-0.4l0.5 0.6c-0.4 0.4-0.9 0.6-1.6 0.6 -1.1 0-2-0.9-2-2.4 0-1.5 0.8-2.4 2-2.4 1.3 0 1.9 1.1 1.9 2.3C96.3 135.1 96.3 135.2 96.3 135.3M94.4 133.5c-0.6 0-1 0.4-1 1.2h2.1C95.4 134 95.1 133.5 94.4 133.5"/>
    <path clip-path="url(#SVGID_4_)" fill="#CDCD00" d="M100.2 137.3v-2.6c0-0.9-0.3-1.3-0.9-1.3 -0.6 0-0.9 0.4-0.9 1.2v2.7h-0.9v-4.6h0.9v0.4c0.2-0.3 0.7-0.5 1.1-0.5 1.1 0 1.6 0.7 1.6 2v2.6H100.2z"/>
    <path clip-path="url(#SVGID_4_)" fill="#CDCD00" d="M104.6 137.2c-0.2 0.1-0.5 0.2-0.9 0.2 -0.6 0-1-0.4-1-1.2v-2.6h-0.7v-0.8h0.7v-1.3l0.9-0.5v1.8h1.1v0.8h-1.1v2.5c0 0.4 0.1 0.5 0.5 0.5 0.2 0 0.5-0.1 0.7-0.2L104.6 137.2z"/>
    <path clip-path="url(#SVGID_4_)" fill="#CDCD00" d="M112 135.3h-3c0.1 0.9 0.6 1.3 1.1 1.3 0.4 0 0.7-0.1 1-0.4l0.5 0.6c-0.4 0.4-0.9 0.6-1.6 0.6 -1.1 0-2-0.9-2-2.4 0-1.5 0.8-2.4 2-2.4 1.3 0 1.9 1.1 1.9 2.3C112 135.1 112 135.2 112 135.3M110 133.5c-0.6 0-1 0.4-1 1.2h2.1C111 134 110.7 133.5 110 133.5"/>
    <path clip-path="url(#SVGID_4_)" fill="#CDCD00" d="M115.8 137.3v-0.4c-0.2 0.3-0.7 0.5-1.1 0.5 -1.1 0-1.6-0.7-1.6-2v-2.6h0.9v2.6c0 0.9 0.3 1.3 0.9 1.3 0.6 0 0.9-0.4 0.9-1.2v-2.7h0.9v4.6H115.8z"/>
    <path clip-path="url(#SVGID_4_)" fill="#CDCD00" d="M120.5 133.7c-0.2-0.1-0.4-0.2-0.7-0.2 -0.6 0-0.9 0.4-0.9 1.2v2.6h-0.9v-4.6h0.9v0.4c0.2-0.3 0.6-0.5 1-0.5 0.4 0 0.6 0.1 0.8 0.2L120.5 133.7z"/>
    <path clip-path="url(#SVGID_4_)" fill="#CDCD00" d="M123.5 137.4c-1.1 0-2-0.9-2-2.4 0-1.5 0.9-2.4 2-2.4 1.2 0 2 0.9 2 2.4C125.6 136.5 124.7 137.4 123.5 137.4M123.5 133.5c-0.7 0-1.1 0.6-1.1 1.5 0 1 0.5 1.6 1.1 1.6 0.7 0 1.1-0.7 1.1-1.5C124.6 134.1 124.2 133.5 123.5 133.5"/>
    <path clip-path="url(#SVGID_4_)" fill="#CDCD00" d="M128.7 137.4c-0.5 0-0.9-0.2-1.1-0.5v1.6l-0.9 0.5v-6.2h0.9v0.4c0.3-0.3 0.7-0.5 1.2-0.5 1 0 1.8 0.7 1.8 2.5C130.5 136.7 129.6 137.4 128.7 137.4M128.6 133.5c-0.4 0-0.8 0.3-1 0.6v1.9c0.2 0.3 0.6 0.6 1.1 0.6 0.6 0 1-0.5 1-1.5C129.6 134 129.2 133.5 128.6 133.5"/>
    <path clip-path="url(#SVGID_4_)" fill="#CDCD00" d="M135.3 135.3h-3c0.1 0.9 0.6 1.3 1.1 1.3 0.4 0 0.7-0.1 1-0.4l0.5 0.6c-0.4 0.4-0.9 0.6-1.6 0.6 -1.1 0-2-0.9-2-2.4 0-1.5 0.8-2.4 2-2.4 1.3 0 1.9 1.1 1.9 2.3C135.3 135.1 135.3 135.2 135.3 135.3M133.3 133.5c-0.6 0-1 0.4-1 1.2h2.1C134.4 134 134.1 133.5 133.3 133.5"/>
    <g opacity="0.5" clip-path="url(#SVGID_4_)">
      <defs>
        <rect id="SVGID_5_" x="101.1" y="5.3" width="53" height="42"/>
      </defs>
      <clipPath id="SVGID_6_">
        <use xlink:href="#SVGID_5_" overflow="visible"/>
      </clipPath>
      <path clip-path="url(#SVGID_6_)" fill="#72797F" d="M106.8 31.5c-0.4-0.4-1-0.7-1.6-0.8l0.3 0.3c0.4 0.4 1 0.7 1.6 0.8L106.8 31.5z"/>
      <path clip-path="url(#SVGID_6_)" fill="#72797F" d="M115.8 39.4l-1.1 1.1 1.1 1.1c1.1 1.1 2.9 1.1 4 0l1.1-1.1 -1.1-1.1C118.7 38.2 116.9 38.2 115.8 39.4"/>
      <path clip-path="url(#SVGID_6_)" fill="#72797F" d="M122.3 32.8c-0.7 1.1-0.6 2.6 0.4 3.5l1.1 1.1c0.7-1.1 0.6-2.6-0.4-3.5L122.3 32.8z"/>
      <path clip-path="url(#SVGID_6_)" fill="#72797F" d="M134.3 35.9c-0.9-0.2-1.9 0.1-2.6 0.8l-3.6 3.6c-0.1 0.2-0.3 0.3-0.4 0.5 0.9 0.2 1.9-0.1 2.6-0.8l3.6-3.6C134.1 36.2 134.2 36 134.3 35.9"/>
      <path clip-path="url(#SVGID_6_)" fill="#72797F" d="M131.3 29.7c-0.3 1 0 2 0.7 2.8l2.6 2.6c0.3-1 0-2-0.7-2.8L131.3 29.7z"/>
      <path clip-path="url(#SVGID_6_)" fill="#72797F" d="M128.9 28c-0.9-0.2-1.9 0.1-2.5 0.8l-3.6 3.6c0 0 0 0 0 0 0.9 0.2 1.9-0.1 2.5-0.8l3.6-3.6C128.8 28 128.8 28 128.9 28"/>
      <path clip-path="url(#SVGID_6_)" fill="#72797F" d="M121.2 20.4l-2.2 2.2 2.2 2.2c1.1 1.1 2.9 1.1 4 0l2.2-2.2 -2.2-2.2C124.1 19.3 122.3 19.3 121.2 20.4"/>
      <path clip-path="url(#SVGID_6_)" fill="#72797F" d="M121.1 13.5l-3.5 3.5c-1.1 1.1-1.1 2.9 0 4l0.8 0.8 3.5-3.5c1.1-1.1 1.1-2.9 0-4L121.1 13.5z"/>
      <path clip-path="url(#SVGID_6_)" fill="#72797F" d="M116.4 12.9l2-2 -0.2-0.2c-1.1-1.1-2.9-1.1-4 0l-2 2 0.2 0.2C113.5 14 115.3 14 116.4 12.9"/>
      <path clip-path="url(#SVGID_6_)" fill="#72797F" d="M120 5.3c-0.9 1.1-0.8 2.7 0.2 3.7l0 0c0.9-1.1 0.8-2.7-0.2-3.7L120 5.3z"/>
      <path clip-path="url(#SVGID_6_)" fill="#72797F" d="M128.8 17.1l-2.5-2.5 -0.4 0.4c-1.1 1.1-1.1 2.9 0 4l2.5 2.5 0.4-0.4C129.9 20 129.9 18.2 128.8 17.1"/>
      <path clip-path="url(#SVGID_6_)" fill="#72797F" d="M137.3 14.9l-1-1 -2.2 2.2c-1.1 1.1-1.1 2.9 0 4l1 1 2.2-2.2C138.4 17.8 138.4 16 137.3 14.9"/>
      <path clip-path="url(#SVGID_6_)" fill="#72797F" d="M143.3 28.5l-1-1 -0.7 0.7c-1.1 1.1-1.1 2.9 0 4l1 1 0.7-0.7C144.4 31.4 144.4 29.6 143.3 28.5"/>
      <path clip-path="url(#SVGID_6_)" fill="#72797F" d="M149.3 24.6c-0.9-0.9-2.1-1-3.2-0.6l3.4 3.4c0.9 0.9 2.1 1 3.2 0.6L149.3 24.6z"/>
      <path clip-path="url(#SVGID_6_)" fill="#72797F" d="M153.5 17.2l0.5-0.5 -0.5-0.5c-1.1-1.1-2.9-1.1-4 0l-0.5 0.5 0.5 0.5C150.6 18.3 152.4 18.3 153.5 17.2"/>
      <path clip-path="url(#SVGID_6_)" fill="#72797F" d="M137.8 12.5l-1 1 2.5 2.5c1.1 1.1 2.9 1.1 4 0l1-1 -2.5-2.5C140.7 11.4 138.9 11.4 137.8 12.5"/>
      <path clip-path="url(#SVGID_6_)" fill="#72797F" d="M145.8 13.5l1.1-1.1c1.1-1.1 1.1-2.8 0-4l-1.1 1.1C144.8 10.6 144.8 12.4 145.8 13.5"/>
      <path clip-path="url(#SVGID_6_)" fill="#72797F" d="M136.4 47.2l2.9-2.9c0.7-0.7 1-1.8 0.7-2.7l-2.9 2.9C136.4 45.2 136.2 46.3 136.4 47.2"/>
      <path clip-path="url(#SVGID_6_)" fill="#72797F" d="M101.7 27.1l1.2-1.2c1-1 1.1-2.6 0.2-3.7l-1.2 1.2C100.9 24.4 100.8 26 101.7 27.1"/>
    </g>
    <path clip-path="url(#SVGID_4_)" fill="#B8B800" d="M135.7 225.1c-1.1-1.1-2.9-1.1-4 0l-3.6 3.6c-1.1 1.1-1.1 2.9 0 4l3.6 3.6c1.1 1.1 2.9 1.1 4 0l3.6-3.6c1.1-1.1 1.1-2.9 0-4L135.7 225.1z"/>
    <path clip-path="url(#SVGID_4_)" fill="#B8B800" d="M144.8 229.4c-1.1-1.1-2.9-1.1-4 0l-3.6 3.6c-1.1 1.1-1.1 2.9 0 4l3.6 3.6c1.1 1.1 2.9 1.1 4 0l3.6-3.6c1.1-1.1 1.1-2.9 0-4L144.8 229.4z"/>
    <path clip-path="url(#SVGID_4_)" fill="#B8B800" d="M83.3 259.2c-1.1-1.1-2.9-1.1-4 0l-3.6 3.6c-1.1 1.1-1.1 2.9 0 4l3.6 3.6c1.1 1.1 2.9 1.1 4 0l3.6-3.6c1.1-1.1 1.1-2.9 0-4L83.3 259.2z"/>
    <path clip-path="url(#SVGID_4_)" fill="#B8B800" d="M95 247.4c-1.1-1.1-2.9-1.1-4 0l-3.6 3.6c-1.1 1.1-1.1 2.9 0 4l3.6 3.6c1.1 1.1 2.9 1.1 4 0l3.6-3.6c1.1-1.1 1.1-2.9 0-4L95 247.4z"/>
    <path clip-path="url(#SVGID_4_)" fill="#B8B800" d="M83.6 242.6c-1.1-1.1-2.9-1.1-4 0l-3.6 3.6c-1.1 1.1-1.1 2.9 0 4l3.6 3.6c1.1 1.1 2.9 1.1 4 0l3.6-3.6c1.1-1.1 1.1-2.9 0-4L83.6 242.6z"/>
    <path clip-path="url(#SVGID_4_)" fill="#B8B800" d="M98.4 233c-1.1-1.1-2.9-1.1-4 0l-3.6 3.6c-1.1 1.1-1.1 2.9 0 4l3.6 3.6c1.1 1.1 2.9 1.1 4 0l3.6-3.6c1.1-1.1 1.1-2.9 0-4L98.4 233z"/>
    <path clip-path="url(#SVGID_4_)" fill="#B8B800" d="M110.1 236.9c-1.1-1.1-2.9-1.1-4 0l-3.6 3.6c-1.1 1.1-1.1 2.9 0 4l3.6 3.6c1.1 1.1 2.9 1.1 4 0l3.6-3.6c1.1-1.1 1.1-2.9 0-4L110.1 236.9z"/>
    <path clip-path="url(#SVGID_4_)" fill="#B8B800" d="M106.8 220c-1.1-1.1-2.9-1.1-4 0l-3.6 3.6c-1.1 1.1-1.1 2.9 0 4l3.6 3.6c1.1 1.1 2.9 1.1 4 0l3.6-3.6c1.1-1.1 1.1-2.9 0-4L106.8 220z"/>
    <path clip-path="url(#SVGID_4_)" fill="#B8B800" d="M126.1 239.9c-1.1-1.1-2.9-1.1-4 0l-3.6 3.6c-1.1 1.1-1.1 2.9 0 4l3.6 3.6c1.1 1.1 2.9 1.1 4 0l3.6-3.6c1.1-1.1 1.1-2.9 0-4L126.1 239.9z"/>
    <path clip-path="url(#SVGID_4_)" fill="#B8B800" d="M119.8 227.9c-1.1-1.1-2.9-1.1-4 0l-3.6 3.6c-1.1 1.1-1.1 2.9 0 4l3.6 3.6c1.1 1.1 2.9 1.1 4 0l3.6-3.6c1.1-1.1 1.1-2.9 0-4L119.8 227.9z"/>
    <path clip-path="url(#SVGID_4_)" fill="#B8B800" d="M119.8 218.8c-1.1-1.1-2.9-1.1-4 0l-3.6 3.6c-1.1 1.1-1.1 2.9 0 4l3.6 3.6c1.1 1.1 2.9 1.1 4 0l3.6-3.6c1.1-1.1 1.1-2.9 0-4L119.8 218.8z"/>
    <path clip-path="url(#SVGID_4_)" fill="#B8B800" d="M130.3 217.2c-1.1-1.1-2.9-1.1-4 0l-3.6 3.6c-1.1 1.1-1.1 2.9 0 4l3.6 3.6c1.1 1.1 2.9 1.1 4 0l3.6-3.6c1.1-1.1 1.1-2.9 0-4L130.3 217.2z"/>
    <path clip-path="url(#SVGID_4_)" fill="#B8B800" d="M139.7 213.4c-1.1-1.1-2.9-1.1-4 0l-3.6 3.6c-1.1 1.1-1.1 2.9 0 4l3.6 3.6c1.1 1.1 2.9 1.1 4 0l3.6-3.6c1.1-1.1 1.1-2.9 0-4L139.7 213.4z"/>
    <path clip-path="url(#SVGID_4_)" fill="#B8B800" d="M125.2 208.9c-1.1-1.1-2.9-1.1-4 0l-3.6 3.6c-1.1 1.1-1.1 2.9 0 4l3.6 3.6c1.1 1.1 2.9 1.1 4 0l3.6-3.6c1.1-1.1 1.1-2.9 0-4L125.2 208.9z"/>
    <path clip-path="url(#SVGID_4_)" fill="#B8B800" d="M125.2 201.9c-1.1-1.1-2.9-1.1-4 0l-3.6 3.6c-1.1 1.1-1.1 2.9 0 4l3.6 3.6c1.1 1.1 2.9 1.1 4 0l3.6-3.6c1.1-1.1 1.1-2.9 0-4L125.2 201.9z"/>
    <path clip-path="url(#SVGID_4_)" fill="#B8B800" d="M118.3 199.2c-1.1-1.1-2.9-1.1-4 0l-3.6 3.6c-1.1 1.1-1.1 2.9 0 4l3.6 3.6c1.1 1.1 2.9 1.1 4 0l3.6-3.6c1.1-1.1 1.1-2.9 0-4L118.3 199.2z"/>
    <path clip-path="url(#SVGID_4_)" fill="#B8B800" d="M116.4 190.2c-1.1-1.1-2.9-1.1-4 0l-3.6 3.6c-1.1 1.1-1.1 2.9 0 4l3.6 3.6c1.1 1.1 2.9 1.1 4 0l3.6-3.6c1.1-1.1 1.1-2.9 0-4L116.4 190.2z"/>
    <path clip-path="url(#SVGID_4_)" fill="#B8B800" d="M127.9 189.9c-1.1-1.1-2.9-1.1-4 0l-3.6 3.6c-1.1 1.1-1.1 2.9 0 4l3.6 3.6c1.1 1.1 2.9 1.1 4 0l3.6-3.6c1.1-1.1 1.1-2.9 0-4L127.9 189.9z"/>
    <path clip-path="url(#SVGID_4_)" fill="#B8B800" d="M133.6 199.8c-1.1-1.1-2.9-1.1-4 0l-3.6 3.6c-1.1 1.1-1.1 2.9 0 4l3.6 3.6c1.1 1.1 2.9 1.1 4 0l3.6-3.6c1.1-1.1 1.1-2.9 0-4L133.6 199.8z"/>
    <path clip-path="url(#SVGID_4_)" fill="#B8B800" d="M141.8 201c-1.1-1.1-2.9-1.1-4 0l-3.6 3.6c-1.1 1.1-1.1 2.9 0 4l3.6 3.6c1.1 1.1 2.9 1.1 4 0l3.6-3.6c1.1-1.1 1.1-2.9 0-4L141.8 201z"/>
    <path clip-path="url(#SVGID_4_)" fill="#B8B800" d="M149.3 213.1c-1.1-1.1-2.9-1.1-4 0l-3.6 3.6c-1.1 1.1-1.1 2.9 0 4l3.6 3.6c1.1 1.1 2.9 1.1 4 0l3.6-3.6c1.1-1.1 1.1-2.9 0-4L149.3 213.1z"/>
    <path clip-path="url(#SVGID_4_)" fill="#B8B800" d="M153.5 204.6c-1.1-1.1-2.9-1.1-4 0l-3.6 3.6c-1.1 1.1-1.1 2.9 0 4l3.6 3.6c1.1 1.1 2.9 1.1 4 0l3.6-3.6c1.1-1.1 1.1-2.9 0-4L153.5 204.6z"/>
    <path clip-path="url(#SVGID_4_)" fill="#B8B800" d="M153.5 194.4c-1.1-1.1-2.9-1.1-4 0l-3.6 3.6c-1.1 1.1-1.1 2.9 0 4l3.6 3.6c1.1 1.1 2.9 1.1 4 0l3.6-3.6c1.1-1.1 1.1-2.9 0-4L153.5 194.4z"/>
    <path clip-path="url(#SVGID_4_)" fill="#B8B800" d="M143.3 193.3c-1.1-1.1-2.9-1.1-4 0l-3.6 3.6c-1.1 1.1-1.1 2.9 0 4l3.6 3.6c1.1 1.1 2.9 1.1 4 0l3.6-3.6c1.1-1.1 1.1-2.9 0-4L143.3 193.3z"/>
    <path clip-path="url(#SVGID_4_)" fill="#B8B800" d="M160.8 224.5c-1.1-1.1-2.9-1.1-4 0l-3.6 3.6c-1.1 1.1-1.1 2.9 0 4l3.6 3.6c1.1 1.1 2.9 1.1 4 0l3.6-3.6c1.1-1.1 1.1-2.9 0-4L160.8 224.5z"/>
    <path clip-path="url(#SVGID_4_)" fill="#B8B800" d="M109.5 208.3c-1.1-1.1-2.9-1.1-4 0l-3.6 3.6c-1.1 1.1-1.1 2.9 0 4l3.6 3.6c1.1 1.1 2.9 1.1 4 0l3.6-3.6c1.1-1.1 1.1-2.9 0-4L109.5 208.3z"/>
    <path clip-path="url(#SVGID_4_)" fill="#B8B800" d="M99.3 206.7c-1.1-1.1-2.9-1.1-4 0l-3.6 3.6c-1.1 1.1-1.1 2.9 0 4l3.6 3.6c1.1 1.1 2.9 1.1 4 0l3.6-3.6c1.1-1.1 1.1-2.9 0-4L99.3 206.7z"/>
    <path clip-path="url(#SVGID_4_)" fill="#B8B800" d="M89.6 217c-1.1-1.1-2.9-1.1-4 0l-3.6 3.6c-1.1 1.1-1.1 2.9 0 4l3.6 3.6c1.1 1.1 2.9 1.1 4 0l3.6-3.6c1.1-1.1 1.1-2.9 0-4L89.6 217z"/>
    <path clip-path="url(#SVGID_4_)" fill="#B8B800" d="M110.4 254.4c-1.1-1.1-2.9-1.1-4 0l-3.6 3.6c-1.1 1.1-1.1 2.9 0 4l3.6 3.6c1.1 1.1 2.9 1.1 4 0l3.6-3.6c1.1-1.1 1.1-2.9 0-4L110.4 254.4z"/>
    <path clip-path="url(#SVGID_4_)" fill="#565B5F" d="M197.4 306.4h-28c0.4 6.4 5.2 8.8 9.6 8.8 3.4 0 6.2-1.2 8-3.3l8.7 7.3c-3.7 4.8-10.5 7.6-16.8 7.6 -13.5 0-22-9.5-22-24.4 0-14.4 9-24.4 20.9-24.4 12.5 0 19.7 11.1 19.7 24.4C197.6 304.3 197.5 305.6 197.4 306.4M177.2 288.8c-4.5 0-7.2 3.7-7.7 8.4h16.1C185.3 293 182.8 288.8 177.2 288.8"/>
    <path clip-path="url(#SVGID_4_)" fill="#565B5F" d="M227.6 326.2c-0.8 0-1.6-0.3-2.2-0.7l0.5-0.8c0.5 0.4 1.1 0.6 1.7 0.6 0.7 0 1-0.2 1-0.6 0-0.4-0.5-0.6-1.3-1 -1.2-0.5-1.7-0.9-1.7-1.8 0-1 0.8-1.6 1.9-1.6 0.7 0 1.4 0.3 1.9 0.6l-0.5 0.9c-0.5-0.3-0.9-0.5-1.5-0.5s-0.8 0.2-0.8 0.5c0 0.3 0.2 0.5 1.1 0.8 1.3 0.5 1.9 0.8 1.9 1.9C229.7 325.8 228.7 326.2 227.6 326.2"/>
    <path clip-path="url(#SVGID_4_)" fill="#565B5F" d="M236.3 326.1h-1l-0.8-2.9c-0.1-0.4-0.2-0.9-0.3-1.2 -0.1 0.3-0.2 0.8-0.3 1.2l-0.8 2.9h-1l-1.6-5.7h1.1l0.7 2.8c0.1 0.4 0.2 1 0.3 1.2 0.1-0.3 0.2-0.8 0.3-1.2l0.8-2.8h0.9l0.8 2.8c0.1 0.4 0.2 1 0.3 1.2 0.1-0.3 0.2-0.8 0.3-1.2l0.7-2.8h1.1L236.3 326.1z"/>
    <path clip-path="url(#SVGID_4_)" fill="#565B5F" d="M239.8 319.7c-0.4 0-0.7-0.3-0.7-0.7 0-0.4 0.3-0.7 0.7-0.7 0.4 0 0.7 0.3 0.7 0.7C240.5 319.3 240.2 319.7 239.8 319.7M239.2 320.4h1.1v5.7h-1.1V320.4z"/>
    <path clip-path="url(#SVGID_4_)" fill="#565B5F" d="M244.8 326c-0.3 0.2-0.6 0.3-1.1 0.3 -0.8 0-1.3-0.5-1.3-1.5v-3.3h-0.8v-1h0.8v-1.6l1.1-0.6v2.2h1.4v1h-1.4v3.1c0 0.5 0.2 0.7 0.6 0.7 0.3 0 0.6-0.1 0.8-0.2L244.8 326z"/>
    <path clip-path="url(#SVGID_4_)" fill="#565B5F" d="M246.2 326.1v-0.9l2.4-3c0.2-0.3 0.5-0.7 0.7-0.8 -0.2 0-0.7 0-1 0h-1.9v-1h4.2v0.9l-2.4 3c-0.2 0.3-0.5 0.7-0.7 0.8 0.2 0 0.8 0 1 0h2v1H246.2z"/>
    <path clip-path="url(#SVGID_4_)" fill="#565B5F" d="M256.7 323.7h-3.8c0.1 1.1 0.7 1.6 1.4 1.6 0.5 0 0.9-0.2 1.2-0.5l0.7 0.7c-0.5 0.5-1.1 0.8-2 0.8 -1.3 0-2.5-1.1-2.5-3 0-1.9 1-3 2.5-3 1.6 0 2.4 1.3 2.4 2.9C256.8 323.3 256.8 323.5 256.7 323.7M254.3 321.3c-0.7 0-1.2 0.5-1.3 1.4h2.6C255.6 321.9 255.2 321.3 254.3 321.3"/>
    <path clip-path="url(#SVGID_4_)" fill="#565B5F" d="M261.3 321.6c-0.2-0.1-0.5-0.2-0.9-0.2 -0.7 0-1.1 0.5-1.1 1.5v3.3h-1.1v-5.7h1.1v0.5c0.3-0.4 0.7-0.7 1.3-0.7 0.5 0 0.7 0.1 1 0.2L261.3 321.6z"/>
    <polygon clip-path="url(#SVGID_4_)" fill="#565B5F" points="262.8 326.1 262.8 318.8 263.9 318.2 263.9 326.1 "/>
    <path clip-path="url(#SVGID_4_)" fill="#565B5F" d="M268.8 326.1v-0.6c-0.4 0.4-0.9 0.7-1.6 0.7 -0.9 0-2-0.5-2-1.9 0-1.3 1-1.8 2.3-1.8 0.5 0 1 0.1 1.3 0.2v-0.4c0-0.6-0.4-1-1.1-1 -0.6 0-1 0.1-1.5 0.4l-0.4-0.8c0.5-0.3 1.2-0.5 2-0.5 1.3 0 2.1 0.6 2.1 1.9v3.9H268.8zM268.8 323.7c-0.3-0.1-0.7-0.2-1.3-0.2 -0.7 0-1.2 0.3-1.2 0.8 0 0.6 0.4 0.9 1.1 0.9 0.6 0 1.1-0.4 1.4-0.7V323.7z"/>
    <path clip-path="url(#SVGID_4_)" fill="#565B5F" d="M275 326.1v-3.2c0-1.2-0.4-1.6-1.2-1.6 -0.7 0-1.2 0.5-1.2 1.5v3.3h-1.1v-5.7h1.1v0.5c0.3-0.4 0.8-0.7 1.4-0.7 1.3 0 2 0.9 2 2.5v3.3H275z"/>
    <path clip-path="url(#SVGID_4_)" fill="#565B5F" d="M281.2 326.1v-0.5c-0.4 0.4-0.9 0.7-1.5 0.7 -1.2 0-2.2-0.9-2.2-3.1 0-2 1.1-2.9 2.2-2.9 0.6 0 1.1 0.3 1.4 0.6v-2.2l1.1-0.6v7.9H281.2zM281.2 322.1c-0.2-0.3-0.8-0.7-1.3-0.7 -0.8 0-1.2 0.6-1.2 1.8 0 1.4 0.5 2.1 1.3 2.1 0.5 0 1-0.4 1.3-0.7V322.1z"/>
    <path clip-path="url(#SVGID_4_)" fill="#B8B800" d="M213.8 315c-1.1-1.1-2.9-1.1-4 0l-3.6 3.6c-1.1 1.1-1.1 2.9 0 4l3.6 3.6c1.1 1.1 2.9 1.1 4 0l3.6-3.6c1.1-1.1 1.1-2.9 0-4L213.8 315z"/>
    <path clip-path="url(#SVGID_4_)" fill="#565B5F" d="M75.6 318h12.3v-38.9h-12.3V318zM46.3 296.4c-0.8 3.6-1.9 8.5-2.2 10.7 -0.4-2.3-1.5-7-2.5-10.7l-4.6-17.3h-10.2l-4.6 17.3c-1 3.7-2.1 8.4-2.5 10.7 -0.4-2.2-1.4-7.1-2.2-10.7l-4.1-17.3H0.8l11.2 38.9h14.5l2.6-10.5c0.9-3.7 2.1-8.8 2.5-11.1 0.4 2.2 1.6 7.4 2.5 11.1l2.6 10.5H51.3l11.2-38.9H50.4L46.3 296.4zM130.5 267v14.7c-2.2-2.1-5.8-3.7-9.9-3.7 -11.6 0-18.2 9.8-18.2 23.8 0 6.9 1.3 12.1 3.4 16.1h29c1.8 0 3.3 1.5 3.3 3.3v3.5c0 0.4 0 1.2 0 1.2h4.7v-65L130.5 267zM130.5 311.4c-1.8 2.3-3.7 3.9-7.6 3.9 -4.8 0-8-4-8-13.6 0-7.8 2.6-12 7.3-12 3.6 0 6.4 1.4 8.3 4V311.4z"/>
    <path clip-path="url(#SVGID_4_)" fill="#B8B800" d="M17.1 325.8h-0.8l-0.6-2.3c-0.1-0.3-0.2-0.8-0.2-1 0 0.2-0.1 0.6-0.2 1l-0.6 2.3h-0.8l-1.3-4.6h0.9l0.5 2.2c0.1 0.3 0.2 0.8 0.2 1 0.1-0.2 0.2-0.6 0.3-1l0.6-2.2h0.7l0.6 2.2c0.1 0.4 0.2 0.8 0.2 1 0.1-0.2 0.1-0.7 0.2-1l0.5-2.2h0.9L17.1 325.8z"/>
    <path clip-path="url(#SVGID_4_)" fill="#B8B800" d="M21.2 325.9c-1.1 0-2-0.9-2-2.4 0-1.5 0.9-2.4 2-2.4 1.2 0 2 0.9 2 2.4C23.2 325 22.3 325.9 21.2 325.9M21.2 322c-0.7 0-1.1 0.6-1.1 1.5 0 1 0.5 1.6 1.1 1.6 0.7 0 1.1-0.7 1.1-1.5C22.3 322.6 21.9 322 21.2 322"/>
    <path clip-path="url(#SVGID_4_)" fill="#B8B800" d="M29.6 325.8v-2.6c0-0.9-0.3-1.3-0.9-1.3 -0.6 0-0.9 0.4-0.9 1.2v2.7h-0.9v-2.6c0-0.9-0.3-1.3-0.9-1.3 -0.6 0-0.9 0.4-0.9 1.2v2.7H24.3v-4.6h0.9v0.4c0.2-0.3 0.6-0.5 1.1-0.5 0.6 0 1 0.2 1.3 0.7 0.3-0.4 0.7-0.7 1.4-0.7 1.1 0 1.6 0.7 1.6 2v2.6H29.6z"/>
    <path clip-path="url(#SVGID_4_)" fill="#B8B800" d="M35.5 323.8h-3c0.1 0.9 0.6 1.3 1.1 1.3 0.4 0 0.7-0.1 1-0.4l0.5 0.6c-0.4 0.4-0.9 0.6-1.6 0.6 -1.1 0-2-0.9-2-2.4 0-1.5 0.8-2.4 2-2.4 1.3 0 1.9 1.1 1.9 2.3C35.5 323.6 35.5 323.7 35.5 323.8M33.5 322c-0.6 0-1 0.4-1 1.2h2.1C34.6 322.5 34.3 322 33.5 322"/>
    <path clip-path="url(#SVGID_4_)" fill="#B8B800" d="M39.4 325.8v-2.6c0-0.9-0.3-1.3-0.9-1.3 -0.6 0-0.9 0.4-0.9 1.2v2.7h-0.9v-4.6h0.9v0.4c0.2-0.3 0.7-0.5 1.1-0.5 1.1 0 1.6 0.7 1.6 2v2.6H39.4z"/>
    <path clip-path="url(#SVGID_4_)" fill="#B8B800" d="M44.5 320.6c-0.3 0-0.6-0.3-0.6-0.6 0-0.3 0.3-0.6 0.6-0.6 0.3 0 0.6 0.3 0.6 0.6C45 320.4 44.8 320.6 44.5 320.6M44 321.2H44.9v4.6h-0.9V321.2z"/>
    <path clip-path="url(#SVGID_4_)" fill="#B8B800" d="M49 325.8v-2.6c0-0.9-0.3-1.3-0.9-1.3 -0.6 0-0.9 0.4-0.9 1.2v2.7h-0.9v-4.6h0.9v0.4c0.2-0.3 0.7-0.5 1.1-0.5 1.1 0 1.6 0.7 1.6 2v2.6H49z"/>
    <path clip-path="url(#SVGID_4_)" fill="#B8B800" d="M56.3 325.8v-0.4c-0.3 0.3-0.7 0.5-1.2 0.5 -1 0-1.8-0.7-1.8-2.5 0-1.6 0.9-2.3 1.8-2.3 0.5 0 0.9 0.2 1.1 0.5v-1.7l0.9-0.5v6.3H56.3zM56.3 322.6c-0.2-0.3-0.6-0.6-1.1-0.6 -0.6 0-1 0.5-1 1.5 0 1.1 0.4 1.7 1 1.7 0.4 0 0.8-0.3 1-0.6V322.6z"/>
    <path clip-path="url(#SVGID_4_)" fill="#B8B800" d="M62.2 323.8h-3c0.1 0.9 0.6 1.3 1.1 1.3 0.4 0 0.7-0.1 1-0.4l0.5 0.6c-0.4 0.4-0.9 0.6-1.6 0.6 -1.1 0-2-0.9-2-2.4 0-1.5 0.8-2.4 2-2.4 1.3 0 1.9 1.1 1.9 2.3C62.3 323.6 62.2 323.7 62.2 323.8M60.3 322c-0.6 0-1 0.4-1 1.2h2.1C61.3 322.5 61 322 60.3 322"/>
    <path clip-path="url(#SVGID_4_)" fill="#B8B800" d="M65.5 325.8h-0.9l-1.6-4.6h0.9l0.8 2.5c0.1 0.4 0.3 0.9 0.3 1.1 0.1-0.3 0.2-0.7 0.3-1.1l0.8-2.5h0.9L65.5 325.8z"/>
    <path clip-path="url(#SVGID_4_)" fill="#B8B800" d="M71.8 323.8h-3c0.1 0.9 0.6 1.3 1.1 1.3 0.4 0 0.7-0.1 1-0.4l0.5 0.6c-0.4 0.4-0.9 0.6-1.6 0.6 -1.1 0-2-0.9-2-2.4 0-1.5 0.8-2.4 2-2.4 1.3 0 1.9 1.1 1.9 2.3C71.8 323.6 71.8 323.7 71.8 323.8M69.8 322c-0.6 0-1 0.4-1 1.2h2.1C70.8 322.5 70.5 322 69.8 322"/>
    <polygon clip-path="url(#SVGID_4_)" fill="#B8B800" points="72.9 325.8 72.9 319.9 73.8 319.5 73.8 325.8 "/>
    <path clip-path="url(#SVGID_4_)" fill="#B8B800" d="M77 325.9c-1.1 0-2-0.9-2-2.4 0-1.5 0.9-2.4 2-2.4 1.2 0 2 0.9 2 2.4C79.1 325 78.2 325.9 77 325.9M77 322c-0.7 0-1.1 0.6-1.1 1.5 0 1 0.5 1.6 1.1 1.6s1.1-0.7 1.1-1.5C78.2 322.6 77.7 322 77 322"/>
    <path clip-path="url(#SVGID_4_)" fill="#B8B800" d="M82.2 325.9c-0.5 0-0.9-0.2-1.1-0.5v1.6l-0.9 0.5v-6.2h0.9v0.4c0.3-0.3 0.7-0.5 1.2-0.5 1 0 1.8 0.7 1.8 2.5C84 325.2 83.2 325.9 82.2 325.9M82.1 322c-0.4 0-0.8 0.3-1 0.6v1.9c0.2 0.3 0.6 0.6 1.1 0.6 0.6 0 1-0.5 1-1.5C83.1 322.5 82.8 322 82.1 322"/>
    <path clip-path="url(#SVGID_4_)" fill="#B8B800" d="M90.4 325.8v-2.6c0-0.9-0.3-1.3-0.9-1.3 -0.6 0-0.9 0.4-0.9 1.2v2.7H87.8v-2.6c0-0.9-0.3-1.3-0.9-1.3 -0.6 0-0.9 0.4-0.9 1.2v2.7h-0.9v-4.6h0.9v0.4c0.2-0.3 0.6-0.5 1.1-0.5 0.6 0 1 0.2 1.3 0.7 0.3-0.4 0.7-0.7 1.4-0.7 1.1 0 1.6 0.7 1.6 2v2.6H90.4z"/>
    <path clip-path="url(#SVGID_4_)" fill="#B8B800" d="M96.3 323.8H93.3c0.1 0.9 0.6 1.3 1.2 1.3 0.4 0 0.7-0.1 1-0.4l0.5 0.6c-0.4 0.4-0.9 0.6-1.6 0.6 -1.1 0-2-0.9-2-2.4 0-1.5 0.8-2.4 2-2.4 1.3 0 1.9 1.1 1.9 2.3C96.3 323.6 96.3 323.7 96.3 323.8M94.4 322c-0.6 0-1 0.4-1 1.2h2.1C95.4 322.5 95.1 322 94.4 322"/>
    <path clip-path="url(#SVGID_4_)" fill="#B8B800" d="M100.2 325.8v-2.6c0-0.9-0.3-1.3-0.9-1.3 -0.6 0-0.9 0.4-0.9 1.2v2.7h-0.9v-4.6h0.9v0.4c0.2-0.3 0.7-0.5 1.1-0.5 1.1 0 1.6 0.7 1.6 2v2.6H100.2z"/>
    <path clip-path="url(#SVGID_4_)" fill="#B8B800" d="M104.6 325.7c-0.2 0.1-0.5 0.2-0.9 0.2 -0.6 0-1-0.4-1-1.2v-2.6h-0.7v-0.8h0.7v-1.3l0.9-0.5v1.8h1.1v0.8h-1.1v2.5c0 0.4 0.1 0.5 0.5 0.5 0.2 0 0.5-0.1 0.7-0.2L104.6 325.7z"/>
    <path clip-path="url(#SVGID_4_)" fill="#B8B800" d="M112 323.8h-3c0.1 0.9 0.6 1.3 1.1 1.3 0.4 0 0.7-0.1 1-0.4l0.5 0.6c-0.4 0.4-0.9 0.6-1.6 0.6 -1.1 0-2-0.9-2-2.4 0-1.5 0.8-2.4 2-2.4 1.3 0 1.9 1.1 1.9 2.3C112 323.6 112 323.7 112 323.8M110 322c-0.6 0-1 0.4-1 1.2h2.1C111 322.5 110.7 322 110 322"/>
    <path clip-path="url(#SVGID_4_)" fill="#B8B800" d="M115.8 325.8v-0.4c-0.2 0.3-0.7 0.5-1.1 0.5 -1.1 0-1.6-0.7-1.6-2v-2.6h0.9v2.6c0 0.9 0.3 1.3 0.9 1.3 0.6 0 0.9-0.4 0.9-1.2v-2.7h0.9v4.6H115.8z"/>
    <path clip-path="url(#SVGID_4_)" fill="#B8B800" d="M120.5 322.2c-0.2-0.1-0.4-0.2-0.7-0.2 -0.6 0-0.9 0.4-0.9 1.2v2.6h-0.9v-4.6h0.9v0.4c0.2-0.3 0.6-0.5 1-0.5 0.4 0 0.6 0.1 0.8 0.2L120.5 322.2z"/>
    <path clip-path="url(#SVGID_4_)" fill="#B8B800" d="M123.5 325.9c-1.1 0-2-0.9-2-2.4 0-1.5 0.9-2.4 2-2.4 1.2 0 2 0.9 2 2.4C125.6 325 124.7 325.9 123.5 325.9M123.5 322c-0.7 0-1.1 0.6-1.1 1.5 0 1 0.5 1.6 1.1 1.6 0.7 0 1.1-0.7 1.1-1.5C124.6 322.6 124.2 322 123.5 322"/>
    <path clip-path="url(#SVGID_4_)" fill="#B8B800" d="M128.7 325.9c-0.5 0-0.9-0.2-1.1-0.5v1.6l-0.9 0.5v-6.2h0.9v0.4c0.3-0.3 0.7-0.5 1.2-0.5 1 0 1.8 0.7 1.8 2.5C130.5 325.2 129.6 325.9 128.7 325.9M128.6 322c-0.4 0-0.8 0.3-1 0.6v1.9c0.2 0.3 0.6 0.6 1.1 0.6 0.6 0 1-0.5 1-1.5C129.6 322.5 129.2 322 128.6 322"/>
    <path clip-path="url(#SVGID_4_)" fill="#B8B800" d="M135.3 323.8h-3c0.1 0.9 0.6 1.3 1.1 1.3 0.4 0 0.7-0.1 1-0.4l0.5 0.6c-0.4 0.4-0.9 0.6-1.6 0.6 -1.1 0-2-0.9-2-2.4 0-1.5 0.8-2.4 2-2.4 1.3 0 1.9 1.1 1.9 2.3C135.3 323.6 135.3 323.7 135.3 323.8M133.3 322c-0.6 0-1 0.4-1 1.2h2.1C134.4 322.5 134.1 322 133.3 322"/>
    <path clip-path="url(#SVGID_4_)" fill="#9E9E00" d="M106.8 220c-0.4-0.4-1-0.7-1.6-0.8l0.3 0.3c0.4 0.4 1 0.7 1.6 0.8L106.8 220z"/>
    <path clip-path="url(#SVGID_4_)" fill="#9E9E00" d="M115.8 227.9l-1.1 1.1 1.1 1.1c1.1 1.1 2.9 1.1 4 0l1.1-1.1 -1.1-1.1C118.7 226.7 116.9 226.7 115.8 227.9"/>
    <path clip-path="url(#SVGID_4_)" fill="#9E9E00" d="M122.3 221.3c-0.7 1.1-0.6 2.6 0.4 3.5l1.1 1.1c0.7-1.1 0.6-2.6-0.4-3.5L122.3 221.3z"/>
    <path clip-path="url(#SVGID_4_)" fill="#9E9E00" d="M134.3 224.4c-0.9-0.2-1.9 0.1-2.6 0.8l-3.6 3.6c-0.1 0.2-0.3 0.3-0.4 0.5 0.9 0.2 1.9-0.1 2.6-0.8l3.6-3.6C134.1 224.7 134.2 224.5 134.3 224.4"/>
    <path clip-path="url(#SVGID_4_)" fill="#9E9E00" d="M131.3 218.2c-0.3 1 0 2 0.7 2.8l2.6 2.6c0.3-1 0-2-0.7-2.8L131.3 218.2z"/>
    <path clip-path="url(#SVGID_4_)" fill="#9E9E00" d="M128.9 216.5c-0.9-0.2-1.9 0.1-2.5 0.8l-3.6 3.6c0 0 0 0 0 0 0.9 0.2 1.9-0.1 2.5-0.8l3.6-3.6C128.8 216.5 128.8 216.5 128.9 216.5"/>
    <path clip-path="url(#SVGID_4_)" fill="#9E9E00" d="M121.2 208.9l-2.2 2.2 2.2 2.2c1.1 1.1 2.9 1.1 4 0l2.2-2.2 -2.2-2.2C124.1 207.8 122.3 207.8 121.2 208.9"/>
    <path clip-path="url(#SVGID_4_)" fill="#9E9E00" d="M121.1 202l-3.5 3.5c-1.1 1.1-1.1 2.9 0 4l0.8 0.8 3.5-3.5c1.1-1.1 1.1-2.9 0-4L121.1 202z"/>
    <path clip-path="url(#SVGID_4_)" fill="#9E9E00" d="M116.4 201.4l2-2 -0.2-0.2c-1.1-1.1-2.9-1.1-4 0l-2 2 0.2 0.2C113.5 202.5 115.3 202.5 116.4 201.4"/>
    <path clip-path="url(#SVGID_4_)" fill="#9E9E00" d="M120 193.8c-0.9 1.1-0.8 2.7 0.2 3.7l0 0c0.9-1.1 0.8-2.7-0.2-3.7L120 193.8z"/>
    <path clip-path="url(#SVGID_4_)" fill="#9E9E00" d="M128.8 205.6l-2.5-2.5 -0.4 0.4c-1.1 1.1-1.1 2.9 0 4l2.5 2.5 0.4-0.4C129.9 208.5 129.9 206.7 128.8 205.6"/>
    <path clip-path="url(#SVGID_4_)" fill="#9E9E00" d="M137.3 203.4l-1-1 -2.2 2.2c-1.1 1.1-1.1 2.9 0 4l1 1 2.2-2.2C138.4 206.3 138.4 204.5 137.3 203.4"/>
    <path clip-path="url(#SVGID_4_)" fill="#9E9E00" d="M143.3 217l-1-1 -0.7 0.7c-1.1 1.1-1.1 2.9 0 4l1 1 0.7-0.7C144.4 219.9 144.4 218.1 143.3 217"/>
    <path clip-path="url(#SVGID_4_)" fill="#9E9E00" d="M149.3 213.1c-0.9-0.9-2.1-1-3.2-0.6l3.4 3.4c0.9 0.9 2.1 1 3.2 0.6L149.3 213.1z"/>
    <path clip-path="url(#SVGID_4_)" fill="#9E9E00" d="M153.5 205.7l0.5-0.5 -0.5-0.5c-1.1-1.1-2.9-1.1-4 0l-0.5 0.5 0.5 0.5C150.6 206.8 152.4 206.8 153.5 205.7"/>
    <path clip-path="url(#SVGID_4_)" fill="#9E9E00" d="M137.8 201l-1 1 2.5 2.5c1.1 1.1 2.9 1.1 4 0l1-1 -2.5-2.5C140.7 199.9 138.9 199.9 137.8 201"/>
    <path clip-path="url(#SVGID_4_)" fill="#9E9E00" d="M145.8 202l1.1-1.1c1.1-1.1 1.1-2.8 0-4l-1.1 1.1C144.8 199.1 144.8 200.9 145.8 202"/>
    <path clip-path="url(#SVGID_4_)" fill="#9E9E00" d="M136.4 235.7l2.9-2.9c0.7-0.7 1-1.8 0.7-2.7l-2.9 2.9C136.4 233.7 136.2 234.8 136.4 235.7"/>
    <path clip-path="url(#SVGID_4_)" fill="#9E9E00" d="M101.7 215.6l1.2-1.2c1-1 1.1-2.6 0.2-3.7l-1.2 1.2C100.9 212.9 100.8 214.5 101.7 215.6"/>
    <path clip-path="url(#SVGID_4_)" fill="#BCCE68" d="M135.7 411.9c-1.1-1.1-2.9-1.1-4 0l-3.6 3.6c-1.1 1.1-1.1 2.9 0 4l3.6 3.6c1.1 1.1 2.9 1.1 4 0l3.6-3.6c1.1-1.1 1.1-2.9 0-4L135.7 411.9z"/>
    <path clip-path="url(#SVGID_4_)" fill="#BCCE68" d="M144.8 416.1c-1.1-1.1-2.9-1.1-4 0l-3.6 3.6c-1.1 1.1-1.1 2.9 0 4l3.6 3.6c1.1 1.1 2.9 1.1 4 0l3.6-3.6c1.1-1.1 1.1-2.9 0-4L144.8 416.1z"/>
    <path clip-path="url(#SVGID_4_)" fill="#BCCE68" d="M83.3 445.9c-1.1-1.1-2.9-1.1-4 0l-3.6 3.6c-1.1 1.1-1.1 2.9 0 4l3.6 3.6c1.1 1.1 2.9 1.1 4 0l3.6-3.6c1.1-1.1 1.1-2.9 0-4L83.3 445.9z"/>
    <path clip-path="url(#SVGID_4_)" fill="#BCCE68" d="M95 434.2c-1.1-1.1-2.9-1.1-4 0l-3.6 3.6c-1.1 1.1-1.1 2.9 0 4l3.6 3.6c1.1 1.1 2.9 1.1 4 0l3.6-3.6c1.1-1.1 1.1-2.9 0-4L95 434.2z"/>
    <path clip-path="url(#SVGID_4_)" fill="#BCCE68" d="M83.6 429.4c-1.1-1.1-2.9-1.1-4 0l-3.6 3.6c-1.1 1.1-1.1 2.9 0 4l3.6 3.6c1.1 1.1 2.9 1.1 4 0l3.6-3.6c1.1-1.1 1.1-2.9 0-4L83.6 429.4z"/>
    <path clip-path="url(#SVGID_4_)" fill="#BCCE68" d="M98.4 419.7c-1.1-1.1-2.9-1.1-4 0l-3.6 3.6c-1.1 1.1-1.1 2.9 0 4l3.6 3.6c1.1 1.1 2.9 1.1 4 0l3.6-3.6c1.1-1.1 1.1-2.9 0-4L98.4 419.7z"/>
    <path clip-path="url(#SVGID_4_)" fill="#BCCE68" d="M110.1 423.6c-1.1-1.1-2.9-1.1-4 0l-3.6 3.6c-1.1 1.1-1.1 2.9 0 4l3.6 3.6c1.1 1.1 2.9 1.1 4 0l3.6-3.6c1.1-1.1 1.1-2.9 0-4L110.1 423.6z"/>
    <path clip-path="url(#SVGID_4_)" fill="#BCCE68" d="M106.8 406.8c-1.1-1.1-2.9-1.1-4 0l-3.6 3.6c-1.1 1.1-1.1 2.9 0 4l3.6 3.6c1.1 1.1 2.9 1.1 4 0l3.6-3.6c1.1-1.1 1.1-2.9 0-4L106.8 406.8z"/>
    <path clip-path="url(#SVGID_4_)" fill="#BCCE68" d="M126.1 426.7c-1.1-1.1-2.9-1.1-4 0l-3.6 3.6c-1.1 1.1-1.1 2.9 0 4l3.6 3.6c1.1 1.1 2.9 1.1 4 0l3.6-3.6c1.1-1.1 1.1-2.9 0-4L126.1 426.7z"/>
    <path clip-path="url(#SVGID_4_)" fill="#BCCE68" d="M119.8 414.6c-1.1-1.1-2.9-1.1-4 0l-3.6 3.6c-1.1 1.1-1.1 2.9 0 4l3.6 3.6c1.1 1.1 2.9 1.1 4 0l3.6-3.6c1.1-1.1 1.1-2.9 0-4L119.8 414.6z"/>
    <path clip-path="url(#SVGID_4_)" fill="#BCCE68" d="M119.8 405.5c-1.1-1.1-2.9-1.1-4 0l-3.6 3.6c-1.1 1.1-1.1 2.9 0 4l3.6 3.6c1.1 1.1 2.9 1.1 4 0l3.6-3.6c1.1-1.1 1.1-2.9 0-4L119.8 405.5z"/>
    <path clip-path="url(#SVGID_4_)" fill="#BCCE68" d="M130.3 404c-1.1-1.1-2.9-1.1-4 0l-3.6 3.6c-1.1 1.1-1.1 2.9 0 4l3.6 3.6c1.1 1.1 2.9 1.1 4 0l3.6-3.6c1.1-1.1 1.1-2.9 0-4L130.3 404z"/>
    <path clip-path="url(#SVGID_4_)" fill="#BCCE68" d="M139.7 400.1c-1.1-1.1-2.9-1.1-4 0l-3.6 3.6c-1.1 1.1-1.1 2.9 0 4l3.6 3.6c1.1 1.1 2.9 1.1 4 0l3.6-3.6c1.1-1.1 1.1-2.9 0-4L139.7 400.1z"/>
    <path clip-path="url(#SVGID_4_)" fill="#BCCE68" d="M125.2 395.6c-1.1-1.1-2.9-1.1-4 0l-3.6 3.6c-1.1 1.1-1.1 2.9 0 4l3.6 3.6c1.1 1.1 2.9 1.1 4 0l3.6-3.6c1.1-1.1 1.1-2.9 0-4L125.2 395.6z"/>
    <path clip-path="url(#SVGID_4_)" fill="#BCCE68" d="M125.2 388.7c-1.1-1.1-2.9-1.1-4 0l-3.6 3.6c-1.1 1.1-1.1 2.9 0 4l3.6 3.6c1.1 1.1 2.9 1.1 4 0l3.6-3.6c1.1-1.1 1.1-2.9 0-4L125.2 388.7z"/>
    <path clip-path="url(#SVGID_4_)" fill="#BCCE68" d="M118.3 386c-1.1-1.1-2.9-1.1-4 0l-3.6 3.6c-1.1 1.1-1.1 2.9 0 4l3.6 3.6c1.1 1.1 2.9 1.1 4 0l3.6-3.6c1.1-1.1 1.1-2.9 0-4L118.3 386z"/>
    <path clip-path="url(#SVGID_4_)" fill="#BCCE68" d="M116.4 376.9c-1.1-1.1-2.9-1.1-4 0l-3.6 3.6c-1.1 1.1-1.1 2.9 0 4l3.6 3.6c1.1 1.1 2.9 1.1 4 0l3.6-3.6c1.1-1.1 1.1-2.9 0-4L116.4 376.9z"/>
    <path clip-path="url(#SVGID_4_)" fill="#BCCE68" d="M127.9 376.6c-1.1-1.1-2.9-1.1-4 0l-3.6 3.6c-1.1 1.1-1.1 2.9 0 4l3.6 3.6c1.1 1.1 2.9 1.1 4 0l3.6-3.6c1.1-1.1 1.1-2.9 0-4L127.9 376.6z"/>
    <path clip-path="url(#SVGID_4_)" fill="#BCCE68" d="M133.6 386.6c-1.1-1.1-2.9-1.1-4 0l-3.6 3.6c-1.1 1.1-1.1 2.9 0 4l3.6 3.6c1.1 1.1 2.9 1.1 4 0l3.6-3.6c1.1-1.1 1.1-2.9 0-4L133.6 386.6z"/>
    <path clip-path="url(#SVGID_4_)" fill="#BCCE68" d="M141.8 387.8c-1.1-1.1-2.9-1.1-4 0l-3.6 3.6c-1.1 1.1-1.1 2.9 0 4l3.6 3.6c1.1 1.1 2.9 1.1 4 0l3.6-3.6c1.1-1.1 1.1-2.9 0-4L141.8 387.8z"/>
    <path clip-path="url(#SVGID_4_)" fill="#BCCE68" d="M149.3 399.8c-1.1-1.1-2.9-1.1-4 0l-3.6 3.6c-1.1 1.1-1.1 2.9 0 4l3.6 3.6c1.1 1.1 2.9 1.1 4 0l3.6-3.6c1.1-1.1 1.1-2.9 0-4L149.3 399.8z"/>
    <path clip-path="url(#SVGID_4_)" fill="#BCCE68" d="M153.5 391.4c-1.1-1.1-2.9-1.1-4 0l-3.6 3.6c-1.1 1.1-1.1 2.9 0 4l3.6 3.6c1.1 1.1 2.9 1.1 4 0l3.6-3.6c1.1-1.1 1.1-2.9 0-4L153.5 391.4z"/>
    <path clip-path="url(#SVGID_4_)" fill="#BCCE68" d="M153.5 381.1c-1.1-1.1-2.9-1.1-4 0l-3.6 3.6c-1.1 1.1-1.1 2.9 0 4l3.6 3.6c1.1 1.1 2.9 1.1 4 0l3.6-3.6c1.1-1.1 1.1-2.9 0-4L153.5 381.1z"/>
    <path clip-path="url(#SVGID_4_)" fill="#BCCE68" d="M143.3 380c-1.1-1.1-2.9-1.1-4 0l-3.6 3.6c-1.1 1.1-1.1 2.9 0 4l3.6 3.6c1.1 1.1 2.9 1.1 4 0l3.6-3.6c1.1-1.1 1.1-2.9 0-4L143.3 380z"/>
    <path clip-path="url(#SVGID_4_)" fill="#BCCE68" d="M160.8 411.3c-1.1-1.1-2.9-1.1-4 0l-3.6 3.6c-1.1 1.1-1.1 2.9 0 4l3.6 3.6c1.1 1.1 2.9 1.1 4 0l3.6-3.6c1.1-1.1 1.1-2.9 0-4L160.8 411.3z"/>
    <path clip-path="url(#SVGID_4_)" fill="#BCCE68" d="M109.5 395c-1.1-1.1-2.9-1.1-4 0l-3.6 3.6c-1.1 1.1-1.1 2.9 0 4l3.6 3.6c1.1 1.1 2.9 1.1 4 0l3.6-3.6c1.1-1.1 1.1-2.9 0-4L109.5 395z"/>
    <path clip-path="url(#SVGID_4_)" fill="#BCCE68" d="M99.3 393.5c-1.1-1.1-2.9-1.1-4 0l-3.6 3.6c-1.1 1.1-1.1 2.9 0 4l3.6 3.6c1.1 1.1 2.9 1.1 4 0l3.6-3.6c1.1-1.1 1.1-2.9 0-4L99.3 393.5z"/>
    <path clip-path="url(#SVGID_4_)" fill="#BCCE68" d="M89.6 403.7c-1.1-1.1-2.9-1.1-4 0l-3.6 3.6c-1.1 1.1-1.1 2.9 0 4l3.6 3.6c1.1 1.1 2.9 1.1 4 0l3.6-3.6c1.1-1.1 1.1-2.9 0-4L89.6 403.7z"/>
    <path clip-path="url(#SVGID_4_)" fill="#BCCE68" d="M110.4 441.1c-1.1-1.1-2.9-1.1-4 0l-3.6 3.6c-1.1 1.1-1.1 2.9 0 4l3.6 3.6c1.1 1.1 2.9 1.1 4 0l3.6-3.6c1.1-1.1 1.1-2.9 0-4L110.4 441.1z"/>
    <path clip-path="url(#SVGID_4_)" fill="#45454A" d="M197.4 493.2h-28c0.4 6.4 5.2 8.8 9.6 8.8 3.4 0 6.2-1.2 8-3.3l8.7 7.3c-3.7 4.8-10.5 7.6-16.8 7.6 -13.5 0-22-9.5-22-24.4 0-14.4 9-24.4 20.9-24.4 12.5 0 19.7 11.1 19.7 24.4C197.6 491 197.5 492.3 197.4 493.2M177.2 475.5c-4.5 0-7.2 3.7-7.7 8.4h16.1C185.3 479.7 182.8 475.5 177.2 475.5"/>
    <path clip-path="url(#SVGID_4_)" fill="#45454A" d="M227.6 513c-0.8 0-1.6-0.3-2.2-0.7l0.5-0.8c0.5 0.4 1.1 0.6 1.7 0.6 0.7 0 1-0.2 1-0.6 0-0.4-0.5-0.6-1.3-1 -1.2-0.5-1.7-0.9-1.7-1.8 0-1 0.8-1.6 1.9-1.6 0.7 0 1.4 0.3 1.9 0.6l-0.5 0.9c-0.5-0.3-0.9-0.5-1.5-0.5s-0.8 0.2-0.8 0.5c0 0.3 0.2 0.5 1.1 0.8 1.3 0.5 1.9 0.8 1.9 1.9C229.7 512.5 228.7 513 227.6 513"/>
    <path clip-path="url(#SVGID_4_)" fill="#45454A" d="M236.3 512.8h-1l-0.8-2.9c-0.1-0.4-0.2-0.9-0.3-1.2 -0.1 0.3-0.2 0.8-0.3 1.2l-0.8 2.9h-1l-1.6-5.7h1.1l0.7 2.8c0.1 0.4 0.2 1 0.3 1.2 0.1-0.3 0.2-0.8 0.3-1.2l0.8-2.8h0.9l0.8 2.8c0.1 0.4 0.2 1 0.3 1.2 0.1-0.3 0.2-0.8 0.3-1.2l0.7-2.8h1.1L236.3 512.8z"/>
    <path clip-path="url(#SVGID_4_)" fill="#45454A" d="M239.8 506.4c-0.4 0-0.7-0.3-0.7-0.7 0-0.4 0.3-0.7 0.7-0.7 0.4 0 0.7 0.3 0.7 0.7C240.5 506.1 240.2 506.4 239.8 506.4M239.2 507.1h1.1v5.7h-1.1V507.1z"/>
    <path clip-path="url(#SVGID_4_)" fill="#45454A" d="M244.8 512.7c-0.3 0.2-0.6 0.3-1.1 0.3 -0.8 0-1.3-0.5-1.3-1.5v-3.3h-0.8v-1h0.8v-1.6l1.1-0.6v2.2h1.4v1h-1.4v3.1c0 0.5 0.2 0.7 0.6 0.7 0.3 0 0.6-0.1 0.8-0.2L244.8 512.7z"/>
    <path clip-path="url(#SVGID_4_)" fill="#45454A" d="M246.2 512.8v-0.9l2.4-3c0.2-0.3 0.5-0.7 0.7-0.8 -0.2 0-0.7 0-1 0h-1.9v-1h4.2v0.9l-2.4 3c-0.2 0.3-0.5 0.7-0.7 0.8 0.2 0 0.8 0 1 0h2v1H246.2z"/>
    <path clip-path="url(#SVGID_4_)" fill="#45454A" d="M256.7 510.4h-3.8c0.1 1.1 0.7 1.6 1.4 1.6 0.5 0 0.9-0.2 1.2-0.5l0.7 0.7c-0.5 0.5-1.1 0.8-2 0.8 -1.3 0-2.5-1.1-2.5-3 0-1.9 1-3 2.5-3 1.6 0 2.4 1.3 2.4 2.9C256.8 510.1 256.8 510.3 256.7 510.4M254.3 508c-0.7 0-1.2 0.5-1.3 1.4h2.6C255.6 508.7 255.2 508 254.3 508"/>
    <path clip-path="url(#SVGID_4_)" fill="#45454A" d="M261.3 508.3c-0.2-0.1-0.5-0.2-0.9-0.2 -0.7 0-1.1 0.5-1.1 1.5v3.3h-1.1v-5.7h1.1v0.5c0.3-0.4 0.7-0.7 1.3-0.7 0.5 0 0.7 0.1 1 0.2L261.3 508.3z"/>
    <polygon clip-path="url(#SVGID_4_)" fill="#45454A" points="262.8 512.8 262.8 505.5 263.9 504.9 263.9 512.8 "/>
    <path clip-path="url(#SVGID_4_)" fill="#45454A" d="M268.8 512.8v-0.6c-0.4 0.4-0.9 0.7-1.6 0.7 -0.9 0-2-0.5-2-1.9 0-1.3 1-1.8 2.3-1.8 0.5 0 1 0.1 1.3 0.2v-0.4c0-0.6-0.4-1-1.1-1 -0.6 0-1 0.1-1.5 0.4l-0.4-0.8c0.5-0.3 1.2-0.5 2-0.5 1.3 0 2.1 0.6 2.1 1.9v3.9H268.8zM268.8 510.4c-0.3-0.2-0.7-0.2-1.3-0.2 -0.7 0-1.2 0.3-1.2 0.8 0 0.6 0.4 0.9 1.1 0.9 0.6 0 1.1-0.4 1.4-0.7V510.4z"/>
    <path clip-path="url(#SVGID_4_)" fill="#45454A" d="M275 512.8v-3.2c0-1.2-0.4-1.6-1.2-1.6 -0.7 0-1.2 0.5-1.2 1.5v3.3h-1.1v-5.7h1.1v0.5c0.3-0.4 0.8-0.7 1.4-0.7 1.3 0 2 0.9 2 2.6v3.3H275z"/>
    <path clip-path="url(#SVGID_4_)" fill="#45454A" d="M281.2 512.8v-0.5c-0.4 0.4-0.9 0.7-1.5 0.7 -1.2 0-2.2-0.9-2.2-3.1 0-2 1.1-2.9 2.2-2.9 0.6 0 1.1 0.3 1.4 0.7v-2.2l1.1-0.6v7.9H281.2zM281.2 508.8c-0.2-0.3-0.8-0.7-1.3-0.7 -0.8 0-1.2 0.6-1.2 1.8 0 1.4 0.5 2.1 1.3 2.1 0.5 0 1-0.4 1.3-0.7V508.8z"/>
    <path clip-path="url(#SVGID_4_)" fill="#BCCE68" d="M213.8 501.7c-1.1-1.1-2.9-1.1-4 0l-3.6 3.6c-1.1 1.1-1.1 2.9 0 4l3.6 3.6c1.1 1.1 2.9 1.1 4 0l3.6-3.6c1.1-1.1 1.1-2.9 0-4L213.8 501.7z"/>
    <path clip-path="url(#SVGID_4_)" fill="#45454A" d="M75.6 504.7h12.3v-38.9h-12.3V504.7zM46.3 483.1c-0.8 3.6-1.9 8.5-2.2 10.7 -0.4-2.3-1.5-7-2.5-10.7l-4.6-17.3h-10.2l-4.6 17.3c-1 3.7-2.1 8.4-2.5 10.7 -0.4-2.2-1.4-7.1-2.2-10.7l-4.1-17.3H0.8l11.2 38.9h14.5l2.6-10.5c0.9-3.7 2.1-8.8 2.5-11.1 0.4 2.2 1.6 7.4 2.5 11.1l2.6 10.5H51.3l11.2-38.9H50.4L46.3 483.1zM130.5 453.8v14.7c-2.2-2.1-5.8-3.7-9.9-3.7 -11.6 0-18.2 9.8-18.2 23.8 0 6.8 1.3 12.1 3.4 16.1h29c1.8 0 3.3 1.5 3.3 3.3v3.5c0 0.4 0 1.2 0 1.2h4.7v-65L130.5 453.8zM130.5 498.1c-1.8 2.3-3.7 3.9-7.6 3.9 -4.8 0-8-4-8-13.6 0-7.8 2.6-12 7.3-12 3.6 0 6.4 1.4 8.3 4V498.1z"/>
    <path clip-path="url(#SVGID_4_)" fill="#BCCE68" d="M17.1 512.6h-0.8l-0.6-2.3c-0.1-0.3-0.2-0.8-0.2-1 0 0.2-0.1 0.6-0.2 1l-0.6 2.3h-0.8l-1.3-4.6h0.9l0.5 2.2c0.1 0.3 0.2 0.8 0.2 1 0.1-0.2 0.2-0.6 0.3-1l0.6-2.2h0.7l0.6 2.2c0.1 0.4 0.2 0.8 0.2 1 0.1-0.2 0.1-0.7 0.2-1l0.5-2.2h0.9L17.1 512.6z"/>
    <path clip-path="url(#SVGID_4_)" fill="#BCCE68" d="M21.2 512.6c-1.1 0-2-0.9-2-2.4 0-1.5 0.9-2.4 2-2.4 1.2 0 2 0.9 2 2.4C23.2 511.8 22.3 512.6 21.2 512.6M21.2 508.7c-0.7 0-1.1 0.6-1.1 1.5 0 1 0.5 1.6 1.1 1.6 0.7 0 1.1-0.7 1.1-1.5C22.3 509.3 21.9 508.7 21.2 508.7"/>
    <path clip-path="url(#SVGID_4_)" fill="#BCCE68" d="M29.6 512.6v-2.6c0-0.9-0.3-1.3-0.9-1.3 -0.6 0-0.9 0.4-0.9 1.2v2.7h-0.9v-2.6c0-0.9-0.3-1.3-0.9-1.3 -0.6 0-0.9 0.4-0.9 1.2v2.7H24.3v-4.6h0.9v0.4c0.2-0.3 0.6-0.5 1.1-0.5 0.6 0 1 0.2 1.3 0.7 0.3-0.4 0.7-0.7 1.4-0.7 1.1 0 1.6 0.7 1.6 2v2.6H29.6z"/>
    <path clip-path="url(#SVGID_4_)" fill="#BCCE68" d="M35.5 510.6h-3c0.1 0.9 0.6 1.3 1.1 1.3 0.4 0 0.7-0.1 1-0.4l0.5 0.6c-0.4 0.4-0.9 0.6-1.6 0.6 -1.1 0-2-0.9-2-2.4 0-1.5 0.8-2.4 2-2.4 1.3 0 1.9 1.1 1.9 2.3C35.5 510.3 35.5 510.5 35.5 510.6M33.5 508.7c-0.6 0-1 0.4-1 1.1h2.1C34.6 509.2 34.3 508.7 33.5 508.7"/>
    <path clip-path="url(#SVGID_4_)" fill="#BCCE68" d="M39.4 512.6v-2.6c0-0.9-0.3-1.3-0.9-1.3 -0.6 0-0.9 0.4-0.9 1.2v2.7h-0.9v-4.6h0.9v0.4c0.2-0.3 0.7-0.5 1.1-0.5 1.1 0 1.6 0.7 1.6 2v2.6H39.4z"/>
    <path clip-path="url(#SVGID_4_)" fill="#BCCE68" d="M44.5 507.4c-0.3 0-0.6-0.3-0.6-0.6 0-0.3 0.3-0.6 0.6-0.6 0.3 0 0.6 0.3 0.6 0.6C45 507.1 44.8 507.4 44.5 507.4M44 508H44.9v4.6h-0.9V508z"/>
    <path clip-path="url(#SVGID_4_)" fill="#BCCE68" d="M49 512.6v-2.6c0-0.9-0.3-1.3-0.9-1.3 -0.6 0-0.9 0.4-0.9 1.2v2.7h-0.9v-4.6h0.9v0.4c0.2-0.3 0.7-0.5 1.1-0.5 1.1 0 1.6 0.7 1.6 2v2.6H49z"/>
    <path clip-path="url(#SVGID_4_)" fill="#BCCE68" d="M56.3 512.6v-0.4c-0.3 0.3-0.7 0.5-1.2 0.5 -1 0-1.8-0.7-1.8-2.5 0-1.6 0.9-2.3 1.8-2.3 0.5 0 0.9 0.2 1.1 0.5v-1.7l0.9-0.5v6.3H56.3zM56.3 509.3c-0.2-0.3-0.6-0.6-1.1-0.6 -0.6 0-1 0.5-1 1.5 0 1.1 0.4 1.7 1 1.7 0.4 0 0.8-0.3 1-0.6V509.3z"/>
    <path clip-path="url(#SVGID_4_)" fill="#BCCE68" d="M62.2 510.6h-3c0.1 0.9 0.6 1.3 1.1 1.3 0.4 0 0.7-0.1 1-0.4l0.5 0.6c-0.4 0.4-0.9 0.6-1.6 0.6 -1.1 0-2-0.9-2-2.4 0-1.5 0.8-2.4 2-2.4 1.3 0 1.9 1.1 1.9 2.3C62.3 510.3 62.2 510.5 62.2 510.6M60.3 508.7c-0.6 0-1 0.4-1 1.1h2.1C61.3 509.2 61 508.7 60.3 508.7"/>
    <path clip-path="url(#SVGID_4_)" fill="#BCCE68" d="M65.5 512.6h-0.9l-1.6-4.6h0.9l0.8 2.5c0.1 0.4 0.3 0.9 0.3 1.1 0.1-0.3 0.2-0.7 0.3-1.1l0.8-2.5h0.9L65.5 512.6z"/>
    <path clip-path="url(#SVGID_4_)" fill="#BCCE68" d="M71.8 510.6h-3c0.1 0.9 0.6 1.3 1.1 1.3 0.4 0 0.7-0.1 1-0.4l0.5 0.6c-0.4 0.4-0.9 0.6-1.6 0.6 -1.1 0-2-0.9-2-2.4 0-1.5 0.8-2.4 2-2.4 1.3 0 1.9 1.1 1.9 2.3C71.8 510.3 71.8 510.5 71.8 510.6M69.8 508.7c-0.6 0-1 0.4-1 1.1h2.1C70.8 509.2 70.5 508.7 69.8 508.7"/>
    <polygon clip-path="url(#SVGID_4_)" fill="#BCCE68" points="72.9 512.6 72.9 506.7 73.8 506.2 73.8 512.6 "/>
    <path clip-path="url(#SVGID_4_)" fill="#BCCE68" d="M77 512.6c-1.1 0-2-0.9-2-2.4 0-1.5 0.9-2.4 2-2.4 1.2 0 2 0.9 2 2.4C79.1 511.8 78.2 512.6 77 512.6M77 508.7c-0.7 0-1.1 0.6-1.1 1.5 0 1 0.5 1.6 1.1 1.6s1.1-0.7 1.1-1.5C78.2 509.3 77.7 508.7 77 508.7"/>
    <path clip-path="url(#SVGID_4_)" fill="#BCCE68" d="M82.2 512.6c-0.5 0-0.9-0.2-1.1-0.5v1.6l-0.9 0.5v-6.2h0.9v0.4c0.3-0.3 0.7-0.5 1.2-0.5 1 0 1.8 0.7 1.8 2.5C84 511.9 83.2 512.6 82.2 512.6M82.1 508.7c-0.4 0-0.8 0.3-1 0.6v1.9c0.2 0.3 0.6 0.6 1.1 0.6 0.6 0 1-0.5 1-1.5C83.1 509.2 82.8 508.7 82.1 508.7"/>
    <path clip-path="url(#SVGID_4_)" fill="#BCCE68" d="M90.4 512.6v-2.6c0-0.9-0.3-1.3-0.9-1.3 -0.6 0-0.9 0.4-0.9 1.2v2.7H87.8v-2.6c0-0.9-0.3-1.3-0.9-1.3 -0.6 0-0.9 0.4-0.9 1.2v2.7h-0.9v-4.6h0.9v0.4c0.2-0.3 0.6-0.5 1.1-0.5 0.6 0 1 0.2 1.3 0.7 0.3-0.4 0.7-0.7 1.4-0.7 1.1 0 1.6 0.7 1.6 2v2.6H90.4z"/>
    <path clip-path="url(#SVGID_4_)" fill="#BCCE68" d="M96.3 510.6H93.3c0.1 0.9 0.6 1.3 1.2 1.3 0.4 0 0.7-0.1 1-0.4l0.5 0.6c-0.4 0.4-0.9 0.6-1.6 0.6 -1.1 0-2-0.9-2-2.4 0-1.5 0.8-2.4 2-2.4 1.3 0 1.9 1.1 1.9 2.3C96.3 510.3 96.3 510.5 96.3 510.6M94.4 508.7c-0.6 0-1 0.4-1 1.1h2.1C95.4 509.2 95.1 508.7 94.4 508.7"/>
    <path clip-path="url(#SVGID_4_)" fill="#BCCE68" d="M100.2 512.6v-2.6c0-0.9-0.3-1.3-0.9-1.3 -0.6 0-0.9 0.4-0.9 1.2v2.7h-0.9v-4.6h0.9v0.4c0.2-0.3 0.7-0.5 1.1-0.5 1.1 0 1.6 0.7 1.6 2v2.6H100.2z"/>
    <path clip-path="url(#SVGID_4_)" fill="#BCCE68" d="M104.6 512.4c-0.2 0.1-0.5 0.2-0.9 0.2 -0.6 0-1-0.4-1-1.2V508.8h-0.7v-0.8h0.7v-1.3l0.9-0.5v1.8h1.1v0.8h-1.1v2.5c0 0.4 0.1 0.5 0.5 0.5 0.2 0 0.5-0.1 0.7-0.2L104.6 512.4z"/>
    <path clip-path="url(#SVGID_4_)" fill="#BCCE68" d="M112 510.6h-3c0.1 0.9 0.6 1.3 1.1 1.3 0.4 0 0.7-0.1 1-0.4l0.5 0.6c-0.4 0.4-0.9 0.6-1.6 0.6 -1.1 0-2-0.9-2-2.4 0-1.5 0.8-2.4 2-2.4 1.3 0 1.9 1.1 1.9 2.3C112 510.3 112 510.5 112 510.6M110 508.7c-0.6 0-1 0.4-1 1.1h2.1C111 509.2 110.7 508.7 110 508.7"/>
    <path clip-path="url(#SVGID_4_)" fill="#BCCE68" d="M115.8 512.6v-0.4c-0.2 0.3-0.7 0.5-1.1 0.5 -1.1 0-1.6-0.7-1.6-2v-2.6h0.9v2.6c0 0.9 0.3 1.3 0.9 1.3 0.6 0 0.9-0.4 0.9-1.2v-2.7h0.9v4.6H115.8z"/>
    <path clip-path="url(#SVGID_4_)" fill="#BCCE68" d="M120.5 508.9c-0.2-0.1-0.4-0.2-0.7-0.2 -0.6 0-0.9 0.4-0.9 1.2v2.6h-0.9v-4.6h0.9v0.4c0.2-0.3 0.6-0.5 1-0.5 0.4 0 0.6 0.1 0.8 0.2L120.5 508.9z"/>
    <path clip-path="url(#SVGID_4_)" fill="#BCCE68" d="M123.5 512.6c-1.1 0-2-0.9-2-2.4 0-1.5 0.9-2.4 2-2.4 1.2 0 2 0.9 2 2.4C125.6 511.8 124.7 512.6 123.5 512.6M123.5 508.7c-0.7 0-1.1 0.6-1.1 1.5 0 1 0.5 1.6 1.1 1.6 0.7 0 1.1-0.7 1.1-1.5C124.6 509.3 124.2 508.7 123.5 508.7"/>
    <path clip-path="url(#SVGID_4_)" fill="#BCCE68" d="M128.7 512.6c-0.5 0-0.9-0.2-1.1-0.5v1.6l-0.9 0.5v-6.2h0.9v0.4c0.3-0.3 0.7-0.5 1.2-0.5 1 0 1.8 0.7 1.8 2.5C130.5 511.9 129.6 512.6 128.7 512.6M128.6 508.7c-0.4 0-0.8 0.3-1 0.6v1.9c0.2 0.3 0.6 0.6 1.1 0.6 0.6 0 1-0.5 1-1.5C129.6 509.2 129.2 508.7 128.6 508.7"/>
    <path clip-path="url(#SVGID_4_)" fill="#BCCE68" d="M135.3 510.6h-3c0.1 0.9 0.6 1.3 1.1 1.3 0.4 0 0.7-0.1 1-0.4l0.5 0.6c-0.4 0.4-0.9 0.6-1.6 0.6 -1.1 0-2-0.9-2-2.4 0-1.5 0.8-2.4 2-2.4 1.3 0 1.9 1.1 1.9 2.3C135.3 510.3 135.3 510.5 135.3 510.6M133.3 508.7c-0.6 0-1 0.4-1 1.1h2.1C134.4 509.2 134.1 508.7 133.3 508.7"/>
    <path clip-path="url(#SVGID_4_)" fill="#96A553" d="M106.8 406.8c-0.4-0.4-1-0.7-1.6-0.8l0.3 0.3c0.4 0.4 1 0.7 1.6 0.8L106.8 406.8z"/>
    <path clip-path="url(#SVGID_4_)" fill="#96A553" d="M115.8 414.6l-1.1 1.1 1.1 1.1c1.1 1.1 2.9 1.1 4 0l1.1-1.1 -1.1-1.1C118.7 413.5 116.9 413.5 115.8 414.6"/>
    <path clip-path="url(#SVGID_4_)" fill="#96A553" d="M122.3 408.1c-0.7 1.1-0.6 2.6 0.4 3.5l1.1 1.1c0.7-1.1 0.6-2.6-0.4-3.5L122.3 408.1z"/>
    <path clip-path="url(#SVGID_4_)" fill="#96A553" d="M134.3 411.1c-0.9-0.2-1.9 0.1-2.6 0.8l-3.6 3.6c-0.1 0.1-0.3 0.3-0.4 0.5 0.9 0.2 1.9-0.1 2.6-0.8l3.6-3.6C134.1 411.5 134.2 411.3 134.3 411.1"/>
    <path clip-path="url(#SVGID_4_)" fill="#96A553" d="M131.3 405c-0.3 1 0 2 0.7 2.8l2.6 2.6c0.3-1 0-2-0.7-2.8L131.3 405z"/>
    <path clip-path="url(#SVGID_4_)" fill="#96A553" d="M128.9 403.2c-0.9-0.2-1.9 0.1-2.5 0.8l-3.6 3.6c0 0 0 0 0 0 0.9 0.2 1.9-0.1 2.5-0.8l3.6-3.6C128.8 403.2 128.8 403.2 128.9 403.2"/>
    <path clip-path="url(#SVGID_4_)" fill="#96A553" d="M121.2 395.6l-2.2 2.2 2.2 2.2c1.1 1.1 2.9 1.1 4 0l2.2-2.2 -2.2-2.2C124.1 394.5 122.3 394.5 121.2 395.6"/>
    <path clip-path="url(#SVGID_4_)" fill="#96A553" d="M121.1 388.8l-3.5 3.5c-1.1 1.1-1.1 2.9 0 4l0.8 0.8 3.5-3.5c1.1-1.1 1.1-2.9 0-4L121.1 388.8z"/>
    <path clip-path="url(#SVGID_4_)" fill="#96A553" d="M116.4 388.2l2-2 -0.2-0.2c-1.1-1.1-2.9-1.1-4 0l-2 2 0.2 0.2C113.5 389.3 115.3 389.3 116.4 388.2"/>
    <path clip-path="url(#SVGID_4_)" fill="#96A553" d="M120 380.5c-0.9 1.1-0.8 2.7 0.2 3.7l0 0c0.9-1.1 0.8-2.7-0.2-3.7L120 380.5z"/>
    <path clip-path="url(#SVGID_4_)" fill="#96A553" d="M128.8 392.3l-2.5-2.5 -0.4 0.4c-1.1 1.1-1.1 2.9 0 4l2.5 2.5 0.4-0.4C129.9 395.2 129.9 393.4 128.8 392.3"/>
    <path clip-path="url(#SVGID_4_)" fill="#96A553" d="M137.3 390.2l-1-1 -2.2 2.2c-1.1 1.1-1.1 2.9 0 4l1 1 2.2-2.2C138.4 393.1 138.4 391.3 137.3 390.2"/>
    <path clip-path="url(#SVGID_4_)" fill="#96A553" d="M143.3 403.8l-1-1 -0.7 0.7c-1.1 1.1-1.1 2.9 0 4l1 1 0.7-0.7C144.4 406.7 144.4 404.9 143.3 403.8"/>
    <path clip-path="url(#SVGID_4_)" fill="#96A553" d="M149.3 399.8c-0.9-0.9-2.1-1-3.2-0.6l3.4 3.4c0.9 0.9 2.1 1 3.2 0.6L149.3 399.8z"/>
    <path clip-path="url(#SVGID_4_)" fill="#96A553" d="M153.5 392.4l0.5-0.5 -0.5-0.5c-1.1-1.1-2.9-1.1-4 0l-0.5 0.5 0.5 0.5C150.6 393.5 152.4 393.5 153.5 392.4"/>
    <path clip-path="url(#SVGID_4_)" fill="#96A553" d="M137.8 387.8l-1 1 2.5 2.5c1.1 1.1 2.9 1.1 4 0l1-1 -2.5-2.5C140.7 386.7 138.9 386.7 137.8 387.8"/>
    <path clip-path="url(#SVGID_4_)" fill="#96A553" d="M145.8 388.7l1.1-1.1c1.1-1.1 1.1-2.8 0-4l-1.1 1.1C144.8 385.8 144.8 387.6 145.8 388.7"/>
    <path clip-path="url(#SVGID_4_)" fill="#96A553" d="M136.4 422.5l2.9-2.9c0.7-0.7 1-1.8 0.7-2.7l-2.9 2.9C136.4 420.5 136.2 421.5 136.4 422.5"/>
    <path clip-path="url(#SVGID_4_)" fill="#96A553" d="M101.7 402.4l1.2-1.2c1-1 1.1-2.6 0.2-3.7l-1.2 1.2C100.9 399.6 100.8 401.3 101.7 402.4"/>
    <rect x="-126.1" y="249" clip-path="url(#SVGID_4_)" fill="#565B5F" width="10.8" height="12"/>
    <rect x="-126.1" y="277.2" clip-path="url(#SVGID_4_)" fill="#93AAB3" width="10.8" height="12"/>
    <rect x="-126.1" y="263.2" clip-path="url(#SVGID_4_)" fill="#B8B800" width="10.8" height="12"/>
  </g>
  <g clip-path="url(#SVGID_2_)">
    <text transform="matrix(1 0 0 1 -109.8237 73.9995)">
      <tspan x="0" y="0" font-family="'Myriad-Roman'" font-size="12">
        O
      </tspan>
      <tspan x="8.3" y="0" font-family="'Myriad-Roman'" font-size="12">
        r
      </tspan>
      <tspan x="12.2" y="0" font-family="'Myriad-Roman'" font-size="12">
        i
      </tspan>
      <tspan x="15" y="0" font-family="'Myriad-Roman'" font-size="12">
        g
      </tspan>
      <tspan x="21.7" y="0" font-family="'Myriad-Roman'" font-size="12">
        inal
      </tspan>
    </text>
  </g>
  <g clip-path="url(#SVGID_2_)">
    <text transform="matrix(1 0 0 1 -109.8237 119.9956)" font-family="'Myriad-Roman'" font-size="12">
      P431
    </text>
  </g>
  <g clip-path="url(#SVGID_2_)">
    <text transform="matrix(1 0 0 1 -109.8237 134.3955)" font-family="'Myriad-Roman'" font-size="12">
      P390
    </text>
  </g>
  <g clip-path="url(#SVGID_2_)">
    <text transform="matrix(1 0 0 1 -109.8237 233.4795)">
      <tspan x="0" y="0" font-family="'Myriad-Roman'" font-size="12">
        R
      </tspan>
      <tspan x="6.5" y="0" font-family="'Myriad-Roman'" font-size="12">
        GB neu
      </tspan>
    </text>
  </g>
  <g clip-path="url(#SVGID_2_)">
    <text transform="matrix(1 0 0 1 -109.8237 406.3638)">
      <tspan x="0" y="0" font-family="'Myriad-Roman'" font-size="12">
        dein
      </tspan>
      <tspan x="22.2" y="0" font-family="'Myriad-Roman'" font-size="12"/>
      <tspan x="24.4" y="0" font-family="'Myriad-Roman'" font-size="12">
        V
      </tspan>
      <tspan x="30.7" y="0" font-family="'Myriad-Roman'" font-size="12">
        orschlag
      </tspan>
    </text>
  </g>
  <g clip-path="url(#SVGID_2_)">
    <text transform="matrix(1 0 0 1 -109.8237 420.7632)">
      <tspan x="0" y="0" font-family="'Myriad-Roman'" font-size="12">
        bit
      </tspan>
      <tspan x="13.6" y="0" font-family="'Myriad-Roman'" font-size="12">
        t
      </tspan>
      <tspan x="17.5" y="0" font-family="'Myriad-Roman'" font-size="12">
        e nic
      </tspan>
      <tspan x="40.9" y="0" font-family="'Myriad-Roman'" font-size="12">
        h
      </tspan>
      <tspan x="47.5" y="0" font-family="'Myriad-Roman'" font-size="12">
        t
      </tspan>
    </text>
  </g>
  <g clip-path="url(#SVGID_2_)">
    <text transform="matrix(1 0 0 1 -109.8237 258.3677)" fill="#565B5F" font-family="'Myriad-Roman'" font-size="12">
      565b5f
    </text>
  </g>
  <g clip-path="url(#SVGID_2_)">
    <text transform="matrix(1 0 0 1 -109.8237 275.1919)" fill="#B8B800" font-family="'Myriad-Roman'" font-size="12">
      b8b800
    </text>
  </g>
  <g clip-path="url(#SVGID_2_)">
    <text transform="matrix(1 0 0 1 -109.8237 289.1958)" fill="#93AAB3" font-family="'Myriad-Roman'" font-size="12">
      93aab3
    </text>
  </g>
  <g clip-path="url(#SVGID_2_)">
    <defs>
      <rect id="SVGID_7_" x="-169.3" y="-2" width="474.7" height="534.7"/>
    </defs>
    <clipPath id="SVGID_8_">
      <use xlink:href="#SVGID_7_" overflow="visible"/>
    </clipPath>
    <rect x="-126.1" y="429.3" clip-path="url(#SVGID_8_)" fill="#45454A" width="10.8" height="12"/>
    <rect x="-126.1" y="457.5" clip-path="url(#SVGID_8_)" fill="#5D83A3" width="10.8" height="12"/>
    <rect x="-126.1" y="443.5" clip-path="url(#SVGID_8_)" fill="#BCCE68" width="10.8" height="12"/>
  </g>
  <g clip-path="url(#SVGID_2_)">
    <text transform="matrix(1 0 0 1 -109.8237 438.647)" fill="#45454A" font-family="'Myriad-Roman'" font-size="12">
      45454A
    </text>
  </g>
  <g clip-path="url(#SVGID_2_)">
    <text transform="matrix(1 0 0 1 -109.8237 455.4712)">
      <tspan x="0" y="0" fill="#BCCE68" font-family="'Myriad-Roman'" font-size="12">
        B
      </tspan>
      <tspan x="6.5" y="0" fill="#BCCE68" font-family="'Myriad-Roman'" font-size="12">
        C
      </tspan>
      <tspan x="13.2" y="0" fill="#BCCE68" font-family="'Myriad-Roman'" font-size="12">
        CE68
      </tspan>
    </text>
  </g>
  <g clip-path="url(#SVGID_2_)">
    <text transform="matrix(1 0 0 1 -109.8237 469.4751)" fill="#93AAB3" font-family="'Myriad-Roman'" font-size="12">
      5d83a3
    </text>
  </g>
  <g clip-path="url(#SVGID_2_)">
    <defs>
      <rect id="SVGID_9_" x="-169.3" y="-2" width="474.7" height="534.7"/>
    </defs>
    <clipPath id="SVGID_10_">
      <use xlink:href="#SVGID_9_" overflow="visible"/>
    </clipPath>
    <line clip-path="url(#SVGID_10_)" fill="none" stroke="#841940" stroke-width="10" x1="305.3" y1="364.7" x2="-10" y2="523.3"/>
  </g>
</svg>
